SplineFontDB: 3.0
FontName: LibertinusSerif-Italic
FullName: Libertinus Serif Italic
FamilyName: Libertinus Serif
Weight: Regular
UComments: "2003-08-29: Created.+AAoA-2004-07-25: v(1.0) release candidate+AAoA-2005-12-28: v(1.1.0)stable+AAoA-2006-05-01: v(2.0.0)stable+AAoA-2007-01-10: v(2.3.0)stable"
Version: 5.1.6
ItalicAngle: -12
UnderlinePosition: -98
UnderlineWidth: 40
Ascent: 754
Descent: 246
InvalidEm: 0
LayerCount: 2
Layer: 0 0 "Back" 1
Layer: 1 0 "Fore" 0
XUID: [1021 975 16237491 13016554]
FSType: 0
OS2Version: 0
OS2_WeightWidthSlopeOnly: 0
OS2_UseTypoMetrics: 1
CreationTime: 1155510122
PfmFamily: 17
TTFWeight: 400
TTFWidth: 5
LineGap: 0
VLineGap: 0
OS2TypoAscent: 894
OS2TypoAOffset: 0
OS2TypoDescent: -246
OS2TypoDOffset: 0
OS2TypoLinegap: 0
OS2WinAscent: 894
OS2WinAOffset: 0
OS2WinDescent: 246
OS2WinDOffset: 0
HheadAscent: 894
HheadAOffset: 0
HheadDescent: -246
HheadDOffset: 0
OS2CapHeight: 645
OS2XHeight: 429
OS2FamilyClass: 261
OS2Vendor: 'QUE '
Lookup: 258 0 0 "'kern' Smallcap kerning" { "'kern' Small Caps" [150,15,4] } ['kern' ('DFLT' <'dflt' > 'grek' <'dflt' > 'latn' <'AZE ' 'CRT ' 'TRK ' 'dflt' > ) ]
Lookup: 258 0 0 "'kern' Cyrillic kerning" { "'kern' Cyrillic Kerning" [150,0,6] } ['kern' ('DFLT' <'dflt' > 'cyrl' <'dflt' > ) ]
Lookup: 258 0 0 "'kern' Greek kerning" { "'kern' Greek Kerning" [150,0,6] } ['kern' ('DFLT' <'dflt' > 'grek' <'dflt' > ) ]
Lookup: 257 0 0 "'cpsp' Versalabstaende" { "'cpsp' Versalabstaende 1"  } ['cpsp' ('DFLT' <'dflt' > 'cyrl' <'dflt' > 'grek' <'dflt' > 'hebr' <'dflt' > 'latn' <'AZE ' 'CRT ' 'TRK ' 'dflt' > ) ]
Lookup: 260 0 0 "'mark' Mark positioning" { "'mark' Komb OR"  "'mark' Right"  "'mark' Above"  "'mark' Middle"  "'mark' Ogonek"  "'mark' Cedilla"  "'mark' Below"  } ['mark' ('DFLT' <'dflt' > 'cyrl' <'dflt' > 'grek' <'dflt' > 'latn' <'AZE ' 'CRT ' 'TRK ' 'dflt' > ) ]

StartChar: exclam
Encoding: 33 33 0
Width: 227
GlyphClass: 2
Flags: MW
LayerCount: 2
Fore
SplineSet
88 40 m 0
 94 69 122 93 151 93 c 0
 177 93 196 74 196 49 c 0
 196 46 195 43 195 40 c 0
 190 11 162 -13 132 -13 c 0
 106 -13 87 6 87 31 c 0
 87 34 88 37 88 40 c 0
252 665 m 0
 275 665 297 647 297 611 c 0
 297 605 297 599 295 592 c 0
 284 527 261 484 235 398 c 1
 204 291 191 231 188 217 c 0
 185 206 180 197 170 197 c 0
 160 197 158 202 158 208 c 2
 158 208 158 209 158 210 c 0
 160 230 170 321 176 398 c 0
 178 425 179 447 179 466 c 0
 179 482 178 496 178 510 c 0
 178 535 179 559 185 592 c 0
 195 646 230 665 252 665 c 0
EndSplineSet
EndChar

StartChar: quotedbl
Encoding: 34 34 1
Width: 336
GlyphClass: 2
Flags: MW
LayerCount: 2
Fore
SplineSet
291 427 m 1
 291 427 292 586 294 595 c 0
 297 617 324 645 354 645 c 0
 376 645 383 632 383 619 c 0
 383 616 383 614 383 612 c 0
 380 596 318 431 318 431 c 1
 291 427 l 1
164 426 m 1
 164 426 166 585 167 594 c 0
 171 616 197 644 228 644 c 0
 250 644 257 631 257 618 c 0
 257 615 257 613 256 611 c 0
 253 595 191 430 191 430 c 1
 164 426 l 1
EndSplineSet
EndChar

StartChar: numbersign
Encoding: 35 35 2
Width: 438
GlyphClass: 2
Flags: MW
LayerCount: 2
Fore
SplineSet
376 341 m 1
 339 231 l 1
 429 231 l 1
 414 183 l 1
 324 183 l 1
 266 13 l 1
 233 13 l 1
 290 183 l 1
 180 183 l 1
 123 13 l 1
 90 13 l 1
 146 183 l 1
 56 183 l 1
 72 231 l 1
 163 231 l 1
 199 341 l 1
 109 341 l 1
 125 390 l 1
 216 390 l 1
 272 560 l 1
 306 560 l 1
 249 390 l 1
 359 390 l 1
 416 560 l 1
 449 560 l 1
 392 390 l 1
 482 390 l 1
 466 341 l 1
 376 341 l 1
307 231 m 1
 343 341 l 1
 233 341 l 1
 196 231 l 1
 307 231 l 1
EndSplineSet
EndChar

StartChar: dollar
Encoding: 36 36 3
Width: 438
GlyphClass: 2
Flags: MW
LayerCount: 2
Fore
SplineSet
92 10 m 0
 77 10 77 -1 56 -1 c 1
 63 36 66 90 69 146 c 1
 96 149 l 1
 100.6 87.7 133.8 29.8 201.1 21.9 c 1
 248.3 264.3 l 1
 194 290.6 110.5 335.9 129 434 c 0
 145.6 520.5 240.8 564.6 308.1 571.1 c 1
 319 627 l 1
 353 627 l 1
 342.2 571.7 l 1
 391.3 569.8 431 560.4 457 564 c 1
 450 519 450 470 449 421 c 1
 422 417 l 1
 420 435 l 2
 413.6 500.8 390.5 535.7 336.3 541.2 c 1
 294.6 327.3 l 1
 347.2 305.8 449.2 257.6 430 156 c 0
 423.3 123.2 390.4 -2.6 228.5 -11.5 c 1
 215 -81 l 1
 181 -81 l 1
 194.5 -11.6 l 1
 140.7 -8.5 112.2 10 92 10 c 0
235.2 22.4 m 1
 275.8 28.3 337.4 54.1 352 127 c 0
 367.6 206.8 317.2 235.1 279.7 250.9 c 1
 235.2 22.4 l 1
302.2 540.6 m 1
 253.7 533.3 205.6 496.8 194 438 c 0
 185.3 391.2 228.2 359.4 263.3 341.3 c 1
 302.2 540.6 l 1
EndSplineSet
EndChar

StartChar: percent
Encoding: 37 37 4
Width: 637
GlyphClass: 2
Flags: MW
LayerCount: 2
Fore
SplineSet
439 77 m 0
 439 25 466 10 484 10 c 0
 540 10 575 102 575 157 c 0
 575 209 544 218 530 218 c 0
 481 218 439 134 439 77 c 0
388 91 m 0
 388 167 446 250 520 250 c 0
 560 250 605 231 605 159 c 0
 605 91 561 -19 478 -19 c 0
 417 -19 388 39 388 91 c 0
436 515 m 0
 478 515 545 525 586 569 c 1
 619 548 l 1
 139 -14 l 1
 102 -5 l 1
 530 497 l 1
 491 481 456 478 427 478 c 0
 403 478 365 488 346 499 c 1
 348 491 349 482 349 474 c 0
 349 409 306 297 222 297 c 0
 159 297 131 354 131 406 c 0
 131 482 190 565 263 565 c 0
 291 565 319 552 329 540 c 1
 383 515 418 515 436 515 c 0
182 392 m 0
 182 340 209 326 228 326 c 0
 282 326 318 415 318 473 c 0
 318 522 291 533 273 533 c 0
 225 533 182 450 182 392 c 0
EndSplineSet
EndChar

StartChar: parenleft
Encoding: 40 40 5
Width: 306
GlyphClass: 2
Flags: MW
LayerCount: 2
Fore
SplineSet
108 0 m 1
 93 50 86 102 86 154 c 0
 86 187 89 219 94 252 c 0
 110 343 144 425 197 503 c 1
 227 549 286 632 387 707 c 1
 402 689 l 1
 317 610 274 533 253 492 c 0
 214 417 187 338 172 252 c 0
 164 205 159 159 159 115 c 0
 159 79 162 44 168 11 c 0
 175 -32 191 -108 247 -187 c 1
 226 -204 l 1
 169 -145 130 -80 108 0 c 1
EndSplineSet
EndChar

StartChar: parenright
Encoding: 41 41 6
Width: 313
GlyphClass: 2
Flags: MW
LayerCount: 2
Fore
SplineSet
312 504 m 1
 327 454 334 402 334 350 c 0
 334 317 331 285 326 252 c 1
 309 161 276 79 223 0 c 0
 193 -45 134 -128 33 -203 c 1
 18 -186 l 1
 103 -106 146 -29 167 12 c 0
 206 87 233 166 248 252 c 0
 256 299 261 345 261 389 c 0
 261 425 258 459 252 493 c 0
 245 536 229 612 173 691 c 1
 194 708 l 1
 251 649 290 583 312 504 c 1
EndSplineSet
EndChar

StartChar: asterisk
Encoding: 42 42 7
Width: 433
GlyphClass: 2
Flags: MW
LayerCount: 2
Fore
SplineSet
298 567 m 1
 286 570 271 571 256 571 c 0
 211 571 182 577 182 602 c 0
 182 604 182 606 182 608 c 0
 185 622 197 638 220 638 c 0
 254 638 267 605 308 587 c 1
 308 590 308 594 308 598 c 0
 308 626 299 648 299 668 c 0
 299 672 300 675 300 679 c 0
 304 700 320 718 338 718 c 0
 354 718 365 709 365 691 c 0
 365 688 365 686 365 683 c 0
 360 656 336 616 328 586 c 1
 377 606 399 638 433 638 c 0
 456 638 461 623 461 612 c 0
 461 610 461 609 461 608 c 0
 456 578 420 571 386 571 c 0
 366 571 349 570 331 567 c 1
 355 533 399 521 399 488 c 0
 399 485 399 483 398 480 c 0
 395 462 378 451 364 451 c 0
 325 451 329 516 311 555 c 1
 278 510 260 451 223 451 c 0
 208 451 198 462 198 475 c 0
 198 477 198 478 198 479 c 0
 206 522 258 530 298 567 c 1
EndSplineSet
EndChar

StartChar: plus
Encoding: 43 43 8
Width: 527
GlyphClass: 2
Flags: MW
LayerCount: 2
Fore
SplineSet
334 256 m 1
 507 256 l 1
 498 207 l 1
 325 207 l 1
 294 34 l 1
 245 34 l 1
 276 207 l 1
 103 207 l 1
 111 256 l 1
 285 256 l 1
 315 430 l 1
 364 430 l 1
 334 256 l 1
EndSplineSet
EndChar

StartChar: slash
Encoding: 47 47 9
Width: 291
GlyphClass: 2
Flags: MW
LayerCount: 2
Fore
SplineSet
402 682 m 1
 42 -21 l 1
 0 -21 l 1
 361 682 l 1
 402 682 l 1
EndSplineSet
EndChar

StartChar: one
Encoding: 49 49 10
Width: 444
GlyphClass: 2
Flags: MW
LayerCount: 2
Fore
SplineSet
308 77 m 2
 303 50 313 33 355 30 c 2
 388 28 l 1
 391 23 389 3 385 -1 c 1
 335 0 309 0 261 0 c 0
 207 0 174 0 125 -1 c 1
 121 8 123 24 127 28 c 1
 163 30 l 2
 209 33 230 49 235 77 c 2
 307 449 l 2
 309 462 311 469 311 478 c 0
 311 494 306 503 296 503 c 0
 277 503 235 498 204 487 c 1
 199 496 196 505 196 516 c 1
 279 542 338 570 380 594 c 0
 389 599 397 604 405 609 c 0
 406 610 407 610 408 610 c 0
 411 610 413 608 413 606 c 1
 308 77 l 2
EndSplineSet
EndChar

StartChar: two
Encoding: 50 50 11
Width: 444
GlyphClass: 2
Flags: MW
LayerCount: 2
Fore
SplineSet
244 587 m 0
 272 601 305 610 343 610 c 0
 407 610 485 582 485 492 c 0
 485 406 403 322 353 279 c 2
 239 181 l 2
 233 176 154 109 144 60 c 1
 312 60 l 2
 346 60 366 80 392 140 c 1
 402 140 411 137 418 132 c 1
 418 132 395 50 372 -1 c 1
 372 -1 329 0 299 0 c 2
 132 0 l 2
 102 0 55 -1 55 -1 c 1
 58 15 62 31 69 47 c 0
 87 88 122 132 202 202 c 2
 287 276 l 2
 348 330 407 398 407 484 c 0
 407 550 361 579 332 579 c 0
 252 579 224 534 224 510 c 0
 224 504 227 492 227 485 c 0
 227 477 227 468 223 461 c 0
 216 447 201 434 184 434 c 0
 165 434 149 454 149 470 c 0
 149 507 187 559 244 587 c 0
EndSplineSet
EndChar

StartChar: three
Encoding: 51 51 12
Width: 444
GlyphClass: 2
Flags: MW
LayerCount: 2
Fore
SplineSet
333 579 m 0
 306 579 234 560 223 500 c 0
 220 481 203 449 176 449 c 0
 161 449 156 461 156 473 c 0
 156 492 170 523 200 551 c 0
 233 582 286 610 358 610 c 0
 425 610 469 563 469 519 c 0
 469 470 446 419 349 358 c 1
 404 348 449 302 449 228 c 0
 449 100 332 -10 191 -10 c 0
 154 -10 104 1 77 19 c 0
 66 27 59 35 59 45 c 0
 59 65 83 86 100 86 c 0
 127 86 134 62 151 43 c 0
 162 31 177 21 205 21 c 0
 240 21 284 42 319 77 c 0
 352 111 376 158 376 213 c 0
 376 293 322 315 272 315 c 0
 259 315 247 313 231 311 c 1
 231 341 l 1
 308 351 405 432 405 504 c 0
 405 552 372 579 333 579 c 0
EndSplineSet
EndChar

StartChar: four
Encoding: 52 52 13
Width: 445
GlyphClass: 2
Flags: MW
LayerCount: 2
Fore
SplineSet
382 504 m 1
 296 383 213 304 122 213 c 1
 325 213 l 1
 382 504 l 1
469 213 m 0
 477 213 482 210 482 203 c 0
 482 189 462 171 448 171 c 0
 383 171 l 1
 365 77 l 2
 359 44 371 31 396 29 c 2
 421 27 l 1
 424 22 421 2 418 -2 c 1
 388 -1 354 0 315 0 c 24
 273 0 240 -1 210 -2 c 1
 206 6 208 23 212 27 c 1
 238 29 l 2
 268 32 293 45 299 77 c 2
 317 171 l 1
 108 171 l 2
 85 171 72 190 76 209 c 1
 196 326 288 418 407 593 c 0
 411 598 430 610 441 610 c 2
 469 610 l 1
 466 600 459 563 449 510 c 2
 391 213 l 1
 469 213 l 0
EndSplineSet
EndChar

StartChar: five
Encoding: 53 53 14
Width: 444
GlyphClass: 2
Flags: MW
LayerCount: 2
Fore
SplineSet
367 217 m 0
 367 289 325 346 275 346 c 0
 239 346 196 342 142 323 c 1
 229 605 l 1
 262 603 294 601 329 601 c 0
 379 601 439 604 493 612 c 1
 472 545 l 1
 431 540 399 538 371 538 c 0
 334 538 292 541 255 546 c 1
 201 376 l 1
 222 384 260 390 303 390 c 0
 390 390 440 315 440 230 c 0
 440 102 333 -10 200 -10 c 0
 160 -10 112 1 85 20 c 0
 73 29 65 39 65 51 c 0
 65 71 85 89 106 89 c 0
 126 89 135 71 148 54 c 0
 160 38 176 22 208 22 c 0
 240 22 273 37 301 62 c 0
 339 97 367 152 367 217 c 0
EndSplineSet
EndChar

StartChar: six
Encoding: 54 54 15
Width: 444
GlyphClass: 2
Flags: MW
LayerCount: 2
Fore
SplineSet
505 584 m 1
 433 575 348 538 291 482 c 0
 246 438 203 376 181 309 c 1
 215 337 269 360 306 360 c 0
 431 360 457 279 457 215 c 0
 457 109 360 -10 235 -10 c 0
 161 -10 88 25 88 164 c 0
 88 194 92 351 223 483 c 0
 301 562 408 609 504 612 c 1
 507 603 507 594 505 584 c 1
175 279 m 1
 168 255 160 201 160 159 c 0
 160 54 215 20 254 20 c 0
 328 20 384 134 384 205 c 0
 384 255 363 324 281 324 c 0
 256 324 224 315 175 279 c 1
EndSplineSet
EndChar

StartChar: seven
Encoding: 55 55 16
Width: 444
GlyphClass: 2
Flags: MW
LayerCount: 2
Fore
SplineSet
272 544 m 2
 220 544 204 531 177 473 c 1
 167 472 159 473 150 476 c 1
 168 526 181 565 192 611 c 0
 192 613 197 614 201 614 c 0
 205 614 209 613 210 611 c 0
 212 606 215 601 242 601 c 2
 450 601 l 2
 486 601 507 607 524 612 c 1
 536 600 l 1
 377 327 293 160 206 -10 c 1
 140 -13 l 1
 134 -6 l 1
 229 148 343 347 455 544 c 1
 272 544 l 2
EndSplineSet
EndChar

StartChar: nine
Encoding: 57 57 17
Width: 444
GlyphClass: 2
Flags: MW
LayerCount: 2
Fore
SplineSet
77 16 m 1
 149 25 234 62 291 118 c 0
 336 162 379 224 401 291 c 1
 367 263 313 240 276 240 c 0
 151 240 125 321 125 385 c 0
 125 491 222 610 347 610 c 0
 421 610 494 575 494 436 c 0
 494 406 490 249 359 117 c 0
 281 38 174 -9 78 -12 c 1
 75 -3 75 6 77 16 c 1
407 321 m 1
 414 345 422 399 422 441 c 0
 422 546 367 580 328 580 c 0
 256 580 198 466 198 395 c 0
 198 345 219 276 301 276 c 0
 326 276 358 285 407 321 c 1
EndSplineSet
EndChar

StartChar: less
Encoding: 60 60 20
Width: 487
GlyphClass: 2
Flags: MW
LayerCount: 2
Fore
SplineSet
164 239 m 1
 460 123 l 1
 452 73 l 1
 87 215 l 1
 95 263 l 1
 510 404 l 1
 501 354 l 1
 164 239 l 1
EndSplineSet
EndChar

StartChar: equal
Encoding: 61 61 21
Width: 527
GlyphClass: 2
Flags: MW
LayerCount: 2
Fore
SplineSet
496 193 m 1
 487 144 l 1
 91 144 l 1
 100 193 l 1
 496 193 l 1
518 318 m 1
 509 269 l 1
 113 269 l 1
 122 318 l 1
 518 318 l 1
EndSplineSet
EndChar

StartChar: greater
Encoding: 62 62 22
Width: 487
GlyphClass: 2
Flags: MW
LayerCount: 2
Fore
SplineSet
407 236 m 1
 111 352 l 1
 120 402 l 1
 485 260 l 1
 477 212 l 1
 62 71 l 1
 70 121 l 1
 407 236 l 1
EndSplineSet
EndChar

StartChar: question
Encoding: 63 63 23
Width: 405
GlyphClass: 2
Flags: MW
LayerCount: 2
Fore
SplineSet
146 520 m 0
 146 568 207 659 338 659 c 0
 428 659 486 612 486 539 c 0
 486 398 326 355 289 301 c 0
 271 276 262 252 257 228 c 1
 250 184 l 2
 249 177 243 174 235 174 c 0
 228 174 223 177 224 184 c 2
 232 230 l 1
 267 419 408 390 408 530 c 0
 408 584 373 629 323 629 c 0
 254 629 219 593 219 563 c 0
 219 557 221 551 224 546 c 0
 226 542 227 537 227 532 c 0
 227 512 211 487 180 487 c 0
 166 487 146 493 146 520 c 0
EndSplineSet
Refer: 257 46 N 1 0 0 1 102 0 2
EndChar

StartChar: at
Encoding: 64 64 24
Width: 829
GlyphClass: 2
Flags: MW
LayerCount: 2
Fore
SplineSet
596 316 m 0
 604 354 581 379 548 379 c 0
 532 379 491 370 456 339 c 0
 397 288 368 224 355 162 c 0
 345 114 350 70 408 70 c 0
 440 70 499 127 542 200 c 1
 562 231 588 282 596 316 c 0
557 74 m 0
 555 64 562 62 564 62 c 0
 660 62 729 109 764 275 c 0
 808 481 666 581 549 581 c 0
 408 581 230 478 179 241 c 0
 147 91 172 -125 412 -125 c 0
 491 -125 554 -102 613 -59 c 1
 622 -77 l 1
 556 -123 492 -158 387 -158 c 0
 166 -158 55 10 101 223 c 1
 146 438 355 611 565 611 c 0
 765 611 879 469 839 282 c 0
 814 168 719 27 517 27 c 0
 491 27 489 52 493 68 c 0
 496 83 507 106 520 131 c 1
 518 132 l 1
 461 58 405 29 373 29 c 0
 280 29 277 113 285 153 c 0
 315 296 458 410 557 410 c 0
 587 410 615 393 619 367 c 1
 629 391 l 1
 681 404 l 1
 693 399 l 1
 583 141 l 2
 572 114 559 83 557 74 c 0
EndSplineSet
EndChar

StartChar: A
Encoding: 65 65 25
Width: 667
GlyphClass: 2
Flags: MW
AnchorPoint: "below" 308 -108 basechar 0
AnchorPoint: "cedilla" 117 5 basechar 0
AnchorPoint: "above" 505 850 basechar 0
LayerCount: 2
Fore
SplineSet
307 283 m 2
 474 283 l 1
 433 550 l 1
 431 550 l 1
 286 296 l 2
 284.5 293.6 283.8 291.6 283.8 289.9 c 0
 283.8 284.7 291.1 283 307 283 c 2
161 79 m 2
 156.2 70.7 153.8 62.7 153.8 55.9 c 0
 153.8 41.1 165.4 31.1 190 29 c 2
 217 27 l 2
 221 27 223.5 24 223 19 c 2
 221 0 l 1
 218 -2 l 1
 183 -1 132 0 93 0 c 0
 56 0 40 -1 4 -2 c 1
 3 0 l 1
 6 19 l 2
 6.8 24.4 10 27 15 27 c 0
 57 30 85 40 122 102 c 2
 437 622 l 2
 453 649 462 658 476 658 c 0
 490 658 493 647 496 628 c 2
 588 86 l 2
 594 47 610 32 648 28 c 2
 658 27 l 2
 663 27 666.5 24 666 19 c 2
 664 0 l 1
 662 -2 l 1
 627 -1 588 0 549 0 c 0
 512 0 458 -1 422 -2 c 1
 421 0 l 1
 423 19 l 2
 423.6 24.3 427 27 431 27 c 2
 459 29 l 2
 491.6 31.6 507.9 41.3 507.9 62.7 c 0
 507.9 65.6 507.6 68.7 507 72 c 2
 482 241 l 1
 282 241 l 2
 259 241 252 237 245 224 c 2
 161 79 l 2
EndSplineSet
Position2: "'cpsp' Versalabstaende 1" dx=2 dy=0 dh=5 dv=0
EndChar

StartChar: B
Encoding: 66 66 26
Width: 557
GlyphClass: 2
Flags: MW
AnchorPoint: "below" 238 -108 basechar 0
AnchorPoint: "cedilla" 250 0 basechar 0
AnchorPoint: "above" 447 850 basechar 0
LayerCount: 2
Fore
SplineSet
290 570 m 2
 250 366 l 1
 321 366 l 2
 401 366 465 396 482 481 c 0
 484.5 493.8 485.7 505.4 485.7 516 c 0
 485.7 590 429.2 613 382 613 c 0
 298 613 296 603 290 570 c 2
244 332 m 1
 194 78 l 2
 193.1 72.8 192.5 68.2 192.5 64 c 0
 192.5 41.3 208.5 32 265 32 c 0
 411 32 451 92 466 165 c 0
 468.4 177.5 469.6 189.8 469.6 201.6 c 0
 469.6 274.9 422.8 332 310 332 c 2
 244 332 l 1
20 19 m 2
 21 24 23 27 28 27 c 2
 57 29 l 2
 98 32 108 36 115 71 c 2
 213 574 l 2
 214.5 581.1 215.3 586.9 215.3 591.7 c 0
 215.3 610 203.5 613.6 171 616 c 2
 143 618 l 2
 138 618 137 621 137 625 c 2
 141 645 l 1
 144 647 l 1
 189 646 228 645 265 645 c 0
 304 645 348 647 382 647 c 0
 528.5 647 561.9 588.1 561.9 529.9 c 0
 561.9 517.4 560.3 504.9 558 493 c 0
 548 439 496 387 443 362 c 1
 443 360 l 1
 511.3 338.4 558.6 294.4 558.6 220.9 c 0
 558.6 209.3 557.4 197 555 184 c 0
 538 98 468 -2 277 -2 c 0
 191 -2 178 0 140 0 c 0
 102 0 63 -1 18 -2 c 1
 16 0 l 1
 20 19 l 2
EndSplineSet
Position2: "'cpsp' Versalabstaende 1" dx=2 dy=0 dh=5 dv=0
EndChar

StartChar: C
Encoding: 67 67 27
Width: 616
GlyphClass: 2
Flags: MW
AnchorPoint: "below" 333 -110 basechar 0
AnchorPoint: "cedilla" 356 -7 basechar 0
AnchorPoint: "above" 500 850 basechar 0
LayerCount: 2
Fore
SplineSet
338 -10 m 0
 163.6 -10 88.8 107.6 88.8 241.4 c 0
 88.8 265.6 91.2 290.3 96 315 c 0
 134 512 310 658 469 658 c 0
 587 658 616 616 670 613 c 1
 664 559 662 510 661 458 c 1
 632 454 l 1
 624 540 584 621 451 621 c 0
 375 621 223 537 183 334 c 0
 177.6 305.9 174.8 277.4 174.8 249.7 c 0
 174.8 133.4 224.7 31 345 31 c 0
 434 31 506 62 589 140 c 1
 600 140 605 134 608 125 c 1
 526 36 431 -10 338 -10 c 0
EndSplineSet
Position2: "'cpsp' Versalabstaende 1" dx=2 dy=0 dh=5 dv=0
EndChar

StartChar: D
Encoding: 68 68 28
Width: 667
GlyphClass: 2
Flags: MW
AnchorPoint: "below" 279 -107 basechar 0
AnchorPoint: "cedilla" 279 4 basechar 0
AnchorPoint: "above" 396 850 basechar 0
LayerCount: 2
Fore
SplineSet
19 18 m 2
 20 23 24 27 28 27 c 2
 57 29 l 2
 91 31 110 42 116 74 c 2
 213 572 l 2
 214.3 578.9 215.1 584.8 215.1 589.6 c 0
 215.1 609.9 202.5 613.6 171 616 c 2
 145 618 l 2
 140 618 137 621 138 626 c 2
 141 645 l 1
 144 647 l 1
 189 646 228 645 265 645 c 0
 304 645 361 647 422 647 c 0
 583.2 647 693.7 529.5 693.7 375.3 c 0
 693.7 353.5 691.6 331 687 308 c 0
 640 62 449 -2 313 -2 c 0
 214 -2 177 0 140 0 c 0
 101 0 63 -1 18 -2 c 1
 16 0 l 1
 19 18 l 2
193 73 m 2
 192.1 68.2 191.5 64 191.5 60.2 c 0
 191.5 38.5 210 32 290 32 c 0
 425 32 555 82 594 284 c 0
 599.8 313.7 603 344.2 603 374.1 c 0
 603 499 546.1 613 379 613 c 0
 332 613 298 609 291 574 c 2
 193 73 l 2
EndSplineSet
Position2: "'cpsp' Versalabstaende 1" dx=2 dy=0 dh=5 dv=0
EndChar

StartChar: E
Encoding: 69 69 29
Width: 526
GlyphClass: 2
Flags: MW
AnchorPoint: "below" 269 -107 basechar 0
AnchorPoint: "cedilla" 279 4 basechar 0
AnchorPoint: "above" 413 850 basechar 0
LayerCount: 2
Fore
SplineSet
553 646 m 0
 553 638 549 542 545 501 c 1
 517 496 l 1
 509 565 499 605 427 605 c 2
 327 605 l 2
 304 605 290 595 285 571 c 2
 245 361 l 1
 367 361 l 2
 400 361 414 375 423 403 c 1
 430 428 l 2
 431 432 435 436 439 436 c 2
 460 436 l 1
 463 432 l 1
 452 392 445 362 442 342 c 0
 438 322 433 295 429 255 c 1
 424 252 l 1
 403 252 l 2
 398 252 397 257 398 260 c 2
 400 285 l 2
 400.3 288 400.5 290.8 400.5 293.4 c 0
 400.5 315.8 388.6 323 359 323 c 2
 237 323 l 1
 188 72 l 2
 187.3 68.1 186.9 64.7 186.9 61.6 c 0
 186.9 43.4 199 39 217 39 c 2
 347 39 l 2
 420 39 469 98 502 170 c 1
 531 165 l 1
 509 113 484 50 463 -2 c 1
 463 -2 387 0 341 0 c 2
 135 0 l 2
 98 0 58 -1 13 -2 c 1
 11 0 l 1
 15 20 l 2
 16 23 18 27 24 27 c 2
 53 29 l 2
 91 32 105 44 111 72 c 2
 208 571 l 2
 209 576.3 209.5 580.9 209.5 585.1 c 0
 209.5 605.5 196.9 613.5 167 616 c 2
 139 618 l 2
 132 618 132 622 133 625 c 2
 137 645 l 1
 139 647 l 1
 184 646 223 645 260 645 c 2
 503 645 l 2
 526 645 532 646 549 649 c 0
 552 649 553 648 553 646 c 0
EndSplineSet
Position2: "'cpsp' Versalabstaende 1" dx=2 dy=0 dh=5 dv=0
EndChar

StartChar: F
Encoding: 70 70 30
Width: 457
GlyphClass: 2
Flags: MW
AnchorPoint: "below" 131 -111 basechar 0
AnchorPoint: "cedilla" 145 -1 basechar 0
AnchorPoint: "above" 406 850 basechar 0
LayerCount: 2
Fore
SplineSet
359 323 m 2
 237 323 l 1
 189 74 l 2
 188 69 187.5 64.5 187.5 60.5 c 0
 187.5 39.6 201.1 31.5 233 29 c 2
 257 27 l 2
 262 27 265 24 264 19 c 2
 260 0 l 1
 258 -2 l 1
 213 -1 174 0 135 0 c 0
 98 0 59 -1 14 -2 c 1
 12 0 l 1
 16 19 l 2
 17 24 20 27 25 27 c 2
 51 29 l 2
 92 32 106 46 111 74 c 2
 208 571 l 2
 209.1 576.5 209.6 581.3 209.6 585.6 c 0
 209.6 605.6 197.5 613.5 167 616 c 2
 139 618 l 2
 132 618 132 622 133 625 c 2
 137 645 l 1
 139 647 l 1
 184 646 223 645 260 645 c 2
 504 645 l 2
 527 645 532 646 550 649 c 0
 552 649 553 648 553 646 c 0
 553 638 548 542 545 501 c 1
 517 496 l 1
 509 565 499 605 427 605 c 2
 327 605 l 2
 304 605 290 595 285 571 c 2
 245 361 l 1
 367 361 l 2
 400 361 414 375 423 403 c 1
 430 428 l 2
 431 432 435 436 439 436 c 2
 460 436 l 1
 463 432 l 1
 452 392 445 362 442 342 c 0
 438 322 433 295 429 255 c 1
 424 252 l 1
 403 252 l 2
 398 252 397 257 398 260 c 2
 400 285 l 2
 400.3 288 400.5 290.8 400.5 293.4 c 0
 400.5 315.8 388.6 323 359 323 c 2
EndSplineSet
Position2: "'cpsp' Versalabstaende 1" dx=2 dy=0 dh=5 dv=0
EndChar

StartChar: G
Encoding: 71 71 31
Width: 664
GlyphClass: 2
Flags: MW
AnchorPoint: "below" 345 -110 basechar 0
AnchorPoint: "cedilla" 365 2 basechar 0
AnchorPoint: "above" 513 850 basechar 0
LayerCount: 2
Fore
SplineSet
487 658 m 0
 604 658 630 613 688 613 c 1
 681 541 679 501 679 459 c 1
 649 453 l 1
 641 539 606 621 467 621 c 0
 337 621 211 502 177 327 c 0
 173.4 307.8 171.5 287.9 171.5 267.8 c 0
 171.5 149.5 235.8 26 382 26 c 0
 434 26 493 42 532 74 c 1
 562 227 l 2
 562.9 231.8 563.4 236 563.4 239.8 c 0
 563.4 260.4 549.1 266.5 517 269 c 2
 493 271 l 2
 489 271 486 274 487 279 c 2
 492 305 l 1
 494 307 l 1
 539 306 578 305 615 305 c 0
 654 305 675 306 704 307 c 1
 706 305 l 1
 701 279 l 2
 700 274 696 272 691 271 c 0
 663 268 646 262 640 227 c 2
 617 111 l 2
 615 100 618 92 627 83 c 1
 550 25 466 -10 353 -10 c 0
 184.3 -10 83.6 100 83.6 243.2 c 0
 83.6 263.8 85.7 285.2 90 307 c 0
 133 527 322 658 487 658 c 0
EndSplineSet
Position2: "'cpsp' Versalabstaende 1" dx=2 dy=0 dh=5 dv=0
EndChar

StartChar: grave
Encoding: 96 96 32
Width: 392
GlyphClass: 2
Flags: MW
LayerCount: 2
Fore
SplineSet
301 698 m 1
 349 573 l 2
 351 567 352 562 352 558 c 0
 352 555 352 552 351 549 c 0
 350 544 342 538 335 538 c 0
 328 538 322 543 309 558 c 2
 214 667 l 1
 218 677 l 1
 229 683 251 701 287 701 c 0
 292 701 298 700 301 698 c 1
EndSplineSet
EndChar

StartChar: divide
Encoding: 247 247 38
Width: 527
GlyphClass: 2
Flags: MW
LayerCount: 2
Fore
SplineSet
230 72 m 0
 230 102 259 132 292 132 c 0
 315 132 331 116 331 94 c 0
 331 60 298 34 269 34 c 0
 246 34 230 50 230 72 c 0
302 397 m 0
 302 428 331 458 364 458 c 0
 387 458 403 441 403 419 c 0
 403 386 370 359 341 359 c 0
 317 359 302 375 302 397 c 0
523 268 m 1
 512 219 l 1
 116 219 l 1
 128 268 l 1
 523 268 l 1
EndSplineSet
EndChar

StartChar: Edotaccent
Encoding: 278 278 43
Width: 526
GlyphClass: 2
Flags: MW
LayerCount: 2
Fore
SplineSet
553 646 m 0
 553 638 549 542 545 501 c 1
 517 496 l 1
 509 565 499 605 427 605 c 2
 327 605 l 2
 304 605 290 595 285 571 c 2
 245 361 l 1
 367 361 l 2
 400 361 414 375 423 403 c 1
 430 428 l 2
 431 432 435 436 439 436 c 2
 460 436 l 1
 463 432 l 1
 452 392 445 362 442 342 c 0
 438 322 433 295 429 255 c 1
 424 252 l 1
 403 252 l 2
 398 252 397 257 398 260 c 2
 400 285 l 2
 400.3 288 400.4 290.8 400.4 293.4 c 0
 400.4 315.8 388.6 323 359 323 c 2
 237 323 l 1
 188 72 l 2
 187.3 68.1 186.9 64.7 186.9 61.6 c 0
 186.9 43.4 199 39 217 39 c 2
 347 39 l 2
 420 39 469 98 502 170 c 1
 531 165 l 1
 509 113 484 50 463 -2 c 1
 463 -2 387 0 341 0 c 2
 135 0 l 2
 98 0 58 -1 13 -2 c 1
 11 0 l 1
 15 20 l 2
 16 23 18 27 24 27 c 2
 53 29 l 2
 91 32 105 44 111 72 c 2
 208 571 l 2
 209 576.3 209.5 580.9 209.5 585.1 c 0
 209.5 605.5 196.9 613.5 167 616 c 2
 139 618 l 2
 132 618 132 622 133 625 c 2
 137 645 l 1
 139 647 l 1
 184 646 223 645 260 645 c 2
 503 645 l 2
 526 645 532 646 549 649 c 0
 552 649 553 648 553 646 c 0
EndSplineSet
Refer: 666 729 N 1 0 0 1 134 100 2
Position2: "'cpsp' Versalabstaende 1" dx=2 dy=0 dh=5 dv=0
EndChar

StartChar: Eogonek
Encoding: 280 280 45
Width: 526
GlyphClass: 2
Flags: MW
LayerCount: 2
Fore
SplineSet
404 -224 m 0
 351 -224 311 -193 311 -139 c 0
 311 -91.9 350.3 -34.3 409.7 -0.8 c 1
 387 -0.4 361.1 0 341 0 c 2
 135 0 l 2
 98 0 58 -1 13 -2 c 1
 11 0 l 1
 15 20 l 2
 16 23 18 27 24 27 c 2
 53 29 l 2
 91 32 105 44 111 72 c 2
 208 571 l 2
 209 576.3 209.5 580.9 209.5 585.1 c 0
 209.5 605.5 196.9 613.5 167 616 c 2
 139 618 l 2
 132 618 132 622 133 625 c 2
 137 645 l 1
 139 647 l 1
 184 646 223 645 260 645 c 2
 503 645 l 2
 526 645 532 646 549 649 c 0
 552 649 553 648 553 646 c 0
 553 638 549 542 545 501 c 1
 517 496 l 1
 509 565 499 605 427 605 c 2
 327 605 l 2
 304 605 290 595 285 571 c 2
 245 361 l 1
 367 361 l 2
 400 361 414 375 423 403 c 1
 430 428 l 2
 431 432 435 436 439 436 c 2
 460 436 l 1
 463 432 l 1
 452 392 445 362 442 342 c 0
 438 322 433 295 429 255 c 1
 424 252 l 1
 403 252 l 2
 398 252 397 257 398 260 c 2
 400 285 l 2
 400.3 288 400.5 290.8 400.5 293.4 c 0
 400.5 315.8 388.6 323 359 323 c 2
 237 323 l 1
 188 72 l 2
 187.3 68.1 186.9 64.7 186.9 61.6 c 0
 186.9 43.4 199 39 217 39 c 2
 347 39 l 2
 420 39 469 98 502 170 c 1
 531 165 l 1
 512.4 121.1 491.6 69.3 473 22.9 c 1
 476.9 23.7 481 24.4 485 25 c 1
 506 0 l 1
 426 0 371 -75 371 -126 c 0
 371 -158 393 -185 429 -185 c 0
 459 -185 479 -170 499 -149 c 1
 514 -157 l 1
 490 -204 440 -224 404 -224 c 0
EndSplineSet
Position2: "'cpsp' Versalabstaende 1" dx=2 dy=0 dh=5 dv=0
EndChar

StartChar: eogonek
Encoding: 281 281 46
Width: 401
GlyphClass: 2
Flags: MW
LayerCount: 2
Fore
SplineSet
339.2 -108.3 m 1
 301 -153.3 256.9 -173.3 215.9 -173.3 c 0
 165.9 -173.3 132 -153.3 143 -99.3 c 0
 149.3 -68.3 174.9 -38.6 211.8 -9.9 c 1
 209.9 -10 207.9 -10 206 -10 c 0
 123 -10 83 57 83 142 c 0
 83 269 155 439 329 439 c 0
 401 439 424 390 424 365 c 0
 424 327 428 250 167 199 c 1
 166 191 166 170 166 165 c 0
 166 74 197 50 242 50 c 0
 290 50 313 59 370 117 c 1
 382 117 388 112 393 101 c 1
 357.3 55 320.8 24 282.7 6.7 c 1
 239.4 -26.5 214.3 -53.4 207.2 -88.3 c 0
 201.9 -114.3 210.7 -135.3 247.7 -135.3 c 0
 276.7 -135.3 295.9 -119.3 322.4 -97.3 c 1
 331.4 -97.3 336.6 -101.3 339.2 -108.3 c 1
355 370 m 0
 355 399 342 408 306 408 c 0
 264.1 408 209.1 378.5 173.8 237.4 c 1
 249.8 247.2 355 280.3 355 370 c 0
EndSplineSet
EndChar

StartChar: Hbar
Encoding: 294 294 59
Width: 673
GlyphClass: 2
Flags: MW
LayerCount: 2
Fore
SplineSet
603 569 m 2
 608.9 598.8 597.9 611.6 559 615 c 2
 525 618 l 1
 522 623 525 643 528 647 c 1
 572 646 617 645 655 645 c 0
 694 645 730 646 775 647 c 1
 779 638 777 622 773 618 c 1
 742 615 l 2
 701 611 686 597 680 569 c 2
 675.5 546 l 1
 763 546 l 1
 756 512 l 1
 668.8 512 l 1
 583 76 l 2
 577 45.5 588.1 33.4 627 30 c 2
 661 27 l 1
 664 22 661 2 658 -2 c 1
 614 -1 569 0 531 0 c 0
 492 0 456 -1 411 -2 c 1
 407 7 409 23 413 27 c 1
 444 30 l 2
 484.7 33.9 500.4 47.8 506 76 c 2
 554.2 321 l 1
 241.2 321 l 1
 193 76 l 2
 187 45.5 198.1 33.4 237 30 c 2
 271 27 l 1
 274 22 271 2 268 -2 c 1
 224 -1 179 0 141 0 c 0
 102 0 66 -1 21 -2 c 1
 17 7 19 23 23 27 c 1
 54 30 l 2
 94.7 33.9 110.4 47.8 116 76 c 2
 201.8 512 l 1
 166 512 l 1
 173 546 l 1
 208.5 546 l 1
 213 569 l 2
 218.9 598.8 207.9 611.6 169 615 c 2
 135 618 l 1
 132 623 135 643 138 647 c 1
 182 646 227 645 265 645 c 0
 304 645 340 646 385 647 c 1
 389 638 387 622 383 618 c 1
 352 615 l 2
 311 611 296 597 290 569 c 2
 285.5 546 l 1
 598.5 546 l 1
 603 569 l 2
562.5 363 m 1
 591.8 512 l 1
 278.8 512 l 1
 249.5 363 l 1
 562.5 363 l 1
EndSplineSet
Position2: "'cpsp' Versalabstaende 1" dx=2 dy=0 dh=5 dv=0
EndChar

StartChar: hbar
Encoding: 295 295 60
Width: 519
GlyphClass: 2
Flags: MW
LayerCount: 2
Fore
SplineSet
175.9 72 m 2
 167 34 168 -10 130 -10 c 0
 98.2 -10 89.1 0.5 89.1 17.2 c 0
 89.1 27 97 52 101.8 72 c 2
 203.7 530 l 1
 143 530 l 1
 152 569 l 1
 212.3 569 l 1
 216.3 588 218 603 218 613 c 0
 218 635 210 641 197 641 c 2
 166 643 l 2
 162 643 161 645 161 648 c 2
 164 672 l 1
 205 675 277 688 304 698 c 1
 313 698 316 695 316 688 c 1
 316 688 305.5 647.9 291 583 c 2
 287.9 569 l 1
 445 569 l 1
 436 530 l 1
 279.1 530 l 1
 230.3 311.5 l 1
 321.5 418.2 374.2 439 426 439 c 0
 465 439 492 419 492 359 c 0
 492 341 487 318 479 283 c 2
 441 124 l 2
 435 98 430 76 430 67 c 0
 430 55 432.9 50 440 50 c 0
 450 50 479 70 505 100 c 1
 519 100 525 92 528 83 c 1
 482 24 437 -10 389 -10 c 0
 359 -10 348 4 348 23 c 0
 348 42 357 83 365 115 c 2
 403 275 l 2
 411 309 413 328 413 342 c 0
 413 373 399 379 378 379 c 0
 342 379 277 320 214 238 c 1
 175.9 72 l 2
EndSplineSet
EndChar

StartChar: itilde
Encoding: 297 297 62
Width: 276
GlyphClass: 2
Flags: MW
LayerCount: 2
Fore
SplineSet
297.3 570 m 0
 317.1 570 331.5 580 351.8 622 c 1
 372.3 616 l 1
 350.5 556 318.9 526 277.5 526 c 0
 257.7 526 241 538 224.7 552 c 0
 210.5 563 195.4 574 180.1 574 c 0
 156.7 574 142.2 559 127.2 526 c 1
 106.5 531 l 1
 129.9 590 156.1 620 194.8 620 c 0
 221.8 620 239.1 606 254.5 592 c 0
 266.7 580 280.2 570 297.3 570 c 0
EndSplineSet
Refer: 421 305 N 1 0 0 1 0 0 2
EndChar

StartChar: imacron
Encoding: 299 299 64
Width: 276
GlyphClass: 2
Flags: MW
LayerCount: 2
Fore
SplineSet
347.4 570 m 2
 127.8 570 l 2
 119.7 570 117.6 578 118.9 585 c 0
 121.1 597 134.1 614 144 614 c 2
 364.5 614 l 2
 373.5 614 375.6 606 374.5 600 c 0
 372.3 588 359.1 570 347.4 570 c 2
EndSplineSet
Refer: 421 305 N 1 0 0 1 0 0 2
EndChar

StartChar: ibreve
Encoding: 301 301 66
Width: 276
GlyphClass: 2
Flags: MW
LayerCount: 2
Fore
SplineSet
162 650 m 1
 162.2 597 194.1 560 242.7 560 c 0
 289.5 560 336.8 592 356.4 650 c 1
 378.5 638 l 1
 352 552 285.4 503 232.3 503 c 0
 169.3 503 132.5 553 135.5 638 c 1
 162 650 l 1
EndSplineSet
Refer: 421 305 N 1 0 0 1 0 0 2
EndChar

StartChar: Iogonek
Encoding: 302 302 67
Width: 280
GlyphClass: 2
Flags: MW
LayerCount: 2
Fore
SplineSet
172 -225 m 0
 119 -225 79 -194 79 -140 c 0
 79 -92.2 119.6 -33.5 180.5 -0.3 c 1
 166.8 -0.1 153.5 0 141 0 c 0
 102 0 66 -1 21 -2 c 1
 17 7 19 23 23 27 c 1
 54 30 l 2
 94.7 33.9 110.4 47.8 116 76 c 2
 213 569 l 2
 218.9 598.8 207.9 611.6 169 615 c 2
 135 618 l 1
 132 623 135 643 138 647 c 1
 182 646 227 645 265 645 c 0
 304 645 340 646 385 647 c 1
 389 638 387 622 383 618 c 1
 352 615 l 2
 311 611 296 597 290 569 c 2
 193 76 l 2
 187 45.5 198.1 33.4 237 30 c 2
 271 27 l 1
 273.2 23.3 272.2 11.2 270.2 3.6 c 1
 274 -1 l 1
 272.2 -1 270.3 -1 268.5 -1.1 c 0
 268.3 -1.4 268.2 -1.8 268 -2 c 0
 265.2 -1.9 262.5 -1.9 259.7 -1.8 c 0
 187.5 -10 139 -79.1 139 -127 c 0
 139 -159 161 -186 197 -186 c 0
 227 -186 248 -171 267 -150 c 1
 282 -158 l 1
 258 -205 208 -225 172 -225 c 0
EndSplineSet
Position2: "'cpsp' Versalabstaende 1" dx=2 dy=0 dh=5 dv=0
EndChar

StartChar: iogonek
Encoding: 303 303 68
Width: 276
GlyphClass: 2
Flags: MW
LayerCount: 2
Fore
SplineSet
245.3 320.2 m 2
 200 124 l 2
 194.1 98.4 189 76 189 67 c 0
 189 55 191.9 50 199 50 c 0
 209 50 238 70 264 100 c 1
 278 100 284 92 287 83 c 1
 270.3 61.6 253.7 43.5 237.1 29.1 c 1
 239.7 27.9 238.9 24.7 230 17 c 0
 213 2 125 -73 125 -123 c 0
 125 -145 144 -167 177 -167 c 0
 207 -167 225 -153 251 -131 c 1
 265 -138 l 1
 228 -183 188 -206 146 -206 c 0
 99 -206 64 -182 64 -138 c 0
 64 -91.3 102.5 -51.6 143.2 -9.9 c 1
 116.9 -8.5 107 5.1 107 23 c 0
 107 42 117 83 124 115 c 2
 171 321 l 2
 177.7 349 180 362.9 180 372 c 0
 180 382 174 391 162 392 c 2
 122 395 l 1
 116 404 114.3 415 121 423 c 1
 168 429 213 436 245 436 c 0
 258.2 436 265.5 428.6 265.5 414.9 c 0
 265.5 397.8 254.3 359.3 245.3 320.2 c 2
EndSplineSet
Refer: 675 775 N 1 0 0 1 304 -34 2
EndChar

StartChar: uni0408
Encoding: 1032 1032 70
Width: 371
GlyphClass: 2
Flags: MW
LayerCount: 2
Fore
SplineSet
146 19 m 0
 196 19 213 79 232 172 c 2
 307 559 l 2
 308 563 308 567 308 571 c 0
 308 597 291 618 257 618 c 2
 221 618 l 2
 216 618 213 621 214 626 c 2
 218 645 l 1
 220 646 l 1
 220 646 323 645 362 645 c 0
 398 645 481 646 481 646 c 1
 483 645 l 1
 479 626 l 1
 479 621 475 618 470 618 c 2
 454 618 l 2
 413 618 396 602 391 574 c 2
 316 194 l 1
 282 16 204 -12 141 -12 c 0
 109 -12 48 -3 48 41 c 0
 48 44 48 48 49 51 c 0
 54 76 73 86 88 86 c 0
 115 86 122 63 122 51 c 0
 122 49 122 49 122 46 c 0
 122 33 127 19 146 19 c 0
EndSplineSet
EndChar

StartChar: uni0413
Encoding: 1043 1043 74
Width: 481
GlyphClass: 2
Flags: MW
LayerCount: 2
Fore
SplineSet
460 605 m 2
 336 605 l 2
 314 605 299 599 293 573 c 2
 196 72 l 2
 195 67 195 63 195 59 c 0
 195 39 208 28 242 28 c 2
 269 28 l 2
 273 28 276 25 275 20 c 2
 271 1 l 1
 269 -1 l 1
 269 -1 176 1 140 1 c 0
 101 1 14 -1 14 -1 c 1
 12 1 l 1
 16 20 l 2
 17 25 21 28 26 28 c 2
 52 28 l 2
 92 28 109 41 116 72 c 2
 213 573 l 2
 214 580 215 586 215 592 c 0
 215 612 204 618 170 618 c 2
 140 618 l 2
 136 618 133 621 134 625 c 2
 138 645 l 1
 140 646 l 1
 140 646 254 645 267 645 c 2
 345 645 l 1
 591 645 l 1
 585 591 582 531 582 490 c 1
 552 485 l 1
 543 554 536 605 460 605 c 2
EndSplineSet
EndChar

StartChar: uni0414
Encoding: 1044 1044 75
Width: 655
GlyphClass: 2
Flags: MW
LayerCount: 2
Fore
SplineSet
121 47 m 0
 150 75 185 145 246 301 c 1
 292 415 323 518 335 581 c 0
 336 586 336 590 336 594 c 0
 336 609 328 617 307 617 c 2
 277 617 l 2
 272 617 270 621 271 625 c 2
 273 637 l 2
 274 641 280 646 287 646 c 2
 739 646 l 2
 742 646 744 642 743 639 c 2
 741 625 l 1
 739 619 735 617 731 617 c 2
 702 617 l 2
 670 617 662 601 655 565 c 2
 560 78 l 2
 559 73 559 68 559 64 c 0
 559 38 576 28 590 28 c 0
 610 28 617 22 617 12 c 0
 617 11 617 9 617 8 c 2
 594 -141 l 1
 567 -141 l 1
 566 -85 547 0 467 0 c 2
 181 0 l 2
 98 0 55 -89 34 -141 c 1
 7 -141 l 1
 42 8 l 2
 45 20 57 28 67 28 c 0
 88 28 101 28 121 47 c 0
544 605 m 2
 421 605 l 2
 394 605 380 591 374 566 c 0
 346 465 312 361 286 293 c 0
 231 151 193 67 193 53 c 0
 193 44 204 39 217 39 c 2
 436 39 l 2
 459 39 473 42 479 79 c 1
 574 566 l 2
 576 574 577 580 577 585 c 0
 577 600 568 605 544 605 c 2
EndSplineSet
EndChar

StartChar: uni0416
Encoding: 1046 1046 76
Width: 855
GlyphClass: 2
Flags: MW
LayerCount: 2
Fore
SplineSet
832 -1 m 1
 766 0 l 2
 694 1 679 70 662 180 c 0
 646 282 637 323 531.1 323 c 1
 482 71 l 2
 481 67 481 62 481 58 c 0
 481 37 495 28 528 28 c 2
 555 28 l 2
 559 28 562 25 562 20 c 1
 558 1 l 1
 556 -1 l 1
 556 -1 469 1 430 1 c 0
 394 1 301 -1 301 -1 c 1
 299 1 l 1
 303 20 l 2
 304 25 307 28 312 28 c 2
 338 28 l 2
 379 28 396 43 401 71 c 2
 451.4 329.7 l 1
 450 323 l 1
 344 323 320 282 264 180 c 0
 204 70 162 1 90 0 c 2
 24 -1 l 1
 23 1 l 1
 27 20 l 2
 28 25 32 28 36 28 c 2
 45 28 l 2
 78 28 144 103 221 236 c 1
 257 296 284 343 346 343 c 1
 293 363 285 432 285 491 c 0
 285 506 285 520 286 533 c 0
 286 534 286 536 286 537 c 0
 286 565 273 590 253 590 c 0
 242 590 229 583 217 572 c 0
 208 563 193 559 181 559 c 0
 164 559 149 572 149 592 c 0
 149 595 149 598 150 601 c 0
 154 624 176 651 224 651 c 0
 284 651 322 607 322 552 c 0
 322 550 321 547 321 544 c 0
 320 528 319 511 319 493 c 0
 319 449 326 404 360 381 c 0
 380.9 366.1 425.5 366 458.5 366 c 1
 499 574 l 2
 500 579 501 583 501 587 c 0
 501 608 486 618 453 618 c 2
 427 618 l 2
 422 618 419 621 420 626 c 2
 424 645 l 1
 426 646 l 1
 426 646 513 645 552 645 c 0
 587 645 681 646 681 646 c 1
 683 645 l 1
 679 626 l 2
 678 621 674 618 669 618 c 2
 643 618 l 2
 602 618 585 602 580 574 c 2
 532.4 329.7 l 1
 540 366 l 1
 573 366 617 366 644 381 c 0
 703 413 728 488 747 544 c 1
 765 602 822 651 885 651 c 0
 926 651 940 631 940 610 c 0
 940 607 940 604 939 601 c 0
 935 576 911 559 892 559 c 0
 880 559 867 563 861 572 c 0
 854 583 844 590 832 590 c 0
 812 590 788 562 777 533 c 0
 755 470 720 368 643 343 c 1
 705 343 714 296 727 236 c 1
 752 103 789 28 822 28 c 2
 831 28 l 2
 835 28 838 25 837 20 c 2
 833 1 l 1
 832 -1 l 1
EndSplineSet
EndChar

StartChar: uni0417
Encoding: 1047 1047 77
Width: 520
GlyphClass: 2
Flags: MW
LayerCount: 2
Fore
SplineSet
242 25 m 0
 310 25 403 68 426 176 c 0
 437 227 422 336 310 336 c 2
 240 336 l 2
 229 336 224 343 226 354 c 0
 229 365 237 373 248 373 c 2
 292 373 l 2
 407 373 455 451 467 506 c 0
 481 573 430 624 371 624 c 0
 253 624 214 550 175 469 c 1
 147 471 l 1
 203 646 l 1
 287 646 322 658 380 658 c 0
 469 658 566 611 546 516 c 0
 529 437 477 387 403 360 c 1
 466 340 540 299 517 192 c 0
 485 41 345 -12 232 -12 c 0
 154 -12 114 19 89 43 c 0
 68 64 53 91 59 118 c 0
 64 144 79 165 101 165 c 0
 128 165 136 152 139 120 c 0
 146 59 169 25 242 25 c 0
EndSplineSet
EndChar

StartChar: uni0418
Encoding: 1048 1048 78
Width: 671
GlyphClass: 2
Flags: MW
LayerCount: 2
Fore
SplineSet
692 574 m 2
 585 71 l 2
 584 66 584 61 584 56 c 0
 584 36 597 27 628 27 c 2
 654 27 l 2
 658 27 661 24 660 19 c 2
 656 0 l 1
 654 -2 l 1
 654 -2 571 0 533 0 c 0
 499 0 409 -2 409 -2 c 1
 407 0 l 1
 412 19 l 2
 413 24 416 27 421 27 c 2
 446 27 l 2
 485 27 502 43 508 71 c 2
 600 505 l 1
 196 78 l 1
 194 72 l 2
 193 66 193 61 193 57 c 0
 193 36 206 27 237 27 c 2
 263 27 l 2
 267 27 270 24 269 19 c 2
 265 0 l 1
 262 -2 l 1
 262 -2 180 0 142 0 c 0
 108 0 18 -2 18 -2 c 1
 17 0 l 1
 21 19 l 1
 21 24 25 27 30 27 c 2
 55 27 l 2
 94 27 111 44 117 72 c 2
 224 575 l 2
 225 580 226 585 226 589 c 0
 226 609 213 618 181 618 c 2
 155 618 l 2
 151 618 148 621 149 626 c 2
 153 645 l 1
 156 646 l 1
 156 646 239 644 276 644 c 0
 310 644 400 646 400 646 c 1
 401 645 l 1
 397 626 l 2
 396 621 393 618 388 618 c 2
 363 618 l 2
 324 618 307 603 301 575 c 2
 208 134 l 1
 612 561 l 1
 615 574 l 2
 616 580 617 584 617 589 c 0
 617 609 603 618 572 618 c 2
 546 618 l 2
 542 618 539 621 540 626 c 2
 544 645 l 1
 546 646 l 1
 546 646 629 644 667 644 c 0
 701 644 791 647 791 647 c 1
 792 645 l 1
 789 626 l 2
 788 621 784 618 779 618 c 2
 754 618 l 2
 715 618 698 602 692 574 c 2
EndSplineSet
EndChar

StartChar: uni0423
Encoding: 1059 1059 84
Width: 580
GlyphClass: 2
Flags: MW
LayerCount: 2
Fore
SplineSet
203 40 m 0
 235 40 264 61 310 136 c 1
 197 559 l 2
 191 579 179 618 130 618 c 0
 124 618 121 621 122 625 c 2
 125 645 l 1
 127 646 l 1
 127 646 189 645 230 645 c 0
 280 645 361 646 361 646 c 1
 363 645 l 1
 359 626 l 2
 358 621 355 618 351 618 c 2
 312 618 l 2
 291 618 283 612 281 602 c 0
 280 595 280 586 282 575 c 2
 372 229 l 1
 570 575 l 2
 577 587 581 595 582 601 c 0
 582 602 582 604 582 605 c 0
 582 616 570 618 545 618 c 2
 516 618 l 2
 512 618 510 621 511 625 c 2
 515 645 l 1
 517 646 l 1
 517 646 582 645 625 645 c 0
 656 645 705 646 705 646 c 1
 706 645 l 1
 702 626 l 2
 701 620 694 618 690 618 c 0
 644 618 632 606 608 566 c 2
 373 161 l 2
 310 52 240 -22 150 -22 c 0
 110 -22 72 -2 72 27 c 0
 72 29 72 31 73 33 c 0
 78 61 96 79 128 79 c 0
 142 79 164 72 170 60 c 1
 176 51 188 40 203 40 c 0
EndSplineSet
EndChar

StartChar: uni0426
Encoding: 1062 1062 86
Width: 639
GlyphClass: 2
Flags: MW
LayerCount: 2
Fore
SplineSet
458 2 m 2
 458 2 369 3 271 3 c 0
 222 3 171 3 128 2 c 2
 20 -1 l 1
 17 1 l 1
 21 18 l 1
 21 23 27 28 31 28 c 2
 58 28 l 1
 90 29 99 35 106 75 c 2
 203 572 l 2
 205 582 206 590 206 596 c 0
 206 614 197 618 172 618 c 2
 143 618 l 2
 139 618 137 619 138 623 c 2
 143 645 l 1
 145 646 l 1
 253 645 l 1
 370 646 l 1
 372 645 l 1
 368 623 l 2
 367 620 365 618 361 618 c 2
 332 618 l 2
 299 618 292 612 284 572 c 2
 188 83 l 2
 187 73 186 65 186 59 c 0
 186 40 195 37 219 37 c 2
 431 37 l 2
 467 37 473 51 479 83 c 2
 574 572 l 2
 576 581 577 589 577 596 c 0
 577 611 570 617 544 618 c 1
 514 618 l 2
 511 618 509 619 510 623 c 2
 514 645 l 1
 517 646 l 1
 624 645 l 1
 740 646 l 1
 742 645 l 1
 738 623 l 2
 738 620 735 618 731 618 c 2
 702 618 l 1
 666 617 661 605 655 572 c 2
 559 77 l 2
 558 73 557 69 557 65 c 0
 557 45 569 28 590 28 c 0
 611 28 616 20 616 12 c 0
 616 11 615 9 615 8 c 2
 593 -141 l 1
 566 -141 l 1
 565 -70 536 2 458 2 c 2
EndSplineSet
EndChar

StartChar: uni0427
Encoding: 1063 1063 87
Width: 620
GlyphClass: 2
Flags: MW
LayerCount: 2
Fore
SplineSet
414 26 m 2
 450 26 457 39 463 73 c 2
 510 317 l 1
 428 266 356 250 299 250 c 0
 208 250 174 300 174 371 c 0
 174 389 176 408 180 428 c 2
 209 578 l 2
 211 587 212 594 212 599 c 0
 212 616 203 620 174 620 c 2
 156 620 l 2
 153 620 151 621 151 623 c 0
 151 624 151 624 151 625 c 2
 155 646 l 1
 262 645 l 1
 371 646 l 1
 367 625 l 2
 366 621 364 620 360 620 c 2
 342 620 l 2
 300 620 296 609 290 578 c 2
 259 417 l 2
 256 405 255 393 255 383 c 0
 255 328 290 308 352 308 c 0
 381 308 445 312 518 355 c 1
 561 577 l 2
 563 586 564 594 564 599 c 0
 564 615 555 619 529 619 c 2
 500 619 l 2
 496 619 495 621 496 624 c 2
 500 646 l 1
 614 644 l 1
 729 646 l 1
 725 625 l 2
 724 621 722 619 718 619 c 2
 689 619 l 2
 655 619 649 614 642 577 c 2
 543 73 l 2
 542 63 540 55 540 49 c 0
 540 32 549 26 574 26 c 2
 603 26 l 2
 606 26 608 23 607 20 c 2
 604 -1 l 1
 490 1 l 1
 365 -1 l 1
 369 21 l 2
 370 24 371 26 375 26 c 2
 414 26 l 2
EndSplineSet
EndChar

StartChar: uni0428
Encoding: 1064 1064 88
Width: 923
GlyphClass: 2
Flags: MW
LayerCount: 2
Fore
SplineSet
944 574 m 2
 837 70 l 2
 835 61 834 54 834 49 c 0
 834 32 843 27 866 27 c 2
 895 27 l 2
 898 27 899 25 899 22 c 2
 894 0 l 1
 892 -2 l 1
 782 0 l 1
 172 0 l 1
 32 -2 l 1
 30 0 l 1
 35 22 l 2
 36 25 38 27 41 27 c 2
 70 27 l 1
 102 28 109 36 118 75 c 2
 224 574 l 2
 225 579 225 584 225 588 c 0
 225 609 212 618 181 618 c 2
 155 618 l 2
 151 618 148 621 149 626 c 2
 153 645 l 1
 155 646 l 1
 155 646 238 645 276 645 c 0
 310 645 397 646 397 646 c 1
 399 645 l 1
 395 626 l 2
 394 621 391 618 386 618 c 2
 363 618 l 2
 324 618 307 602 301 574 c 2
 197 83 l 2
 194 72 193 63 193 56 c 0
 193 49 194 44 200 39 c 1
 203 35 211 34 224 34 c 2
 397 34 l 2
 427 34 434 52 440 83 c 2
 544 574 l 2
 546 579 546 584 546 588 c 0
 546 609 533 618 501 618 c 2
 479 618 l 2
 474 618 471 621 472 626 c 2
 476 645 l 1
 479 646 l 1
 479 646 559 645 597 645 c 0
 631 645 718 646 718 646 c 1
 720 645 l 1
 716 626 l 2
 715 621 711 618 707 618 c 2
 684 618 l 2
 644 618 627 602 622 574 c 2
 518 83 l 2
 516 74 514 65 514 58 c 0
 514 43 521 34 542 34 c 2
 715 34 l 2
 746 34 754 44 763 83 c 2
 867 574 l 2
 868 579 869 584 869 588 c 0
 869 609 855 618 824 618 c 2
 801 618 l 2
 796 618 793 621 794 626 c 2
 798 645 l 1
 801 646 l 1
 801 646 881 645 919 645 c 0
 953 645 1043 646 1043 646 c 1
 1044 645 l 1
 1041 626 l 2
 1040 621 1036 618 1031 618 c 2
 1006 618 l 2
 967 618 950 602 944 574 c 2
EndSplineSet
EndChar

StartChar: uni0429
Encoding: 1065 1065 89
Width: 940
GlyphClass: 2
Flags: MW
LayerCount: 2
Fore
SplineSet
301 574 m 2
 197 83 l 2
 195 74 193 66 193 59 c 0
 193 43 200 34 224 34 c 2
 390 34 l 2
 426 34 433 47 440 83 c 2
 544 574 l 2
 546 579 546 584 546 588 c 0
 546 609 533 618 501 618 c 2
 479 618 l 2
 474 618 471 621 472 626 c 2
 476 645 l 1
 479 646 l 1
 479 646 559 645 597 645 c 0
 631 645 718 646 718 646 c 1
 720 645 l 1
 716 626 l 2
 715 621 711 618 707 618 c 2
 684 618 l 2
 644 618 627 602 622 574 c 2
 518 83 l 2
 515 73 514 65 514 58 c 0
 514 41 524 34 553 34 c 2
 715 34 l 2
 748 34 755 47 763 83 c 2
 867 574 l 2
 868 579 869 584 869 588 c 0
 869 609 855 618 824 618 c 2
 801 618 l 2
 796 618 793 621 794 626 c 2
 798 645 l 1
 801 646 l 1
 801 646 881 645 919 645 c 0
 953 645 1043 646 1043 646 c 1
 1044 645 l 1
 1041 626 l 2
 1040 621 1036 618 1031 618 c 2
 1006 618 l 2
 967 618 950 602 944 574 c 2
 839 81 l 2
 838 74 837 69 837 64 c 0
 837 37 854 27 867 27 c 0
 881 27 892 24 892 12 c 0
 892 10 891 8 891 6 c 2
 866 -141 l 1
 840 -141 l 1
 840 -138 840 -134 840 -131 c 0
 840 -84 821 0 744 0 c 2
 141 0 l 1
 32 -2 l 1
 30 0 l 1
 35 22 l 2
 36 25 38 27 41 27 c 2
 70 27 l 2
 102 27 108 31 117 70 c 2
 224 574 l 2
 225 579 225 584 225 588 c 0
 225 609 212 618 181 618 c 2
 155 618 l 2
 151 618 148 621 149 626 c 2
 153 645 l 1
 155 646 l 1
 155 646 238 645 276 645 c 0
 310 645 397 646 397 646 c 1
 399 645 l 1
 395 626 l 2
 394 621 391 618 386 618 c 2
 363 618 l 2
 324 618 307 602 301 574 c 2
EndSplineSet
EndChar

StartChar: uni042A
Encoding: 1066 1066 90
Width: 717
GlyphClass: 2
Flags: MW
LayerCount: 2
Fore
SplineSet
411 333 m 1
 361 79 l 2
 359 71 358 64 358 58 c 0
 358 39 369 29 411 29 c 0
 562 29 615 121 627 183 c 1
 630 193 631 205 631 217 c 0
 631 273 603 333 498 333 c 2
 411 333 l 1
429 645 m 2
 465 645 558 646 558 646 c 1
 560 645 l 1
 556 626 l 2
 555 621 552 618 547 618 c 2
 521 618 l 2
 479 618 462 602 457 574 c 2
 418 373 l 1
 479 373 l 2
 679 373 722 306 722 233 c 0
 722 216 720 199 717 183 c 0
 684 16 524 -1 403 -1 c 0
 367 -1 336 1 307 1 c 0
 271 1 178 -1 178 -1 c 1
 176 1 l 1
 180 20 l 2
 181 25 185 28 189 28 c 2
 216 28 l 2
 257 28 273 44 279 72 c 2
 375 564 l 2
 376 569 376 573 376 577 c 0
 376 596 367 606 343 606 c 2
 281 606 l 2
 216 606 164 512 147 469 c 1
 118 474 l 1
 138 530 153 584 167 646 c 1
 390 646 l 1
 429 645 l 2
EndSplineSet
EndChar

StartChar: uni042B
Encoding: 1067 1067 91
Width: 786
GlyphClass: 2
Flags: MW
LayerCount: 2
Fore
SplineSet
791 575 m 2
 693 73 l 2
 692 68 692 64 692 60 c 0
 692 38 706 29 739 29 c 2
 766 29 l 2
 770 29 773 26 772 21 c 2
 769 2 l 1
 766 0 l 1
 766 0 680 2 641 2 c 0
 605 2 511 0 511 0 c 1
 510 2 l 1
 513 21 l 2
 514 26 518 29 523 29 c 2
 549 29 l 2
 590 29 607 45 612 73 c 2
 710 575 l 2
 711 580 711 584 711 588 c 0
 711 610 697 619 664 619 c 2
 637 619 l 2
 633 619 630 622 631 627 c 2
 634 646 l 1
 637 648 l 1
 637 648 723 646 762 646 c 0
 798 646 892 648 892 648 c 1
 893 646 l 1
 890 627 l 2
 889 622 885 619 880 619 c 2
 854 619 l 2
 812 619 796 603 791 575 c 2
EndSplineSet
Refer: 92 1068 N 1 0 0 1 0 0 2
EndChar

StartChar: uni042C
Encoding: 1068 1068 92
Width: 558
GlyphClass: 2
Flags: MW
LayerCount: 2
Fore
SplineSet
217 574 m 2
 218 578 219 582 219 586 c 0
 219 606 206 618 171 618 c 2
 145 618 l 2
 140 618 138 621 139 626 c 2
 143 645 l 1
 145 646 l 1
 145 646 238 645 273 645 c 0
 312 645 399 646 399 646 c 1
 401 645 l 1
 397 626 l 2
 396 621 392 618 388 618 c 2
 361 618 l 2
 322 618 304 604 298 574 c 2
 259 373 l 1
 320 373 l 2
 520 373 563 306 563 233 c 0
 563 216 561 199 558 183 c 0
 525 16 365 -1 244 -1 c 0
 208 -1 177 1 148 1 c 0
 120 1 19 -1 19 -1 c 1
 17 1 l 1
 21 20 l 2
 22 25 25 28 30 28 c 2
 57 28 l 2
 98 28 114 44 120 72 c 2
 217 574 l 2
251 333 m 1
 202 79 l 2
 200 71 199 64 199 58 c 0
 199 39 210 29 251 29 c 0
 403 29 456 121 468 183 c 0
 470 193 472 205 472 217 c 0
 472 273 444 333 339 333 c 2
 251 333 l 1
EndSplineSet
EndChar

StartChar: uni042D
Encoding: 1069 1069 93
Width: 579
GlyphClass: 2
Flags: MW
LayerCount: 2
Fore
SplineSet
518 307 m 1
 458 273 415 273 403 273 c 0
 343 273 310 311 253 311 c 0
 217 311 198 295 190 295 c 0
 187 295 182 298 184 307 c 0
 189 332 256 360 312 360 c 0
 376 360 398 329 454 329 c 0
 480 329 504 335 525 344 c 1
 559 550 469 621 391 621 c 0
 300 621 217 540 174 454 c 1
 146 458 l 1
 168 511 186 558 200 613 c 1
 256 616 306 658 407 658 c 0
 565 658 655 550 609 333 c 0
 562 113 424 -12 261 -12 c 0
 178 -12 131 19 106 43 c 0
 84 64 71 95 77 122 c 0
 82 148 98 165 115 165 c 0
 143 165 151 152 154 120 c 0
 162 48 209 21 278 21 c 0
 400 21 487 169 518 307 c 1
EndSplineSet
EndChar

StartChar: uni042E
Encoding: 1070 1070 94
Width: 905
GlyphClass: 2
Flags: MW
LayerCount: 2
Fore
SplineSet
683 624 m 0
 599 624 477 537 436 327 c 0
 430 297 428 269 428 243 c 0
 428 102 506 22 597 22 c 0
 700 22 804 131 838 310 c 0
 846 349 850 385 850 417 c 0
 850 554 784 624 683 624 c 0
930 329 m 0
 891 129 750 -12 572 -12 c 0
 434 -12 337 81 337 232 c 0
 337 255.5 338.7 279.8 343.9 305 c 1
 246.1 305 l 1
 201 71 l 2
 200 67 199 62 199 58 c 0
 199 37 214 28 247 28 c 2
 273 28 l 2
 278 28 281 25 280 20 c 2
 276 1 l 1
 274 -1 l 1
 274 -1 188 1 148 1 c 0
 113 1 20 -1 20 -1 c 1
 18 1 l 1
 21 20 l 2
 22 25 26 28 31 28 c 2
 57 28 l 2
 98 28 115 43 120 71 c 2
 218 574 l 2
 219 579 219 583 219 587 c 0
 219 608 205 618 172 618 c 2
 146 618 l 2
 141 618 138 621 139 626 c 2
 143 645 l 1
 145 646 l 1
 145 646 231 645 271 645 c 0
 306 645 399 646 399 646 c 1
 401 645 l 1
 397 626 l 2
 396 621 393 618 388 618 c 2
 362 618 l 2
 321 618 304 602 298 574 c 2
 253.6 344 l 1
 352.8 344 l 1
 400.8 523.3 544.7 658 701 658 c 0
 844 658 938 562 938 411 c 0
 938 385 936 358 930 329 c 0
EndSplineSet
EndChar

StartChar: uni042F
Encoding: 1071 1071 95
Width: 561
GlyphClass: 2
Flags: MW
LayerCount: 2
Fore
SplineSet
436 323 m 1
 329 323 307 282 251 180 c 0
 191 70 148 1 77 0 c 2
 11 -1 l 1
 10 1 l 1
 14 20 l 2
 15 25 19 28 22 28 c 2
 32 28 l 2
 64 28 129 103 208 236 c 0
 232 277 252 311 282 329 c 1
 224 338 161 375 161 454 c 0
 161 464 162 475 164 487 c 0
 177 556 229 646 415 646 c 0
 450 646 508 645 541 645 c 0
 573 645 669 646 669 646 c 1
 666 625 l 2
 665 621 662 618 657 618 c 2
 627 618 l 2
 585 618 572 608 565 574 c 2
 467 71 l 2
 466 67 466 62 466 58 c 0
 466 37 480 28 514 28 c 2
 540 28 l 2
 544 28 548 25 547 20 c 2
 543 1 l 1
 541 -1 l 1
 541 -1 454 1 415 1 c 0
 379 1 286 -1 286 -1 c 1
 284 1 l 1
 288 20 l 2
 289 25 292 28 297 28 c 2
 324 28 l 2
 365 28 381 43 387 71 c 2
 436 323 l 1
485 575 m 2
 486 581 487 586 487 591 c 0
 487 609 471 611 401 611 c 0
 345 611 262 595 244 502 c 0
 241 488 240 475 240 464 c 0
 240 389 295 366 367 366 c 2
 444 366 l 1
 485 575 l 2
EndSplineSet
EndChar

StartChar: uni0447
Encoding: 1095 1095 96
Width: 515
GlyphClass: 2
Flags: MW
LayerCount: 2
Fore
SplineSet
240.3 320.2 m 2
 233 293 l 2
 226 266 223 244 223 227 c 0
 223 200 228 181 261 181 c 0
 293.8 181 358.3 220.1 398.7 250.7 c 1
 422 357 l 2
 430 395 430 439 468 439 c 0
 500 439 510 429 510 412 c 0
 510 400 500.6 369.9 497 352 c 2
 441 124 l 2
 435 98 430 81 430 72 c 0
 430 60 433 55 440 55 c 0
 450 55 479 70 505 100 c 1
 519 100 525 92 528 83 c 1
 482 24 437 -10 389 -10 c 0
 359 -10 352 4 352 23 c 0
 352 42 362 84 369 115 c 2
 390.1 211.2 l 1
 343.5 175.7 267.9 131 210 131 c 0
 157 131 144 156 144 195 c 0
 144 213 146 230 151 254 c 2
 166 321 l 2
 173 349 175 362.9 175 372 c 0
 175 382 169 391 157 392 c 2
 117 395 l 1
 111 404 109.3 415 116 423 c 1
 163 429 208 436 240 436 c 0
 253.2 436 260.5 428.6 260.5 414.9 c 0
 260.5 397.8 251 359 240.3 320.2 c 2
EndSplineSet
EndChar

StartChar: uni0448
Encoding: 1096 1096 97
Width: 792
GlyphClass: 2
Flags: MW
LayerCount: 2
Fore
SplineSet
381 70 m 0
 381 77.7 383 104 389 122 c 1
 387 124 l 1
 329 50 276 -10 205 -10 c 0
 174 -10 137 15 137 82 c 0
 137 101 141 127 146 150 c 2
 183 305 l 2
 189.4 331.7 194 348 194 357 c 0
 194 369 191 374 184 374 c 0
 174 374 142 359 116 329 c 1
 102 329 96 337 93 346 c 1
 139 405 196 439 244 439 c 0
 274 439 280 425 280 406 c 0
 280 387 268 346 260 314 c 2
 223 157 l 2
 216 127 213 103 213 92 c 0
 213 56 231 39 250 39 c 0
 282 39 319 80 404 199 c 1
 438 357 l 2
 446 394 446 439 484 439 c 0
 516 439 526 429 526 412 c 0
 526 400 517 370 513 352 c 2
 468 153 l 2
 461 123 461 98 461 86 c 0
 461 59 472 42 490 42 c 0
 540 42 589 121 663 247 c 1
 692 357 l 2
 702 395 700 439 738 439 c 0
 770 439 780 429 780 412 c 0
 780 400 770.6 369.9 767 352 c 2
 711 124 l 2
 705 98 700 81 700 72 c 0
 700 60 703 55 710 55 c 0
 720 55 749 70 775 100 c 1
 789 100 795 92 798 83 c 1
 752 24 707 -10 659 -10 c 0
 629 -10 622 4 622 23 c 0
 622 42 630 83 639 115 c 2
 650 154 l 1
 647 156 l 1
 576 52 537 -10 448 -10 c 0
 410 -10 381 13 381 70 c 0
EndSplineSet
EndChar

StartChar: uni0449
Encoding: 1097 1097 98
Width: 792
GlyphClass: 2
Flags: MW
LayerCount: 2
Fore
SplineSet
381 70 m 0
 381 77.7 383 104 389 122 c 1
 387 124 l 1
 329 50 276 -10 205 -10 c 0
 174 -10 137 15 137 82 c 0
 137 101 141 127 146 150 c 2
 183 305 l 2
 189.4 331.7 194 348 194 357 c 0
 194 369 191 374 184 374 c 0
 174 374 142 359 116 329 c 1
 102 329 96 337 93 346 c 1
 139 405 196 439 244 439 c 0
 274 439 280 425 280 406 c 0
 280 387 268 346 260 314 c 2
 223 157 l 2
 216 127 213 103 213 92 c 0
 213 56 231 39 250 39 c 0
 282 39 319 80 404 199 c 1
 438 357 l 2
 446 394 446 439 484 439 c 0
 516 439 526 429 526 412 c 0
 526 400 517 370 513 352 c 2
 468 153 l 2
 461 123 461 98 461 86 c 0
 461 59 472 42 490 42 c 0
 540 42 589 121 663 247 c 1
 692 357 l 2
 702 395 700 439 738 439 c 0
 770 439 780 429 780 412 c 0
 780 400 770.6 369.9 767 352 c 2
 711 124 l 2
 705 98 700 81 700 72 c 0
 700 60 703 55 710 55 c 0
 720 55 749 70 775 100 c 1
 789 100 795 92 798 83 c 1
 783.9 64.9 769.8 49.1 755.8 36 c 1
 751.6 23.1 749 9.6 749 -3 c 0
 749 -21 751 -34 753 -45 c 0
 756 -58 758 -70 758 -85 c 0
 758 -112 748 -144 653 -181 c 1
 642 -153 l 1
 672 -139 700 -124 700 -94 c 0
 700 -88 699 -80 699 -68 c 0
 699 -44.4 704.8 -21.2 716.7 6.5 c 1
 697.8 -4.3 678.7 -10 659 -10 c 0
 629 -10 622 4 622 23 c 0
 622 42 630 83 639 115 c 2
 650 154 l 1
 647 156 l 1
 576 52 537 -10 448 -10 c 0
 410 -10 381 13 381 70 c 0
EndSplineSet
EndChar

StartChar: uni044A
Encoding: 1098 1098 99
Width: 500
GlyphClass: 2
Flags: MW
LayerCount: 2
Fore
SplineSet
317 30 m 0
 385 30 436 104 436 190 c 0
 436 219 429 258 395 258 c 0
 366 258 333 238 295 207 c 0
 284 198 259 172 259 111 c 0
 259 63 279 30 317 30 c 0
517 214 m 0
 517 88 387 -12 274 -12 c 0
 214 -12 178 30 178 95 c 0
 178 183 250 306 318 383 c 1
 312 382 297 379 279 379 c 0
 258 379 232 382 205 382 c 0
 166 382 146 352 123 308 c 1
 99 319 l 1
 138 427 188 442 210 442 c 0
 258 442 295 423 333 423 c 0
 348 423 364 439 376 449 c 1
 397 429 l 1
 354 381 316 335 278 231 c 1
 280 231 l 1
 349 290 405 312 445 312 c 0
 492 312 517 266 517 214 c 0
EndSplineSet
EndChar

StartChar: uni044C
Encoding: 1100 1100 101
Width: 440
GlyphClass: 2
Flags: MW
LayerCount: 2
Fore
SplineSet
253 22 m 0
 309 22 379 93 379 194 c 0
 379 239 358 262 334 262 c 0
 315 262 289 250 250 215 c 0
 239 205 196 165 196 90 c 0
 196 48 220 22 253 22 c 0
245.3 320.2 m 2
 223 228 l 1
 225 228 l 1
 285 285 342 315 381 315 c 0
 428 315 457 270 457 216 c 0
 457 89 331 -12 212 -12 c 0
 163 -12 121 17 121 72 c 0
 121 87 124 106 128 123 c 2
 171 321 l 2
 177 349 180 362.9 180 372 c 0
 180 382 174 391 162 392 c 2
 122 395 l 1
 116 404 114.3 415 121 423 c 1
 168 429 213 436 245 436 c 0
 258.2 436 265.5 428.6 265.5 414.9 c 0
 265.5 397.8 255 359 245.3 320.2 c 2
EndSplineSet
EndChar

StartChar: uni044D
Encoding: 1101 1101 102
Width: 408
GlyphClass: 2
Flags: MW
LayerCount: 2
Fore
SplineSet
120 84 m 0
 120 80 120 78 120 73 c 0
 120 42 143 23 181 23 c 0
 268 23 327 130 345 208 c 1
 322 196 287 180 258 180 c 0
 217 180 197 207 164 207 c 0
 153 207 142 202 135 202 c 0
 129 202 130 211 131 215 c 0
 135 230 181 248 221 248 c 0
 263 248 274 229 310 229 c 0
 324 229 338 231 350 236 c 1
 352 252 354 269 354 286 c 0
 354 348 335 406 269 406 c 0
 194 406 175 374 148 313 c 1
 121 317 l 1
 136 361 137 372 152 427 c 1
 217 427 219 439 286 439 c 0
 379 439 430 370 430 284 c 0
 430 197.4 387 94.9 317 37 c 0
 276.2 3.3 224.7 -10 171 -10 c 0
 102 -10 57 25 57 70 c 0
 57 109 86 115 93 115 c 0
 102 115 120 112 120 84 c 0
EndSplineSet
EndChar

StartChar: uni044E
Encoding: 1102 1102 103
Width: 628
GlyphClass: 2
Flags: MW
LayerCount: 2
Fore
SplineSet
101.8 72 m 2
 161 321 l 2
 168 349 170 362.9 170 372 c 0
 170 382 164 391 152 392 c 2
 112 395 l 1
 106 404 104.3 415 111 423 c 1
 158 429 203 436 235 436 c 0
 248.2 436 255.5 428.6 255.5 414.9 c 0
 255.5 397.8 244 359 235.3 320.2 c 2
 217.6 244 l 1
 313 244 l 1
 337.1 343.2 405 439 520.3 439 c 0
 629 439 644.8 349 644.8 277 c 0
 644.8 158.8 584.9 52.9 507.9 9 c 0
 482 -5.8 455.1 -10 426.6 -10 c 0
 314.4 -10 302.9 109 302.9 162 c 0
 302.9 175.9 303.9 190.4 305.8 205 c 1
 208.6 205 l 1
 177.9 72 l 2
 169 34 170 -10 132 -10 c 0
 100.2 -10 89.1 0.5 89.1 17.2 c 0
 89.1 27 97 52 101.8 72 c 2
376.2 170 m 0
 376.2 65 414.3 27 439.9 27 c 0
 473 27 508.8 45 533.5 88 c 0
 565.7 144 571.5 230.4 571.5 270 c 0
 571.5 300.4 569.1 336.6 557.8 362 c 0
 545.3 390.1 530.9 406 504.4 406 c 0
 410.7 406 376.2 260 376.2 170 c 0
EndSplineSet
EndChar

StartChar: uni044F
Encoding: 1103 1103 104
Width: 449
GlyphClass: 2
Flags: MW
LayerCount: 2
Fore
SplineSet
323 230 m 1
 362 398 l 1
 349 401 335 403 322 403 c 0
 239 403 191 356 191 311 c 0
 191 268 212 230 259 230 c 2
 323 230 l 1
300 115 m 2
 318 195 l 1
 288 195 l 2
 248 195 217 144 182 84 c 0
 159 43 119 1 87 0 c 2
 28 -2 l 1
 24 4 23 20 28 27 c 1
 41 28 l 2
 71 30 118 98 142 136 c 0
 167 177 193 198 222 204 c 1
 182 208 123 240 123 297 c 0
 123 375 196.7 430 289 430 c 2
 407 429 l 1
 491 431 l 1
 492 429 l 1
 492 405 l 2
 492 403 490 402 487 402 c 2
 462 402 l 2
 438 402 436 393 431 372 c 2
 372 124 l 2
 366 98 361 76 361 67 c 0
 361 55 364 50 371 50 c 0
 381 50 410 70 436 100 c 1
 450 100 456 92 459 83 c 1
 413 24 368 -10 320 -10 c 0
 290 -10 283 4 283 23 c 0
 283 42 293 82 300 115 c 2
EndSplineSet
EndChar

StartChar: uni04AE
Encoding: 1198 1198 105
Width: 525
GlyphClass: 2
Flags: MW
LayerCount: 2
Fore
SplineSet
320 47 m 0
 319 39 321 33 327 28 c 0
 330 26 338 24 351 24 c 2
 380 23 l 1
 382 23 l 2
 385 23 387 21 387 17 c 1
 387 17 387 17 386 16 c 2
 383 0 l 1
 382 -3 l 1
 380 -3 l 2
 376 -3 277 0 266 0 c 0
 263 0 167 -2 155 -3 c 1
 153 -3 l 1
 153 0 l 1
 157 16 l 2
 159 21 161 23 165 23 c 2
 165 23 166 23 167 23 c 2
 196 24 l 2
 211 24 219 26 223 28 c 0
 230 33 235 40 238 47 c 0
 240 53 242 60 244 69 c 2
 293 281 l 1
 191 573 l 1
 185 594 l 1
 180 603 175 609 167 614 c 0
 164 617 154 618 141 619 c 1
 128 619 l 1
 125 620 124 620 123 621 c 0
 121 622 119 624 120 626 c 2
 124 643 l 1
 124 646 l 1
 126 646 l 2
 130 646 221 643 231 643 c 0
 235 643 333 646 345 646 c 2
 347 646 l 1
 347 643 l 1
 343 627 l 2
 342 625 341 623 340 621 c 0
 339 620 337 619 336 619 c 2
 307 619 l 1
 292 618 286 617 284 615 c 0
 280 611 279 609 278 605 c 0
 277 602 278 600 278 597 c 0
 281 586 282 579 283 575 c 2
 368 341 l 1
 548 575 l 2
 556 585 560 592 562 597 c 1
 565 601 566 603 566 605 c 0
 567 610 567 612 565 615 c 0
 564 617 558 618 544 619 c 1
 515 619 l 1
 510 620 510 623 511 626 c 2
 515 643 l 1
 515 646 l 1
 518 646 l 2
 521 646 599 643 608 643 c 0
 611 643 686 646 694 646 c 2
 697 646 l 1
 696 643 l 1
 693 627 l 2
 692 624 690 622 688 621 c 0
 686 620 683 619 681 619 c 2
 661 619 l 1
 646 618 637 617 631 614 c 0
 620 608 611 602 605 594 c 0
 603 591 597 583 589 573 c 2
 376 293 l 1
 325 69 l 2
 323 61 321 54 320 47 c 0
EndSplineSet
EndChar

StartChar: uni04C0
Encoding: 1216 1216 106
Width: 288
GlyphClass: 2
Flags: MW
LayerCount: 2
Fore
SplineSet
238 594 m 1
 238 603 236 609 231 613 c 0
 228 616 221 618 207 618 c 2
 177 618 l 1
 172 619 170 621 171 625 c 2
 176 645 l 1
 288 642 l 1
 405 645 l 1
 401 626 l 2
 400 624 398 619 391 618 c 1
 361 618 l 2
 348 618 339 616 335 613 c 0
 327 607 322 602 320 595 c 0
 318 587 316 581 314 573 c 2
 198 67 l 2
 196 59 195 52 193 45 c 1
 193 38 195 32 200 27 c 0
 203 24 211 23 224 22 c 1
 253 22 l 1
 260 21 260 18 260 14 c 1
 255 -4 l 1
 255 -4 185 -2 139 -2 c 0
 95 -2 26 -4 26 -4 c 1
 30 15 l 2
 32 21 37 22 40 22 c 2
 70 22 l 1
 84 23 92 24 96 27 c 0
 104 32 108 38 111 46 c 0
 113 51 115 59 117 67 c 2
 234 573 l 2
 236 584 237 590 238 594 c 1
EndSplineSet
EndChar

StartChar: uni04E1
Encoding: 1249 1249 120
Width: 426
GlyphClass: 2
Flags: MW
LayerCount: 2
Fore
SplineSet
207 430 m 2
 437 430 l 2
 452 430 458 427 458 420 c 0
 458 419 458 418 458 417 c 0
 456 411 450 401 441 388 c 2
 256 152 l 1
 352 144 400 95 400 19 c 0
 400 3 398 -14 394 -32 c 0
 372 -128 273 -224 129 -224 c 0
 43 -224 -8 -189 -8 -158 c 0
 -8 -156 -8 -154 -7 -152 c 0
 -3 -136 8 -122 29 -122 c 0
 52 -122 67 -128 74 -149 c 0
 82 -172 104 -195 145 -195 c 0
 194 -195 292 -150 319 -33 c 0
 322 -22 323 -11 323 -1 c 0
 323 64 275 113 208 113 c 0
 190 113 170 111 147 106 c 1
 370 391 l 1
 228 391 l 2
 198 391 166 378 127 294 c 1
 102 299 l 1
 169 451 l 1
 191 447 l 1
 190 444 190 442 189 441 c 0
 188 432 193 430 207 430 c 2
EndSplineSet
EndChar

StartChar: uni04E9
Encoding: 1257 1257 124
Width: 447
GlyphClass: 2
Flags: MW
AnchorPoint: "below" 246 -107 basechar 0
AnchorPoint: "above" 236 645 basechar 0
LayerCount: 2
Fore
SplineSet
161 170 m 0
 161 65 204 27 233 27 c 0
 270.5 27 311 45 339 88 c 0
 358.9 118.5 369.8 158 375.7 194.1 c 1
 356.4 185.8 335 179 316 179 c 0
 275 179 250 207 218 207 c 0
 207 207 177 200 170 200 c 0
 164 200 165 209 166 213 c 0
 169 228 235 249 275 249 c 0
 316 249 332 229 368 229 c 0
 372 229 376.1 229.3 380.2 229.9 c 1
 381.6 245.6 382 259.5 382 270 c 0
 382 300.4 379.3 336.6 366.5 362 c 0
 352.3 390.1 336 406 306 406 c 0
 200 406 161 260 161 170 c 0
78 162 m 0
 78 282 157 439 324 439 c 0
 447 439 465 349 465 277 c 0
 465 158.8 397.1 52.9 310 9 c 0
 280.6 -5.8 250.3 -10 218 -10 c 0
 91 -10 78 109 78 162 c 0
EndSplineSet
EndChar

StartChar: uni1E10
Encoding: 7696 7696 146
Width: 667
GlyphClass: 2
Flags: MW
LayerCount: 2
Fore
SplineSet
19 18 m 2
 20 23 24 27 28 27 c 2
 57 29 l 2
 91 31 110 42 116 74 c 2
 213 572 l 2
 214.3 578.9 215.1 584.8 215.1 589.6 c 0
 215.1 609.9 202.5 613.6 171 616 c 2
 145 618 l 2
 140 618 137 621 138 626 c 2
 141 645 l 1
 144 647 l 1
 189 646 228 645 265 645 c 0
 304 645 361 647 422 647 c 0
 583.2 647 693.8 529.5 693.8 375.3 c 0
 693.8 353.5 691.6 331 687 308 c 0
 640 62 449 -2 313 -2 c 0
 214 -2 177 0 140 0 c 0
 101 0 63 -1 18 -2 c 1
 16 0 l 1
 19 18 l 2
193 73 m 2
 192.1 68.2 191.5 64 191.5 60.2 c 0
 191.5 38.5 210 32 290 32 c 0
 425 32 555 82 594 284 c 0
 599.8 313.7 603 344.2 603 374.1 c 0
 603 499 546.1 613 379 613 c 0
 332 613 298 609 291 574 c 2
 193 73 l 2
EndSplineSet
Refer: 682 806 N 1 0 0 1 570 0 2
EndChar

StartChar: uni1E14
Encoding: 7700 7700 150
Width: 526
GlyphClass: 2
Flags: MW
LayerCount: 2
Fore
SplineSet
230.4 742.2 m 0
 230.4 736.9 227.2 725.5 215.7 725.5 c 0
 208 725.5 197.2 729.8 184.9 736 c 2
 76.3 791.5 l 1
 143.3 831.1 l 1
 221.9 757.2 l 2
 227.3 751.9 230.4 746.6 230.4 742.2 c 0
EndSplineSet
Refer: 1410 772 N 1 0 0 1 515 227 2
Refer: 29 69 N 1 0 0 1 0 0 2
EndChar

StartChar: uni1E15
Encoding: 7701 7701 151
Width: 401
GlyphClass: 2
Flags: MW
LayerCount: 2
Fore
SplineSet
327.4 765.2 m 1
 362.9 651.8 l 2
 365.3 642.8 364.9 636.5 363.8 630.2 c 0
 363 625.7 356.4 620.3 350 620.3 c 0
 345.2 620.3 340.5 624.8 330.1 638.3 c 2
 256.6 736.4 l 1
 260 746.3 l 1
 267.4 751.7 288.6 767 315.8 767 c 0
 319.8 767 324.4 766.1 327.4 765.2 c 1
EndSplineSet
Refer: 419 275 N 1 0 0 1 0 0 2
EndChar

StartChar: uni1E16
Encoding: 7702 7702 152
Width: 526
GlyphClass: 2
Flags: MW
LayerCount: 2
Fore
SplineSet
540.5 724.5 m 0
 534.3 724.5 531.3 727.2 531.3 734.2 c 0
 531.3 742.1 536.6 748.3 547.4 756.2 c 2
 656 830.1 l 1
 706.1 790.5 l 1
 575.9 735 l 2
 559.7 728.8 547.4 724.5 540.5 724.5 c 0
EndSplineSet
Refer: 1410 772 N 1 0 0 1 458 227 2
Refer: 29 69 N 1 0 0 1 0 0 2
EndChar

StartChar: uni1E17
Encoding: 7703 7703 153
Width: 401
GlyphClass: 2
Flags: MW
LayerCount: 2
Fore
SplineSet
379.6 759.2 m 1
 382.2 760.1 387.2 761 391.2 761 c 0
 396.3 761 416.6 760.1 431.4 740.3 c 1
 432 730.4 l 1
 322.3 632.3 l 2
 307.9 618.8 300.8 615.2 295.2 615.2 c 0
 289.6 615.2 285 620.6 286.1 626.9 c 0
 287.9 637 291.2 640.6 299.8 652.1 c 2
 379.6 759.2 l 1
EndSplineSet
Refer: 419 275 N 1 0 0 1 0 0 2
EndChar

StartChar: uni1E27
Encoding: 7719 7719 169
Width: 519
GlyphClass: 2
Flags: MW
LayerCount: 2
Fore
SplineSet
465 572 m 0
 465 597 485 618 510 618 c 0
 535 618 556 597 556 572 c 0
 556 547 535 527 510 527 c 0
 485 527 465 547 465 572 c 0
328 572 m 0
 328 597 348 618 373 618 c 0
 398 618 418 597 418 572 c 0
 418 547 398 527 373 527 c 0
 348 527 328 547 328 572 c 0
EndSplineSet
Refer: 290 104 N 1 0 0 1 0 0 2
EndChar

StartChar: uni1E28
Encoding: 7720 7720 170
Width: 673
GlyphClass: 2
Flags: MW
LayerCount: 2
Fore
SplineSet
117 -80 m 0
 97 -80 88 -82 71 -86 c 1
 66 -80 l 1
 120.2 -0.1 l 1
 88.8 -0.4 57.9 -1.2 21 -2 c 1
 17 7 19 23 23 27 c 1
 54 30 l 2
 94.7 33.9 110.4 47.8 116 76 c 2
 213 569 l 2
 218.9 598.8 207.9 611.6 169 615 c 2
 135 618 l 1
 132 623 135 643 138 647 c 1
 182 646 227 645 265 645 c 0
 304 645 340 646 385 647 c 1
 389 638 387 622 383 618 c 1
 352 615 l 2
 311 611 296 597 290 569 c 2
 249.5 363 l 1
 562.5 363 l 1
 603 569 l 2
 608.9 598.8 597.9 611.6 559 615 c 2
 525 618 l 1
 522 623 525 643 528 647 c 1
 572 646 617 645 655 645 c 0
 694 645 730 646 775 647 c 1
 779 638 777 622 773 618 c 1
 742 615 l 2
 701 611 686 597 680 569 c 2
 583 76 l 2
 577 45.5 588.1 33.4 627 30 c 2
 661 27 l 1
 664 22 661 2 658 -2 c 1
 614 -1 569 0 531 0 c 0
 492 0 456 -1 411 -2 c 1
 407 7 409 23 413 27 c 1
 444 30 l 2
 484.7 33.9 500.4 47.8 506 76 c 2
 554.2 321 l 1
 241.2 321 l 1
 193 76 l 2
 187 45.5 198.1 33.4 237 30 c 2
 271 27 l 1
 274 22 271 2 268 -2 c 1
 229.1 -1.1 189.4 -0.2 154.5 -0 c 1
 122 -51 l 1
 130 -49 139 -48 148 -48 c 0
 180 -48 207 -63 207 -95 c 0
 207 -146 149 -181 82 -181 c 0
 51 -181 34 -175 11 -164 c 1
 25 -146 l 1
 51 -155 58 -156 81 -156 c 0
 115 -156 152 -138 152 -106 c 0
 152 -90 137 -80 117 -80 c 0
EndSplineSet
EndChar

StartChar: uni1E29
Encoding: 7721 7721 171
Width: 519
GlyphClass: 2
Flags: MW
LayerCount: 2
Fore
SplineSet
175.9 72 m 2
 167 34 168 -10 130 -10 c 0
 126.9 -10 124 -9.9 121.3 -9.7 c 1
 95 -51 l 1
 103 -49 112 -48 121 -48 c 0
 153 -48 180 -63 180 -95 c 0
 180 -146 122 -181 55 -181 c 0
 24 -181 7 -175 -16 -164 c 1
 -2 -146 l 1
 24 -155 31 -156 54 -156 c 0
 88 -156 125 -138 125 -106 c 0
 125 -90 110 -80 90 -80 c 0
 70 -80 61 -82 44 -86 c 1
 39 -80 l 1
 93.9 1 l 1
 90.4 5.4 89.1 10.8 89.1 17.2 c 0
 89.1 27 97 52 101.8 72 c 2
 211 563 l 2
 215.9 584.8 218 602 218 613 c 0
 218 635 210 641 197 641 c 2
 166 643 l 2
 162 643 161 645 161 648 c 2
 164 672 l 1
 205 675 277 688 304 698 c 1
 313 698 316 695 316 688 c 1
 316 688 305.5 647.9 291 583 c 2
 230.3 311.5 l 1
 321.5 418.2 374.2 439 426 439 c 0
 465 439 492 419 492 359 c 0
 492 341 487 318 479 283 c 2
 441 124 l 2
 435 98 430 76 430 67 c 0
 430 55 432.9 50 440 50 c 0
 450 50 479 70 505 100 c 1
 519 100 525 92 528 83 c 1
 482 24 437 -10 389 -10 c 0
 359 -10 348 4 348 23 c 0
 348 42 357 83 365 115 c 2
 403 275 l 2
 411 309 413 328 413 342 c 0
 413 373 399 379 378 379 c 0
 342 379 277 320 214 238 c 1
 175.9 72 l 2
EndSplineSet
EndChar

StartChar: uni1E2E
Encoding: 7726 7726 176
Width: 280
GlyphClass: 2
Flags: MW
LayerCount: 2
Fore
SplineSet
276.5 782.5 m 0
 270.3 782.5 267.3 785.2 267.3 792.2 c 0
 267.3 800.1 272.6 806.3 283.4 814.2 c 2
 392 888.1 l 1
 442.1 848.5 l 1
 311.9 793 l 2
 295.7 786.8 283.4 782.5 276.5 782.5 c 0
EndSplineSet
Refer: 360 207 N 1 0 0 1 0 0 2
EndChar

StartChar: uni1E2F
Encoding: 7727 7727 177
Width: 276
GlyphClass: 2
Flags: MW
LayerCount: 2
Fore
SplineSet
317.9 740 m 1
 320.4 740.9 325.1 741.8 329 741.8 c 0
 333.9 741.8 353.4 741 367.7 721.6 c 1
 368.3 711.9 l 1
 262.7 616 l 2
 248.8 602.8 242 599.2 236.6 599.2 c 0
 231.2 599.2 226.8 604.5 227.9 610.7 c 0
 229.7 620.6 232.8 624 241.1 635.3 c 2
 317.9 740 l 1
EndSplineSet
Refer: 392 239 N 1 0 0 1 0 0 2
EndChar

StartChar: uni1E4C
Encoding: 7756 7756 206
Width: 668
GlyphClass: 2
Flags: MW
LayerCount: 2
Fore
SplineSet
613.5 697.5 m 0
 607.3 697.5 604.3 700.2 604.3 707.2 c 0
 604.3 715.1 609.6 721.3 620.4 729.2 c 2
 729 803.1 l 1
 779.1 763.5 l 1
 648.9 708 l 2
 632.7 701.8 620.4 697.5 613.5 697.5 c 0
507.5 744.8 m 0
 526.2 744.8 539.8 755.8 559 802 c 1
 578.4 795.4 l 1
 557.8 729.4 528 696.4 488.9 696.4 c 0
 470.2 696.4 454.4 709.6 439 725 c 0
 425.6 737.1 411.3 749.2 396.9 749.2 c 0
 374.8 749.2 361.1 732.7 346.9 696.4 c 1
 327.4 701.9 l 1
 349.5 766.8 374.2 799.8 410.8 799.8 c 0
 436.3 799.8 452.5 784.4 467.1 769 c 0
 478.6 755.8 491.3 744.8 507.5 744.8 c 0
EndSplineSet
Refer: 266 79 N 1 0 0 1 0 0 2
EndChar

StartChar: uni1E4D
Encoding: 7757 7757 207
Width: 447
GlyphClass: 2
Flags: MW
LayerCount: 2
Fore
SplineSet
451.9 750 m 1
 454.4 750.9 459.1 751.8 463 751.8 c 0
 467.9 751.8 487.4 751 501.7 731.6 c 1
 502.3 721.9 l 1
 396.7 626 l 2
 382.8 612.8 376 609.2 370.6 609.2 c 0
 365.2 609.2 360.8 614.5 361.9 620.7 c 0
 363.7 630.6 366.8 634 375.1 645.3 c 2
 451.9 750 l 1
EndSplineSet
Refer: 674 771 N 1 0 0 1 388 -70 2
Refer: 297 111 N 1 0 0 1 0 0 2
EndChar

StartChar: uni1E4E
Encoding: 7758 7758 208
Width: 668
GlyphClass: 2
Flags: MW
LayerCount: 2
Fore
SplineSet
637 752 m 0
 637 777 658 798 683 798 c 0
 708 798 729 777 729 752 c 0
 729 727 708 706 683 706 c 0
 658 706 637 727 637 752 c 0
227 752 m 0
 227 777 248 798 273 798 c 0
 298 798 319 777 319 752 c 0
 319 727 298 706 273 706 c 0
 248 706 227 727 227 752 c 0
507.5 744.8 m 0
 526.2 744.8 539.8 755.8 559 802 c 1
 578.4 795.4 l 1
 557.8 729.4 528 696.4 488.9 696.4 c 0
 470.2 696.4 454.4 709.6 439 725 c 0
 425.6 737.1 411.3 749.2 396.9 749.2 c 0
 374.8 749.2 361.1 732.7 346.9 696.4 c 1
 327.4 701.9 l 1
 349.5 766.8 374.2 799.8 410.8 799.8 c 0
 436.3 799.8 452.5 784.4 467.1 769 c 0
 478.6 755.8 491.3 744.8 507.5 744.8 c 0
EndSplineSet
Refer: 266 79 N 1 0 0 1 0 0 2
EndChar

StartChar: uni1E50
Encoding: 7760 7760 210
Width: 668
GlyphClass: 2
Flags: MW
LayerCount: 2
Fore
SplineSet
305.4 716.2 m 0
 305.4 710.9 302.2 699.5 290.7 699.5 c 0
 283 699.5 272.2 703.8 259.9 710 c 2
 151.3 765.5 l 1
 218.3 805.1 l 1
 296.9 731.2 l 2
 302.3 725.9 305.4 720.6 305.4 716.2 c 0
543.9 765 m 2
 336.5 765 l 2
 328.9 765 326.8 773 328 780 c 0
 330.1 792 342.3 809 351.7 809 c 2
 560 809 l 2
 568.5 809 570.4 801 569.4 795 c 0
 567.3 783 554.9 765 543.9 765 c 2
EndSplineSet
Refer: 266 79 N 1 0 0 1 0 0 2
EndChar

StartChar: uni1E51
Encoding: 7761 7761 211
Width: 447
GlyphClass: 2
Flags: MW
LayerCount: 2
Fore
SplineSet
324.8 758 m 1
 359 647.2 l 2
 361.3 638.4 360.9 632.2 359.8 626 c 0
 359 621.6 352.7 616.4 346.5 616.4 c 0
 341.9 616.4 337.3 620.8 327.3 634 c 2
 256.6 729.9 l 1
 259.9 739.6 l 1
 267 744.9 287.4 759.8 313.6 759.8 c 0
 317.4 759.8 321.9 758.9 324.8 758 c 1
EndSplineSet
Refer: 449 333 N 1 0 0 1 0 0 2
EndChar

StartChar: uni1E52
Encoding: 7762 7762 212
Width: 668
GlyphClass: 2
Flags: MW
LayerCount: 2
Fore
SplineSet
608.5 697.5 m 0
 602.3 697.5 599.3 700.2 599.3 707.2 c 0
 599.3 715.1 604.6 721.3 615.4 729.2 c 2
 724 803.1 l 1
 774.1 763.5 l 1
 643.9 708 l 2
 627.7 701.8 615.4 697.5 608.5 697.5 c 0
521.9 765 m 2
 314.5 765 l 2
 306.9 765 304.8 773 306 780 c 0
 308.1 792 320.3 809 329.7 809 c 2
 538 809 l 2
 546.5 809 548.4 801 547.4 795 c 0
 545.3 783 532.9 765 521.9 765 c 2
EndSplineSet
Refer: 266 79 N 1 0 0 1 0 0 2
EndChar

StartChar: uni1E53
Encoding: 7763 7763 213
Width: 447
GlyphClass: 2
Flags: MW
LayerCount: 2
Fore
SplineSet
383.9 767 m 1
 386.4 767.9 391.1 768.8 395 768.8 c 0
 399.9 768.8 419.4 768 433.7 748.6 c 1
 434.3 738.9 l 1
 328.7 643 l 2
 314.8 629.8 308 626.2 302.6 626.2 c 0
 297.2 626.2 292.8 631.5 293.9 637.7 c 0
 295.7 647.6 298.8 651 307.1 662.3 c 2
 383.9 767 l 1
EndSplineSet
Refer: 449 333 N 1 0 0 1 0 0 2
EndChar

StartChar: uni1E65
Encoding: 7781 7781 231
Width: 353
GlyphClass: 2
Flags: MW
LayerCount: 2
Fore
SplineSet
171.4 630 m 0
 176.2 653.4 200 673.2 223.4 673.2 c 0
 246.8 673.2 262.6 653.4 257.8 630 c 0
 253 606.6 229.2 586.8 205.8 586.8 c 0
 182.4 586.8 166.6 606.6 171.4 630 c 0
EndSplineSet
Refer: 672 769 N 1 0 0 1 392 -37 2
Refer: 301 115 N 1 0 0 1 0 0 2
EndChar

StartChar: uni1E67
Encoding: 7783 7783 233
Width: 353
GlyphClass: 2
Flags: MW
LayerCount: 2
Fore
SplineSet
269.4 685 m 0
 274.2 708.4 298 728.2 321.4 728.2 c 0
 344.8 728.2 360.6 708.4 355.8 685 c 0
 351 661.6 327.2 641.8 303.8 641.8 c 0
 280.4 641.8 264.6 661.6 269.4 685 c 0
EndSplineSet
Refer: 469 353 N 1 0 0 1 0 0 2
EndChar

StartChar: uni1E78
Encoding: 7800 7800 250
Width: 634
GlyphClass: 2
Flags: MW
LayerCount: 2
Fore
SplineSet
629.5 724.5 m 0
 623.3 724.5 620.3 727.2 620.3 734.2 c 0
 620.3 742.1 625.6 748.3 636.4 756.2 c 2
 745 830.1 l 1
 795.1 790.5 l 1
 664.9 735 l 2
 648.7 728.8 636.4 724.5 629.5 724.5 c 0
512.5 741.8 m 0
 531.2 741.8 544.8 752.8 564 799 c 1
 583.3 792.4 l 1
 562.7 726.4 532.9 693.4 493.8 693.4 c 0
 475.1 693.4 459.3 706.6 443.9 722 c 0
 430.5 734.1 416.3 746.2 401.8 746.2 c 0
 379.7 746.2 366.1 729.7 351.9 693.4 c 1
 332.3 698.9 l 1
 354.4 763.8 379.1 796.8 415.7 796.8 c 0
 441.2 796.8 457.5 781.4 472.1 766 c 0
 483.6 752.8 496.3 741.8 512.5 741.8 c 0
EndSplineSet
Refer: 272 85 N 1 0 0 1 0 0 2
EndChar

StartChar: uni1E79
Encoding: 7801 7801 251
Width: 521
GlyphClass: 2
Flags: MW
LayerCount: 2
Fore
SplineSet
422.9 778 m 1
 425.4 778.9 430.1 779.8 434 779.8 c 0
 438.9 779.8 458.4 779 472.7 759.6 c 1
 473.3 749.9 l 1
 367.7 654 l 2
 353.8 640.8 347 637.2 341.6 637.2 c 0
 336.2 637.2 331.8 642.5 332.9 648.7 c 0
 334.7 658.6 337.8 662 346.1 673.3 c 2
 422.9 778 l 1
EndSplineSet
Refer: 477 361 N 1 0 0 1 0 0 2
EndChar

StartChar: ampersand
Encoding: 38 38 253
Width: 705
GlyphClass: 2
Flags: MW
LayerCount: 2
Fore
SplineSet
434 610 m 0
 395 610 340 565 340 504 c 0
 340 482 347 452 360 412 c 1
 488 488 488 541 488 558 c 0
 488 591 469 610 434 610 c 0
554 556 m 0
 554 482 453 413 375 372 c 1
 384 354 389 333 469 190 c 1
 553 288 604 359 604 385 c 0
 604 392 601 396 592 396 c 2
 563 396 l 2
 559 396 559 400 560 403 c 2
 563 420 l 1
 565 422 l 1
 565 422 617 420 651 420 c 0
 685 420 739 422 739 422 c 1
 740 420 l 1
 737 404 l 2
 736 398 731 396 727 396 c 2
 699 396 l 2
 647 396 622 320 488 156 c 1
 514 111 l 1
 537 67 562 45 579 45 c 0
 612 45 638 62 666 102 c 1
 679 94 l 1
 644 23 598 -9 563 -9 c 0
 533 -9 496 -4 461 60 c 1
 438 98 l 1
 381 35 318 -9 234 -9 c 0
 139 -9 69 28 69 121 c 0
 69 223 135 295 294 377 c 1
 275 424 267 458 267 488 c 0
 267 582 353 644 445 644 c 0
 509 644 554 609 554 556 c 0
311 340 m 1
 249 309 148 253 148 122 c 0
 148 52 192 25 247 25 c 0
 318 25 358 64 419 132 c 1
 376 207 317 319 311 340 c 1
EndSplineSet
EndChar

StartChar: quotesingle
Encoding: 39 39 254
Width: 190
GlyphClass: 2
Flags: MW
LayerCount: 2
Fore
SplineSet
154 426 m 1
 154 426 156 585 158 594 c 0
 161 616 188 644 218 644 c 0
 240 644 247 631 247 618 c 0
 247 615 247 613 247 611 c 0
 244 595 182 430 182 430 c 1
 154 426 l 1
EndSplineSet
EndChar

StartChar: comma
Encoding: 44 44 255
Width: 219
GlyphClass: 2
Flags: MW
LayerCount: 2
Fore
SplineSet
62 45 m 0
 62 76 91 95 121 95 c 0
 152 95 175 71 175 31 c 0
 175 -21 147 -111 31 -132 c 1
 23.2 -125.7 20.3 -118 22.5 -109 c 1
 75.5 -97 127 -50 127 -22 c 0
 127 -4 112 0 96 4 c 0
 77 9 62 21 62 45 c 0
EndSplineSet
EndChar

StartChar: hyphen
Encoding: 45 45 256
Width: 333
GlyphClass: 2
Flags: MW
LayerCount: 2
Fore
SplineSet
314 223 m 2
 87 223 l 2
 80 223 77 232 77 240 c 0
 77 256.6 99.1 283 109 283 c 2
 338 283 l 2
 346 283 349 278 349 271 c 0
 349 255.7 329.1 223 314 223 c 2
EndSplineSet
EndChar

StartChar: period
Encoding: 46 46 257
Width: 219
GlyphClass: 2
Flags: MW
LayerCount: 2
Fore
SplineSet
125 95 m 0
 151 95 171 76 171 51 c 0
 171 21 144 -11 109 -11 c 0
 83 -11 63 9 63 35 c 0
 63 62 89 95 125 95 c 0
EndSplineSet
EndChar

StartChar: zero
Encoding: 48 48 258
Width: 444
GlyphClass: 2
Flags: MW
LayerCount: 2
Fore
SplineSet
226 -10 m 0
 130 -10 95 90 95 192 c 0
 95 372 184 525 267 581 c 0
 295 600 324 610 351 610 c 0
 451 610 483 513 483 412 c 0
 483 288 436 163 392 99 c 0
 337 20 271 -10 226 -10 c 0
345 578 m 0
 327 578 304 571 281 545 c 0
 242 502 165 302 165 141 c 0
 165 76 180 22 233 22 c 0
 251 22 302 30 340 113 c 0
 370 177 413 348 413 457 c 0
 413 512 402 545 386 561 c 0
 376 572 362 578 345 578 c 0
EndSplineSet
EndChar

StartChar: H
Encoding: 72 72 259
Width: 673
GlyphClass: 2
Flags: MW
AnchorPoint: "below" 320 -107 basechar 0
AnchorPoint: "cedilla" 150 0 basechar 0
AnchorPoint: "above" 481 850 basechar 0
LayerCount: 2
Fore
SplineSet
603 569 m 2
 608.9 598.8 597.9 611.6 559 615 c 2
 525 618 l 1
 522 623 525 643 528 647 c 1
 572 646 617 645 655 645 c 0
 694 645 730 646 775 647 c 1
 779 638 777 622 773 618 c 1
 742 615 l 2
 701 611 686 597 680 569 c 2
 583 76 l 2
 577 45.5 588.1 33.4 627 30 c 2
 661 27 l 1
 664 22 661 2 658 -2 c 1
 614 -1 569 0 531 0 c 0
 492 0 456 -1 411 -2 c 1
 407 7 409 23 413 27 c 1
 444 30 l 2
 484.7 33.9 500.4 47.8 506 76 c 2
 554.2 321 l 1
 241.2 321 l 1
 193 76 l 2
 187 45.5 198.1 33.4 237 30 c 2
 271 27 l 1
 274 22 271 2 268 -2 c 1
 224 -1 179 0 141 0 c 0
 102 0 66 -1 21 -2 c 1
 17 7 19 23 23 27 c 1
 54 30 l 2
 94.7 33.9 110.4 47.8 116 76 c 2
 213 569 l 2
 218.9 598.8 207.9 611.6 169 615 c 2
 135 618 l 1
 132 623 135 643 138 647 c 1
 182 646 227 645 265 645 c 0
 304 645 340 646 385 647 c 1
 389 638 387 622 383 618 c 1
 352 615 l 2
 311 611 296 597 290 569 c 2
 249.5 363 l 1
 562.5 363 l 1
 603 569 l 2
EndSplineSet
Position2: "'cpsp' Versalabstaende 1" dx=2 dy=0 dh=5 dv=0
EndChar

StartChar: I
Encoding: 73 73 260
Width: 280
GlyphClass: 2
Flags: MW
AnchorPoint: "below" 127 -109 basechar 0
AnchorPoint: "cedilla" 145 1 basechar 0
AnchorPoint: "above" 316 850 basechar 0
LayerCount: 2
Fore
SplineSet
213 569 m 2
 218.9 598.8 207.9 611.6 169 615 c 2
 135 618 l 1
 132 623 135 643 138 647 c 1
 182 646 227 645 265 645 c 0
 304 645 340 646 385 647 c 1
 389 638 387 622 383 618 c 1
 352 615 l 2
 311 611 296 597 290 569 c 2
 193 76 l 2
 187 45.5 198.1 33.4 237 30 c 2
 271 27 l 1
 274 22 271 2 268 -2 c 1
 224 -1 179 0 141 0 c 0
 102 0 66 -1 21 -2 c 1
 17 7 19 23 23 27 c 1
 54 30 l 2
 94.7 33.9 110.4 47.8 116 76 c 2
 213 569 l 2
EndSplineSet
Position2: "'cpsp' Versalabstaende 1" dx=2 dy=0 dh=5 dv=0
EndChar

StartChar: J
Encoding: 74 74 261
Width: 414
GlyphClass: 2
Flags: MW
AnchorPoint: "below" 109 -319 basechar 0
AnchorPoint: "above" 392 850 basechar 0
LayerCount: 2
Fore
SplineSet
435 580 m 1
 428 539 407 386 407 360 c 0
 407 338 420 336 453 333 c 1
 450 308 l 1
 397 303 l 1
 368 128 l 2
 328 -111 237 -200 127 -200 c 0
 81 -200 31 -177 31 -141 c 0
 31 -126 42 -101 69 -101 c 0
 91 -101 104 -107 116 -124 c 0
 129 -143 125 -165 141 -165 c 0
 206 -165 255 -68 284 106 c 2
 317 302 l 1
 194 311 l 1
 194 331 l 1
 323 338 l 1
 325 350 l 2
 342 451 354 495 387 567 c 1
 386 571 l 1
 382 569 376 568 370 568 c 0
 353 568 331 574 317 580 c 0
 272 598 240 622 197 622 c 0
 175 622 160 607 160 594 c 0
 160 584 192 570 192 545 c 0
 192 524 180 514 159 514 c 0
 134 514 122 532 122 558 c 0
 122 598 158 663 255 663 c 0
 299 663 360 633 403 613 c 1
 407 638 426 677 459 677 c 0
 480 677 496 670 496 649 c 0
 496 625 462 598 435 580 c 1
EndSplineSet
Position2: "'cpsp' Versalabstaende 1" dx=2 dy=0 dh=5 dv=0
EndChar

StartChar: K
Encoding: 75 75 262
Width: 637
GlyphClass: 2
Flags: MW
AnchorPoint: "below" 292 -110 basechar 0
AnchorPoint: "cedilla" 148 -1 basechar 0
AnchorPoint: "above" 466 850 basechar 0
LayerCount: 2
Fore
SplineSet
213 569 m 2
 218.9 598.8 207.9 611.6 169 615 c 2
 135 618 l 1
 132 623 135 643 138 647 c 1
 182 646 227 645 265 645 c 0
 304 645 340 646 385 647 c 1
 389 638 387 622 383 618 c 1
 352 615 l 2
 311 611 296 597 290 569 c 2
 246.3 347 l 1
 283.1 349.1 307.1 364.1 331 386 c 2
 527 562 l 2
 545.3 579.2 556.2 592.6 556.2 601.9 c 0
 556.2 609.4 549.1 614.2 533 616 c 2
 514 618 l 2
 510 618 507 621 508 626 c 2
 511 645 l 1
 514 647 l 1
 559 646 586 645 625 645 c 0
 663 645 674 646 719 647 c 1
 722 645 l 1
 718 626 l 2
 717 621 711 618 706 618 c 0
 666 613 628 607 574 558 c 2
 410 407 l 2
 372 372 367 365 365 358 c 1
 364 350 365 343 372 333 c 2
 532 73 l 2
 550 42 571 32 598 28 c 2
 604 27 l 2
 608 26 612 24 611 19 c 2
 608 0 l 1
 604 -2 l 1
 559 -1 542 0 505 0 c 0
 476 0 457 -1 437 -2 c 1
 436 0 l 1
 437 6 l 2
 438.9 14.5 440.8 24.3 440.8 34.9 c 0
 440.8 46.8 438.4 59.8 431 73 c 2
 313 271 l 2
 298 298 273 309 239 309 c 1
 241.3 321.5 l 1
 193 76 l 2
 187 45.5 198.1 33.4 237 30 c 2
 271 27 l 1
 274 22 271 2 268 -2 c 1
 224 -1 179 0 141 0 c 0
 102 0 66 -1 21 -2 c 1
 17 7 19 23 23 27 c 1
 54 30 l 2
 94.7 33.9 110.4 47.8 116 76 c 2
 213 569 l 2
EndSplineSet
Position2: "'cpsp' Versalabstaende 1" dx=2 dy=0 dh=5 dv=0
EndChar

StartChar: L
Encoding: 76 76 263
Width: 519
GlyphClass: 2
Flags: MW
AnchorPoint: "below" 252 -110 basechar 0
AnchorPoint: "cedilla" 260 1 basechar 0
AnchorPoint: "above" 389 850 basechar 0
LayerCount: 2
Fore
SplineSet
117 76 m 2
 213 569 l 2
 218.8 598.8 207.9 611.6 169 615 c 2
 135 618 l 1
 132 623 135 643 138 647 c 1
 182 646 227 645 265 645 c 0
 304 645 340 646 385 647 c 1
 389 638 387 622 383 618 c 1
 352 615 l 2
 311 611 295.5 597.1 290 569 c 2
 196 89 l 2
 195.1 84.2 194.6 79.8 194.6 75.6 c 0
 194.6 52.6 208.3 39 232 39 c 2
 342 39 l 2
 415 39 461 108.7 489 170 c 1
 498.7 172.3 511 168.7 517 163 c 1
 496 111 474 54 459 -2 c 1
 459 -2 371 0 345 0 c 2
 142 0 l 2
 103 0 67 -1 22 -2 c 1
 18 7 20 23 24 27 c 1
 55 30 l 2
 95.7 33.9 111.6 48 117 76 c 2
EndSplineSet
Position2: "'cpsp' Versalabstaende 1" dx=2 dy=0 dh=5 dv=0
EndChar

StartChar: M
Encoding: 77 77 264
Width: 804
GlyphClass: 2
Flags: MW
AnchorPoint: "below" 363 -110 basechar 0
AnchorPoint: "cedilla" 109 2 basechar 0
AnchorPoint: "above" 557 850 basechar 0
LayerCount: 2
Fore
SplineSet
655 87 m 2
 715 534 l 1
 713 534 l 1
 394 5 l 2
 389 -3 384 -6 379 -6 c 0
 373 -6 368 -2 366 5 c 2
 269 524 l 1
 267 524 l 1
 141 86 l 2
 138.4 76.8 136.9 67.9 136.9 59.9 c 0
 136.9 42.9 143.9 30.4 163 29 c 2
 187 27 l 2
 192 27 195.3 24.1 195 19 c 2
 194 0 l 1
 191 -2 l 1
 163 -1 126 0 103 0 c 0
 80 0 47 -1 18 -2 c 1
 16 0 l 1
 18 19 l 2
 18.5 24.1 22 27 28 27 c 2
 54 29 l 2
 84 31 97 59 104 86 c 2
 245 574 l 2
 247.1 581.8 248.4 588.3 248.4 593.7 c 0
 248.4 608.3 239.2 614.3 216 616 c 2
 189 618 l 2
 182 618 180.6 620.8 181 625 c 2
 183 645 l 1
 185 647 l 1
 329 646 l 1
 427 137 l 2
 428 128 429 124 432 124 c 0
 434 124 437 128 443 138 c 2
 746 647 l 1
 872 647 l 1
 874 645 l 1
 872 625 l 2
 871.3 618.5 864.8 618.4 860 618 c 2
 834 616 l 2
 805 614 792 600 789 574 c 2
 728 87 l 2
 727 79.1 726.3 71.6 726.3 64.9 c 0
 726.3 44.4 732.2 30.8 756 29 c 2
 782 27 l 2
 788 26.5 791.5 24.2 791 19 c 2
 789 0 l 1
 787 -2 l 1
 742 -1 708 0 679 0 c 0
 651 0 622 -1 576 -2 c 1
 574 0 l 1
 576 19 l 2
 576.5 24 581.5 26.7 586 27 c 2
 612 29 l 2
 638.7 31.1 652 61 655 87 c 2
EndSplineSet
Position2: "'cpsp' Versalabstaende 1" dx=2 dy=0 dh=5 dv=0
EndChar

StartChar: N
Encoding: 78 78 265
Width: 666
GlyphClass: 2
Flags: MW
AnchorPoint: "below" 328 -109 basechar 0
AnchorPoint: "cedilla" 127 -4 basechar 0
AnchorPoint: "above" 476 850 basechar 0
LayerCount: 2
Fore
SplineSet
687 557 m 2
 583 21 l 2
 579 2 570 -10 557 -10 c 0
 541 -10 530 -1 523 14 c 1
 274 455 l 2
 261 477 253 488 247 488 c 0
 240 488 235 473 228 439 c 2
 160 88 l 2
 158.9 82.7 158.4 77.5 158.4 72.6 c 0
 158.4 49.6 170.5 31.4 201 29 c 2
 226 27 l 2
 230.5 26.6 232.6 24.5 232 19 c 2
 230 0 l 1
 228 -2 l 1
 183 -1 148 0 124 0 c 0
 100 0 59 -1 14 -2 c 1
 12 0 l 1
 14 18 l 2
 14.5 22.9 19.1 26.3 28 27 c 2
 53 29 l 2
 92.5 32.2 111 61 117 88 c 2
 207 550 l 1
 206 576 185 615 154 618 c 0
 147 619 139.5 621 140 626 c 2
 142 645 l 1
 145 647 l 1
 277 647 l 1
 520 203 l 2
 541 166 550 148 558 148 c 0
 564 148 566 159 570 178 c 2
 644 557 l 2
 644.9 562.1 645.5 567.3 645.5 572.4 c 0
 645.5 594.1 635.4 613.6 603 616 c 2
 579 618 l 2
 574.2 618.4 566.3 621.5 567 626 c 2
 570 645 l 1
 572 647 l 1
 617 646 658 645 682 645 c 0
 705 645 741 646 786 647 c 1
 788 645 l 1
 786 626 l 2
 785.5 621.2 779.8 618.2 777 618 c 2
 750 616 l 2
 712 613 693 587 687 557 c 2
EndSplineSet
Position2: "'cpsp' Versalabstaende 1" dx=2 dy=0 dh=5 dv=0
EndChar

StartChar: O
Encoding: 79 79 266
Width: 668
GlyphClass: 2
Flags: MW
AnchorPoint: "below" 310 -113 basechar 0
AnchorPoint: "cedilla" 350 0 basechar 0
AnchorPoint: "above" 515 850 basechar 0
AnchorPoint: "komb_OR" 730 606 basechar 0
LayerCount: 2
Fore
SplineSet
436 624 m 0
 349 624 227 537 187 327 c 0
 181.1 297.2 178.3 269.5 178.3 243.7 c 0
 178.3 103.3 259.8 24 357 24 c 0
 467 24 572 131 607 310 c 0
 614 346.5 617.3 379.9 617.3 410.1 c 0
 617.3 552 544 624 436 624 c 0
699 329 m 0
 660 129 515 -10 331 -10 c 0
 188.3 -10 87.4 82 87.4 234.4 c 0
 87.4 258.2 89.9 283.4 95 310 c 0
 133 506 284 658 455 658 c 0
 601.1 658 706.3 558.9 706.3 402.9 c 0
 706.3 379.5 704 354.8 699 329 c 0
EndSplineSet
Position2: "'cpsp' Versalabstaende 1" dx=2 dy=0 dh=5 dv=0
EndChar

StartChar: P
Encoding: 80 80 267
Width: 499
GlyphClass: 2
Flags: MW
AnchorPoint: "below" 140 -110 basechar 0
AnchorPoint: "cedilla" 150 -3 basechar 0
AnchorPoint: "above" 426 850 basechar 0
LayerCount: 2
Fore
SplineSet
291 574 m 2
 242 321 l 1
 252 318 285 316 309 316 c 0
 402 316 462 360 483 468 c 0
 486.8 487.5 488.6 504.6 488.6 519.5 c 0
 488.6 602.1 434.7 620 378 620 c 0
 309 620 296 603 291 574 c 2
115 71 m 2
 213 574 l 2
 213.6 577.4 213.9 580.6 213.9 583.5 c 0
 213.9 607.8 193.3 615.1 179 616 c 2
 142 618 l 2
 138 618 136 620 137 624 c 2
 141 645 l 1
 144 647 l 1
 179 646 228 645 266 645 c 0
 305 645 367 654 392 654 c 0
 540.4 654 574.2 577.4 574.2 517.9 c 0
 574.2 506.4 572.9 495.5 571 486 c 0
 555 401 482 282 307 282 c 0
 273 282 256 285 236 292 c 1
 193 71 l 2
 192.1 66.4 191.6 62.2 191.6 58.5 c 0
 191.6 38.1 205.7 30.7 237 29 c 2
 272 27 l 2
 276 27 279 24 278 19 c 2
 274 0 l 1
 272 -2 l 1
 227 -1 179 0 141 0 c 0
 101 0 53 -1 18 -2 c 1
 16 0 l 1
 20 19 l 2
 21 24 24 27 29 27 c 2
 54 29 l 2
 93 32 110 43 115 71 c 2
EndSplineSet
Position2: "'cpsp' Versalabstaende 1" dx=2 dy=0 dh=5 dv=0
EndChar

StartChar: Q
Encoding: 81 81 268
Width: 668
GlyphClass: 2
Flags: MW
AnchorPoint: "above" 498 850 basechar 0
AnchorPoint: "komb_OR" 720 606 basechar 0
LayerCount: 2
Fore
SplineSet
436 624 m 0
 349 624 227 537 187 327 c 0
 181.1 297.2 178.3 269.5 178.3 243.7 c 0
 178.3 103.3 259.8 24 357 24 c 0
 467 24 572 131 607 310 c 0
 614 346.5 617.3 379.9 617.3 410.1 c 0
 617.3 552 544 624 436 624 c 0
126.9 -128.4 m 0
 169.5 -85.9 230.9 -39.5 294.5 -7.9 c 1
 171.3 6.6 87.4 95.3 87.4 234.4 c 0
 87.4 258.2 89.9 283.4 95 310 c 0
 133 506 284 658 455 658 c 0
 601.1 658 706.3 558.9 706.3 402.9 c 0
 706.3 379.5 704 354.8 699 329 c 0
 664.9 154 549.6 25.7 398 -3.6 c 1
 365.4 -11.8 311.4 -32.9 253.4 -71.4 c 1
 260.2 -70.5 266.4 -70 272 -70 c 0
 378 -70 440 -152 524 -152 c 0
 552 -152 589 -142 615 -115 c 1
 629 -127 l 1
 581 -183 535 -209 475 -209 c 0
 350 -209 308 -114 219 -114 c 0
 211.5 -114 198 -117.2 182.9 -126.2 c 1
 167.3 -140.4 151.9 -156 137 -173 c 1
 104 -153 l 1
 110.6 -144.1 118.4 -135.9 126.9 -128.4 c 0
EndSplineSet
Position2: "'cpsp' Versalabstaende 1" dx=2 dy=0 dh=5 dv=0
EndChar

StartChar: R
Encoding: 82 82 269
Width: 555
GlyphClass: 2
Flags: MW
AnchorPoint: "below" 248 -111 basechar 0
AnchorPoint: "cedilla" 148 -1 basechar 0
AnchorPoint: "above" 419 850 basechar 0
LayerCount: 2
Fore
SplineSet
381 620 m 0
 313 620 296 603 291 574 c 2
 242 325 l 1
 290 325 l 2
 383 325 461 353 485 478 c 0
 488.1 494.1 489.6 508.5 489.6 521.3 c 0
 489.6 602.1 431.9 620 381 620 c 0
387 654 m 0
 447 654 506 649 543 604 c 0
 563.6 578.9 574 550.1 574 516.6 c 0
 574 504.7 572.6 492.2 570 479 c 0
 549 374 453 322 409 308 c 1
 489 98 l 2
 506 55 523 21 566 21 c 1
 563 -3 l 1
 552 -8 535 -10 521 -10 c 0
 463 -10 430 32 411 79 c 2
 343 253 l 2
 333 276 316 291 236 291 c 1
 193 72 l 2
 192 67.2 191.5 62.8 191.5 59 c 0
 191.5 38.9 205.1 31.5 237 29 c 2
 262 27 l 2
 266 27 269 24 268 19 c 2
 265 0 l 1
 262 -2 l 1
 217 -1 178 0 140 0 c 0
 102 0 63 -1 18 -2 c 1
 16 0 l 1
 20 19 l 2
 21 24 24 27 29 27 c 2
 54 29 l 2
 95 32 110 44 115 72 c 2
 213 574 l 2
 213.6 577.4 213.9 580.6 213.9 583.5 c 0
 213.9 607.8 193.3 615.1 179 616 c 2
 142 618 l 2
 138 618 136 620 137 624 c 2
 141 645 l 1
 144 647 l 1
 189 646 227 645 265 645 c 0
 303 645 363 654 387 654 c 0
EndSplineSet
Position2: "'cpsp' Versalabstaende 1" dx=2 dy=0 dh=5 dv=0
EndChar

StartChar: S
Encoding: 83 83 270
Width: 454
GlyphClass: 2
Flags: MW
AnchorPoint: "below" 204 -111 basechar 0
AnchorPoint: "cedilla" 224 2 basechar 0
AnchorPoint: "above" 402 850 basechar 0
LayerCount: 2
Fore
SplineSet
493 626 m 1
 490 572 485 545 485 497 c 1
 454 499 l 1
 448 565 435 624 343 624 c 0
 280 624 228 583 216 522 c 0
 214.6 514.8 214 508 214 501.5 c 0
 214 432.6 286.9 391.3 320 376 c 0
 387 345 455.8 300.5 455.8 211.6 c 0
 455.8 200 454.5 187.4 452 174 c 0
 432 72 326 -10 215 -10 c 0
 134 -10 109 5 51 5 c 1
 59 56 61 89 64 165 c 1
 94 168 l 1
 95 68 145 26 230 26 c 0
 303 26 352 58 368 139 c 0
 370.6 152.7 371.9 165 371.9 176.1 c 0
 371.9 236.2 335 268 289 291 c 0
 219.1 326 141.8 373.3 141.8 461.9 c 0
 141.8 472.3 142.8 483.3 145 495 c 0
 166 601 275 658 359 658 c 0
 448 658 442 634 493 626 c 1
EndSplineSet
Position2: "'cpsp' Versalabstaende 1" dx=2 dy=0 dh=5 dv=0
EndChar

StartChar: T
Encoding: 84 84 271
Width: 544
GlyphClass: 2
Flags: MW
AnchorPoint: "below" 277 -109 basechar 0
AnchorPoint: "cedilla" 298 10 basechar 0
AnchorPoint: "above" 457 850 basechar 0
LayerCount: 2
Fore
SplineSet
229 645 m 2
 563 645 l 2
 598.8 645 612 652.5 645 658 c 1
 642.5 618 645 575 656 518 c 1
 644.3 513.3 636 513 626 513 c 1
 609 580 594 606 542 606 c 2
 488 606 l 2
 454 606 441 598 434 564 c 2
 339 76 l 2
 333.1 45.6 344.1 33.4 383 30 c 2
 417 27 l 1
 420 22 417 2 414 -2 c 1
 370 -1 325 0 287 0 c 0
 248 0 212 -1 167 -2 c 1
 163 7 165 23 169 27 c 1
 200 30 l 2
 241 34 256 48 262 76 c 2
 357 567 l 2
 361.8 595.9 356.4 606 317 606 c 2
 248 606 l 2
 195 606 170 586 141 520.5 c 1
 132 520.5 118.6 522.7 111 527.5 c 1
 133 580.5 145 609 158 658 c 1
 181.5 654 202.9 645 229 645 c 2
EndSplineSet
Position2: "'cpsp' Versalabstaende 1" dx=2 dy=0 dh=5 dv=0
EndChar

StartChar: U
Encoding: 85 85 272
Width: 634
GlyphClass: 2
Flags: MW
AnchorPoint: "below" 308 -109 basechar 0
AnchorPoint: "cedilla" 328 4 basechar 0
AnchorPoint: "above" 486 850 basechar 0
LayerCount: 2
Fore
SplineSet
306 -10 m 0
 230.9 -10 123.8 22.1 123.8 166 c 0
 123.8 186.9 126.1 210.1 131 236 c 2
 197 572 l 2
 197.9 576.8 198.4 581.1 198.4 584.9 c 0
 198.4 605.9 184.3 613.5 153 616 c 2
 128 618 l 2
 124 618 121 621 122 626 c 2
 125 645 l 1
 128 647 l 1
 173 646 211 645 249 645 c 0
 287 645 327 646 372 647 c 1
 374 645 l 1
 370 626 l 2
 369 621 366 618 361 618 c 2
 336 616 l 2
 296 613 280 600 274 572 c 2
 215 269 l 2
 209.1 236.8 202.6 203.4 202.6 171.4 c 0
 202.6 138.8 209.3 107.8 230 81 c 0
 253 52 288 31 334 31 c 0
 497 31 537 165 559 277 c 2
 616 570 l 2
 617 575.2 617.5 579.9 617.5 584.1 c 0
 617.5 604.8 604.6 613.5 573 616 c 2
 547 618 l 2
 544 618 540 621 541 626 c 2
 545 645 l 1
 547 647 l 1
 592 646 630 645 652 645 c 0
 674 645 713 646 758 647 c 1
 760 645 l 1
 756 626 l 2
 755 621 752 618 747 618 c 2
 722 616 l 2
 681 613 665 598 660 570 c 2
 606 295 l 2
 572 117 503 -10 306 -10 c 0
EndSplineSet
Position2: "'cpsp' Versalabstaende 1" dx=2 dy=0 dh=5 dv=0
EndChar

StartChar: V
Encoding: 86 86 273
Width: 597
GlyphClass: 2
Flags: MW
AnchorPoint: "below" 263 -110 basechar 0
AnchorPoint: "cedilla" 303 3 basechar 0
AnchorPoint: "above" 481 850 basechar 0
LayerCount: 2
Fore
SplineSet
617 553 m 2
 635.5 586 668 612 721 618 c 1
 727 624 727 641 721 647 c 1
 684 646 653 645 627 645 c 0
 601 645 557 646 517 647 c 1
 511 641 511 624 517 618 c 1
 567.3 614 594.1 600.2 573 561 c 2
 340 127 l 2
 338 125 336 123.5 333 127 c 1
 269 572 l 2
 264.2 605.2 306 616 341 618 c 1
 347 624 347 641 341 647 c 1
 308 646 259 645 220 645 c 0
 180 645 154 646 114 647 c 1
 108 641 108 624 114 618 c 1
 156 612.5 179.7 612 188 556 c 2
 269 11 l 2
 271.2 -4 277 -12 287 -12 c 0
 297 -12 305.7 -3.8 314 11 c 2
 617 553 l 2
EndSplineSet
Position2: "'cpsp' Versalabstaende 1" dx=2 dy=0 dh=5 dv=0
EndChar

StartChar: W
Encoding: 87 87 274
Width: 909
GlyphClass: 2
Flags: MW
AnchorPoint: "below" 439 -107 basechar 0
AnchorPoint: "cedilla" 290 0 basechar 0
AnchorPoint: "above" 610 850 basechar 0
LayerCount: 2
Fore
SplineSet
217 546 m 2
 210.8 600 187.2 610 139 618 c 1
 133 624 133 641 139 647 c 1
 175 646 214 645 247 645 c 0
 284 645 334 646 367 647 c 1
 373 641 373 624 367 618 c 1
 332 616 292.6 605.4 296 572 c 2
 330 218 l 1
 337 152 l 1
 375 216 l 1
 572 583.5 l 1
 615 583.7 l 1
 615 583.7 622.1 520 626 486 c 2
 658 207 l 1
 665 146 l 1
 702 215 l 1
 889 561 l 2
 910.5 599.9 875.3 614 825 618 c 1
 819 624 819 641 825 647 c 1
 865 646 912 645 938 645 c 0
 964 645 1003 646 1036 647 c 1
 1042 641 1042 624 1036 618 c 1
 983 612 958.5 586.3 940 553 c 2
 639 11 l 2
 629 -7.1 625.5 -10 618 -10 c 0
 608.8 -10 603.1 -5.6 601 12 c 2
 559 367 l 2
 554.9 401.5 552 412.5 549.5 434.5 c 0
 549 436.8 545.5 437 544.5 437 c 0
 538.3 425.7 522.9 397.2 508 370 c 2
 312 12 l 2
 302.2 -5.8 299 -10 291 -10 c 0
 280.5 -10 278.9 -4.7 277 12 c 2
 217 546 l 2
EndSplineSet
Position2: "'cpsp' Versalabstaende 1" dx=2 dy=0 dh=5 dv=0
EndChar

StartChar: X
Encoding: 88 88 275
Width: 628
GlyphClass: 2
Flags: MW
AnchorPoint: "below" 287 -107 basechar 0
AnchorPoint: "cedilla" 102 0 basechar 0
AnchorPoint: "above" 482 850 basechar 0
LayerCount: 2
Fore
SplineSet
134 625 m 2
 138 644 l 1
 141 647 l 1
 179 646 217 645 240 645 c 0
 263 645 312 646 357 647 c 1
 357 647 357 644 358 644 c 2
 355 625 l 2
 354 620 351 618 349 618 c 2
 317 616 l 2
 300 614.9 293.9 609.9 293.9 601.2 c 0
 293.9 594 298.1 584.2 304 572 c 2
 384 396 l 2
 388 389 391 385 393 385 c 0
 396 385 401 389 408 397 c 2
 566 572 l 2
 578.7 586.4 586.8 597.7 586.8 605.3 c 0
 586.8 611.4 581.5 615.1 569 616 c 2
 541 618 l 2
 537 618 534 620 535 625 c 2
 539 645 l 1
 541 647 l 1
 580 646 614 645 636 645 c 0
 658 645 691 646 730 647 c 1
 732 645 l 1
 728 625 l 2
 728 622 726 618 718 618 c 0
 660 616 633 588 600 552 c 2
 440 375 l 2
 429 363 423 354 421 345 c 0
 420.7 343.3 420.5 341.6 420.5 339.8 c 0
 420.5 331.5 424.2 322.7 430 312 c 2
 537 102 l 2
 556 63 582 30 624 27 c 0
 629 27 630 23 630 20 c 2
 626 0 l 1
 624 -2 l 1
 585 -1 545 0 523 0 c 0
 501 0 448 -1 403 -2 c 1
 400 0 l 1
 404 20 l 2
 405 24 407 27 411 27 c 2
 431 29 l 2
 454.1 31.4 463.2 34.4 463.2 43.6 c 0
 463.2 49.9 458.9 59.2 452 73 c 2
 362 261 l 2
 358 269 354 272 350 272 c 0
 348 272 341 266 333 258 c 2
 171 77 l 2
 160.5 64.4 152.4 52.9 152.4 44.2 c 0
 152.4 36.4 158.9 30.9 176 29 c 2
 194 27 l 2
 199 26 199 23 199 20 c 2
 195 0 l 1
 192 -2 l 1
 147 -1 122 0 84 0 c 0
 56 0 32 -1 3 -2 c 1
 3 0 l 1
 7 20 l 2
 8 25 13 27 19 27 c 0
 75 30 117 74 144 104 c 2
 312 291 l 2
 319 299 325 308 326 314 c 0
 326.4 316 326.6 318 326.6 320 c 0
 326.6 327.7 323.6 335.2 318 344 c 1
 220 549 l 2
 192 607 164 615 148 618 c 0
 139 620 133 621 134 625 c 2
EndSplineSet
Position2: "'cpsp' Versalabstaende 1" dx=2 dy=0 dh=5 dv=0
EndChar

StartChar: Y
Encoding: 89 89 276
Width: 552
GlyphClass: 2
Flags: MW
AnchorPoint: "below" 270 -109 basechar 0
AnchorPoint: "cedilla" 293 1 basechar 0
AnchorPoint: "above" 435 850 basechar 0
LayerCount: 2
Fore
SplineSet
336 76 m 2
 330 46 341.1 33.4 380 30 c 2
 414 27 l 1
 417 22 414 2 411 -2 c 1
 367 -1 322 0 284 0 c 0
 245 0 209 -1 164 -2 c 1
 160 7 162 23 166 27 c 1
 197 30 l 2
 238 34 254 48 259 76 c 2
 294 259 l 2
 296 269.2 297.3 278.9 297.3 284 c 0
 297.3 288 296.4 295.5 294 302 c 2
 202 547 l 2
 182 600 174.9 611.5 141 616 c 2
 126 618 l 1
 123 623 121 642 124 647 c 1
 152 646 191 645 228 645 c 0
 266 645 296 646 335 647 c 1
 337 643 336 623 333 618 c 1
 300 615 l 2
 266.1 611.9 269.9 602.4 279 576 c 2
 364 335 l 1
 368 335 l 1
 526 576 l 2
 546 605 545 612.8 521 615 c 2
 489 618 l 1
 487 622 488 643 491 647 c 1
 529 646 560 645 582 645 c 0
 604 645 633 646 662 647 c 1
 665 643 661 623 658 618 c 1
 632 616 l 2
 597 613 584 595 563 565 c 2
 388 310 l 2
 381 299 377.4 285.1 374 268 c 2
 336 76 l 2
EndSplineSet
Position2: "'cpsp' Versalabstaende 1" dx=2 dy=0 dh=5 dv=0
EndChar

StartChar: Z
Encoding: 90 90 277
Width: 578
GlyphClass: 2
Flags: MW
AnchorPoint: "below" 267 -107 basechar 0
AnchorPoint: "cedilla" 287 4 basechar 0
AnchorPoint: "above" 450 850 basechar 0
LayerCount: 2
Fore
SplineSet
528 -2 m 1
 528 -2 432 0 407 0 c 2
 57 0 l 2
 44.6 0 40.8 3.9 40.8 11.8 c 0
 40.8 19.7 46.8 30.8 54 38 c 2
 532 579 l 2
 538 586 542 592 543 597 c 0
 545 603 542 605 535 605 c 2
 314 605 l 2
 242 605 215 555 181 486 c 1
 153 491 l 1
 169 532 192 604 207 658 c 1
 242 655 237 645 282 645 c 2
 590 645 l 1
 620 648 641 655 653 655 c 0
 669 655 673.2 652.6 673.2 647.1 c 0
 673.2 638.3 665.4 620.6 639 591 c 2
 178 72 l 1
 172 63 168 57 167 52 c 0
 165 43 172 39 188 39 c 2
 412 39 l 2
 485 39 524 98 557 170 c 1
 586 165 l 1
 565 113 543 54 528 -2 c 1
EndSplineSet
Position2: "'cpsp' Versalabstaende 1" dx=2 dy=0 dh=5 dv=0
EndChar

StartChar: bracketleft
Encoding: 91 91 278
Width: 334
GlyphClass: 2
Flags: MW
LayerCount: 2
Fore
SplineSet
424 689 m 1
 417 646 l 1
 270 646 l 1
 129 -156 l 1
 275 -156 l 1
 268 -200 l 1
 53 -200 l 1
 209 689 l 1
 424 689 l 1
EndSplineSet
EndChar

StartChar: backslash
Encoding: 92 92 279
Width: 321
GlyphClass: 2
Flags: MW
LayerCount: 2
Fore
SplineSet
178 698 m 1
 311 -48 l 1
 267 -48 l 1
 134 698 l 1
 178 698 l 1
EndSplineSet
EndChar

StartChar: bracketright
Encoding: 93 93 280
Width: 334
GlyphClass: 2
Flags: MW
LayerCount: 2
Fore
SplineSet
-3 -200 m 1
 4 -156 l 1
 151 -156 l 1
 292 646 l 1
 146 646 l 1
 153 689 l 1
 368 689 l 1
 211 -200 l 1
 -3 -200 l 1
EndSplineSet
EndChar

StartChar: asciicircum
Encoding: 94 94 281
Width: 518
GlyphClass: 2
Flags: MW
LayerCount: 2
Fore
SplineSet
363 593 m 1
 217 347 l 1
 173 347 l 1
 353 650 l 1
 395 650 l 1
 467 347 l 1
 423 347 l 1
 363 593 l 1
EndSplineSet
EndChar

StartChar: underscore
Encoding: 95 95 282
Width: 486
GlyphClass: 2
Flags: MW
LayerCount: 2
Fore
SplineSet
463 -110 m 1
 455 -154 l 1
 -22 -154 l 1
 -15 -110 l 1
 463 -110 l 1
EndSplineSet
EndChar

StartChar: a
Encoding: 97 97 283
Width: 486
GlyphClass: 2
Flags: MW
AnchorPoint: "below" 174 -108 basechar 0
AnchorPoint: "cedilla" 166.4 -3 basechar 0
AnchorPoint: "ogonek" 413.3 16 basechar 0
AnchorPoint: "above" 340.6 647 basechar 0
LayerCount: 2
Fore
SplineSet
410 433 m 1
 430 428 456 431 480 431 c 1
 411 120 l 2
 407 101 401 73 401 64 c 0
 401 52 410 50 413 50 c 0
 423 50 442 66 469 103 c 1
 482 103 486.8 95.5 492 87 c 1
 466 30 426 -10 364 -10 c 0
 330 -10 323 16 323 35 c 0
 323 47 326 67 333 90 c 2
 346 132 l 1
 344 134 l 1
 284 45 228 -10 175 -10 c 0
 91 -10 78 69 78 125 c 0
 78 282 223 439 330 439 c 0
 370 439 383 436 410 433 c 1
360 219 m 1
 385 283 395 389 395 389 c 1
 376 401 354 408 333 408 c 0
 241 408 158 247 158 141 c 0
 158 85 168 45 202 45 c 0
 234 45 311 129 360 219 c 1
EndSplineSet
EndChar

StartChar: b
Encoding: 98 98 284
Width: 478
GlyphClass: 2
Flags: MW
AnchorPoint: "below" 214 -108 basechar 0
LayerCount: 2
Fore
SplineSet
285 583 m 2
 230 336 l 1
 232 335 l 1
 267 376 318 439 387 439 c 0
 478 439 492 388 492 320 c 0
 492 217.9 400.4 89.7 309 27 c 0
 274 3 235.2 -10 204 -10 c 0
 114 -10 88 44 102 106 c 2
 205 563 l 2
 210 585 212 602 212 613 c 0
 212 635 204 641 191 641 c 2
 160 643 l 2
 156 643 155 645 155 648 c 2
 158 672 l 1
 199 675 271 688 298 698 c 1
 307 698 310 695 310 688 c 1
 310 688 299.5 647.9 285 583 c 2
410 301 m 0
 410 369 387 392 357 392 c 0
 309 392 264 331 217 276 c 1
 183 132 l 2
 166.9 63.7 172.9 25 209 25 c 0
 285.3 25 410 156 410 301 c 0
EndSplineSet
EndChar

StartChar: c
Encoding: 99 99 285
Width: 389
GlyphClass: 2
Flags: MW
AnchorPoint: "below" 163 -113 basechar 0
AnchorPoint: "cedilla" 211.6 -2 basechar 0
AnchorPoint: "ogonek" 339.5 42 basechar 0
AnchorPoint: "above" 343.2 645 basechar 0
LayerCount: 2
Fore
SplineSet
209 -10 m 0
 168.4 -10 133.6 9.1 113 38 c 0
 89.5 70.9 83 115.9 83 149 c 0
 83 238.8 116.4 316.3 165.1 368.5 c 0
 206.5 412.9 271 439 311 439 c 0
 419.5 439 423 382 423 343 c 0
 423 318 398 298 371 298 c 0
 354 298 344 314 344 330 c 0
 344 336 346.4 346.7 349 351 c 0
 352 356 354 364 354 370 c 0
 354 403 326 408 312 408 c 0
 235 408 165 320 165 171 c 0
 165 110.6 175.1 91.2 190 72 c 0
 204.4 53.4 223.3 49 240 49 c 0
 293 49 333 81.5 372 125.5 c 1
 381 125.5 391 118.5 394 108.5 c 1
 346 41.5 281 -10 209 -10 c 0
EndSplineSet
EndChar

StartChar: d
Encoding: 100 100 286
Width: 489
GlyphClass: 2
Flags: MW
AnchorPoint: "below" 221 -107 basechar 0
AnchorPoint: "ogonek" 312 20 basechar 0
AnchorPoint: "above" 218 645 basechar 0
LayerCount: 2
Fore
SplineSet
345 194 m 0
 374 247 391 293 391 316 c 0
 391 351 366 403 328 403 c 0
 236 403 161 256 161 150 c 0
 161 94 168 36 200 36 c 0
 239 36 296 104 345 194 c 0
345 116 m 1
 342 118 l 1
 282 30 235 -10 183 -10 c 0
 95 -10 81 79 81 134 c 0
 81 291 218 439 325 439 c 0
 363 439 392 414 404 384 c 1
 405 384 l 1
 442 563 l 2
 446.5 584.9 449 602 449 613 c 0
 449 635 441 641 428 641 c 2
 397 643 l 2
 393 643 392 645 392 648 c 2
 395 672 l 1
 436 675 508 688 535 698 c 1
 544 698 547 695 547 688 c 1
 547 688 537 648 522 583 c 2
 416 120 l 2
 412 101 406 73 406 64 c 0
 406 52 415 50 418 50 c 0
 428 50 447 66 474 103 c 1
 487 103 491.8 95.5 497 87 c 1
 471 30 431 -10 369 -10 c 0
 335 -10 328 16 328 35 c 0
 328 47 332 66 338 90 c 2
 345 116 l 1
EndSplineSet
EndChar

StartChar: e
Encoding: 101 101 287
Width: 401
GlyphClass: 2
Flags: MW
AnchorPoint: "below" 158 -108 basechar 0
AnchorPoint: "ogonek" 344.3 41 basechar 0
AnchorPoint: "above" 332.2 645 basechar 0
LayerCount: 2
Fore
SplineSet
355 370 m 0
 355 399 342 408 306 408 c 0
 264.1 408 209.1 378.5 173.8 237.4 c 1
 249.8 247.2 355 280.3 355 370 c 0
167 199 m 1
 166 191 166 170 166 165 c 0
 166 74 197 50 242 50 c 0
 290 50 313 59 370 117 c 1
 382 117 388 112 393 101 c 1
 334 25 273 -10 206 -10 c 0
 123 -10 83 57 83 142 c 0
 83 269 155 439 329 439 c 0
 401 439 424 390 424 365 c 0
 424 327 428 250 167 199 c 1
EndSplineSet
EndChar

StartChar: f
Encoding: 102 102 288
Width: 314
GlyphClass: 2
Flags: MW
AnchorPoint: "right" 410 750 basechar 0
AnchorPoint: "below" 222 -111 basechar 0
LayerCount: 2
Fore
SplineSet
188 390 m 1
 106 390 l 2
 103 390 100 390 100 392 c 0
 100 394 103 406 104 409 c 0
 106 417 113 425 132 426 c 2
 198 429 l 1
 216 515.6 242.3 593 277 634 c 0
 318.5 683 380.4 698 408 698 c 0
 479 698 523.4 663.8 523.4 623.5 c 0
 523.4 614 515.9 589.6 485.2 589.6 c 0
 451.3 589.6 442.8 617.1 438.6 639.4 c 0
 434.4 659.5 423 665 400 665 c 0
 383 665 342 647 317 585 c 1
 305 558 294.4 524.3 287 486 c 2
 276 429 l 1
 386 429 l 2
 391 429 393 427 393 424 c 0
 393 423 388 402 388 402 c 2
 386 394 371 390 362 390 c 2
 269 390 l 1
 266 373 l 2
 251.2 289.1 234.9 208.2 218.9 130 c 0
 180 -60 157.9 -136.2 130 -175 c 0
 99 -218 55 -238 14 -238 c 0
 -54 -238 -78.4 -214.3 -78.4 -192 c 0
 -78.4 -175 -68.9 -156 -41.3 -156 c 0
 -19.3 -156 0.2 -174.7 8.8 -188.5 c 0
 14.6 -197.7 19.4 -205 33 -205 c 0
 48 -205 67.5 -192.4 78.6 -175 c 0
 115.3 -117.6 134 43.4 147 141 c 0
 157 216 168 276 188 390 c 1
EndSplineSet
EndChar

StartChar: g
Encoding: 103 103 289
Width: 477
GlyphClass: 2
Flags: MW
AnchorPoint: "below" 197 -319 basechar 0
AnchorPoint: "above" 360 645 basechar 0
LayerCount: 2
Fore
SplineSet
161 -3 m 1
 136 -21 74 -65 74 -113 c 0
 74 -168 128 -205 240 -205 c 0
 328 -205 362 -165 362 -127 c 0
 362 -92 338 -70 282 -44 c 0
 249 -29 179 -7 161 -3 c 1
415 291 m 0
 415 192 350 132 263 132 c 0
 235 132 211 139 195 149 c 1
 186 132 172 108 172 88 c 0
 172 40 245 38 325 14 c 0
 379 -2 427 -35 427 -100 c 0
 427 -199 336 -238 199 -238 c 0
 118 -238 7 -217 7 -136 c 0
 7 -76 89 -21 142 8 c 1
 116 23 116 46 116 56 c 0
 116 91 145 139 170 165 c 1
 143 197 124 239 124 283 c 0
 124 363 168 439 280 439 c 0
 324.3 439 356 423 378 397 c 1
 413 429 451 439 477 439 c 0
 500 439 516 423 516 405 c 0
 516 386 503 372 485 372 c 0
 468.9 372 462 381 457 389 c 0
 454 394 451 399 442 399 c 0
 435 399 410 388 395 374 c 1
 409 354 415 318 415 291 c 0
341 291 m 0
 341 359 319 409 276 409 c 0
 210 409 198 354 198 282 c 0
 198 234 207 162 268 162 c 0
 328 162 341 229 341 291 c 0
EndSplineSet
EndChar

StartChar: h
Encoding: 104 104 290
Width: 519
GlyphClass: 2
Flags: MW
AnchorPoint: "cedilla" 128 9 basechar 0
AnchorPoint: "below" 229 -111 basechar 0
AnchorPoint: "ogonek" 421 10 basechar 0
AnchorPoint: "above" 409 645 basechar 0
LayerCount: 2
Fore
SplineSet
175.9 72 m 2
 167 34 168 -10 130 -10 c 0
 98.2 -10 89.1 0.5 89.1 17.2 c 0
 89.1 27 97 52 101.8 72 c 2
 211 563 l 2
 215.9 584.8 218 602 218 613 c 0
 218 635 210 641 197 641 c 2
 166 643 l 2
 162 643 161 645 161 648 c 2
 164 672 l 1
 205 675 277 688 304 698 c 1
 313 698 316 695 316 688 c 1
 316 688 305.5 647.9 291 583 c 2
 230.3 311.5 l 1
 321.5 418.2 374.2 439 426 439 c 0
 465 439 492 419 492 359 c 0
 492 341 487 318 479 283 c 2
 441 124 l 2
 435 98 430 76 430 67 c 0
 430 55 432.9 50 440 50 c 0
 450 50 479 70 505 100 c 1
 519 100 525 92 528 83 c 1
 482 24 437 -10 389 -10 c 0
 359 -10 348 4 348 23 c 0
 348 42 357 83 365 115 c 2
 403 275 l 2
 411 309 413 328 413 342 c 0
 413 373 399 379 378 379 c 0
 342 379 277 320 214 238 c 1
 175.9 72 l 2
EndSplineSet
EndChar

StartChar: k
Encoding: 107 107 293
Width: 486
GlyphClass: 2
Flags: MW
AnchorPoint: "below" 223 -107 basechar 0
AnchorPoint: "cedilla" 125 9 basechar 0
AnchorPoint: "above" 405 646 basechar 0
LayerCount: 2
Fore
SplineSet
88.8 72 m 2
 199 563 l 2
 204 585 206 602 206 613 c 0
 206 635 198 641 185 641 c 2
 154 643 l 2
 150 643 149 645 149 648 c 2
 152 672 l 1
 193 675 265 688 292 698 c 1
 301 698 304 695 304 688 c 1
 304 688 294 648 279 583 c 2
 207 272 l 1
 228 272 249 288 266 302.7 c 2
 306 337 l 1
 378 401 439 439 471 439 c 0
 498 439 520 432 520 404 c 0
 520 373 488 354 474 354 c 0
 440 354 444 368 418 368 c 0
 398 368 371 350 322 306 c 2
 270 260 l 1
 270 256 l 1
 303 247 309.3 233.4 325 202 c 0
 339 174 352 135 380 80 c 0
 390.4 59.6 396.9 42 416 42 c 0
 427 42 448 61 468 90 c 1
 479 90 483 85 490 77 c 1
 458 21 423 -10 389 -10 c 0
 348 -10 323 21 290.4 93 c 0
 270 138.2 259 189 241 221 c 0
 236 230 229 237.3 221.4 237.3 c 0
 214 237.3 207 237 199 234 c 1
 162.9 72 l 2
 155 35 155 -10 117 -10 c 0
 85.2 -10 76.1 0.5 76.1 17.2 c 0
 76.1 27 84 52 88.8 72 c 2
EndSplineSet
EndChar

StartChar: l
Encoding: 108 108 294
Width: 266
GlyphClass: 2
Flags: MW
AnchorPoint: "below" 115 -107 basechar 0
AnchorPoint: "cedilla" 131 10 basechar 0
LayerCount: 2
Fore
SplineSet
286 583 m 2
 184 127 l 2
 175 87 172 72 172 64 c 0
 172 56 176 50 184 50 c 0
 196 50 228 72 258 108 c 1
 271 108 276 101 280 91 c 1
 234.5 15.5 180.2 -10 135 -10 c 0
 97.5 -10 93 15 93 34 c 0
 93 53 99.9 87 107 119 c 2
 206 563 l 2
 210.9 584.8 213 602 213 613 c 0
 213 635 205 641 192 641 c 2
 161 643 l 2
 157 643 156 645 156 648 c 2
 159 672 l 1
 200 675 272 688 299 698 c 1
 308 698 311 695 311 688 c 1
 311 688 300.5 647.9 286 583 c 2
EndSplineSet
EndChar

StartChar: m
Encoding: 109 109 295
Width: 783
GlyphClass: 2
Flags: MW
AnchorPoint: "below" 382 -105 basechar 0
AnchorPoint: "cedilla" 157 9 basechar 0
AnchorPoint: "above" 522 645 basechar 0
LayerCount: 2
Fore
SplineSet
182 321 m 2
 188 349 191 362.9 191 372 c 0
 191 382 185 391 173 392 c 2
 133 395 l 1
 127 404 125.3 415 132 423 c 1
 179 429 224 436 256 436 c 0
 269.2 436 276.5 428.6 276.5 414.9 c 0
 276.5 397.8 264 359 254.3 320.2 c 2
 252 311 l 1
 254 310 l 1
 313 386 378 439 450 439 c 0
 478 439 508 422 508 352 c 0
 508 339 507 321 504 305 c 1
 562 378 617 439 688 439 c 0
 719 439 749 415 749 352 c 0
 749 333 745 302 739 279 c 2
 692 101 l 2
 689 89.7 686.9 64.6 686.9 61 c 0
 686.9 56 688.6 50 694 50 c 0
 712 50 740 77 764 115 c 1
 777 115 784 110 786 101 c 1
 752 19 697 -10 638 -10 c 0
 624 -10 606.3 3.4 606.3 23.4 c 0
 606.3 32 613.8 72.8 624 114 c 2
 663 271 l 2
 671 302 672 331 672 342 c 0
 672 372 662 379 643 379 c 0
 611 379 572 348 487 229 c 1
 448.9 72 l 2
 440 34 441 -10 403 -10 c 0
 371.2 -10 362.1 0.5 362.1 17.2 c 0
 362.1 27 370 51.9 374.8 72 c 2
 423 275 l 2
 430 306 431 330 431 342 c 0
 431 372 425 379 405 379 c 0
 373 379 317 346 239 233 c 1
 198.9 72 l 2
 189 34 191 -10 153 -10 c 0
 121.2 -10 112.1 0.5 112.1 17.2 c 0
 112.1 27 120 52 124.8 72 c 2
 182 321 l 2
EndSplineSet
EndChar

StartChar: n
Encoding: 110 110 296
Width: 518
GlyphClass: 2
Flags: MW
AnchorPoint: "below" 235 -111 basechar 0
AnchorPoint: "cedilla" 128 9 basechar 0
AnchorPoint: "above" 394 646 basechar 0
LayerCount: 2
Fore
SplineSet
433 124 m 2
 427 98 422 76 422 67 c 0
 422 55 424.9 50 432 50 c 0
 442 50 471 70 497 100 c 1
 511 100 517 92 520 83 c 1
 474 24 426 -10 378 -10 c 0
 348 -10 337 4 337 23 c 0
 337 42 346 83 354 115 c 2
 392 275 l 2
 398.7 303.1 405 330.7 405 343 c 0
 405 374 391 379 370 379 c 0
 334 379 279 320 216 238 c 1
 177.9 72 l 2
 169 34 170 -10 132 -10 c 0
 100.2 -10 89.1 0.5 89.1 17.2 c 0
 89.1 27 97 52 101.8 72 c 2
 158 321 l 2
 164 349 167 363.9 167 372 c 0
 167 382 161 391 149 392 c 2
 109 395 l 1
 103 404 101.3 415 108 423 c 1
 155 430 202 436 234 436 c 0
 247.2 436 254.5 428.6 254.5 414.9 c 0
 254.5 400 246.4 357.1 233.3 320.2 c 2
 230 311 l 1
 231 310 l 1
 323 418 366 439 418 439 c 0
 457 439 484 419 484 359 c 0
 484 341 479 318 471 283 c 2
 433 124 l 2
EndSplineSet
EndChar

StartChar: o
Encoding: 111 111 297
Width: 447
GlyphClass: 2
Flags: MW
AnchorPoint: "below" 186.2 -107 basechar 0
AnchorPoint: "cedilla" 230.4 -3 basechar 0
AnchorPoint: "ogonek" 371 44 basechar 0
AnchorPoint: "above" 359.2 645 basechar 0
AnchorPoint: "komb_OR" 490.6 396 basechar 0
LayerCount: 2
Fore
SplineSet
161 170 m 0
 161 65 204 27 233 27 c 0
 270.5 27 311 45 339 88 c 0
 375.5 144 382 230.4 382 270 c 0
 382 300.4 379.3 336.6 366.5 362 c 0
 352.3 390.1 336 406 306 406 c 0
 200 406 161 260 161 170 c 0
78 162 m 0
 78 282 157 439 324 439 c 0
 447 439 465 349 465 277 c 0
 465 158.8 397.1 52.9 310 9 c 0
 280.6 -5.8 250.3 -10 218 -10 c 0
 91 -10 78 109 78 162 c 0
EndSplineSet
EndChar

StartChar: p
Encoding: 112 112 298
Width: 489
GlyphClass: 2
Flags: MW
AnchorPoint: "below" 248 -110 basechar 0
AnchorPoint: "above" 411 646 basechar 0
LayerCount: 2
Fore
SplineSet
266 404 m 1
 293 420 330 439 381 439 c 0
 481 439 509 373 509 289 c 0
 509 217 482 149 428 83 c 0
 384.4 29.7 326.2 -10 255 -10 c 0
 225.5 -10 197 7 182 23 c 1
 138 -161 l 2
 130 -195 156 -200 171 -202 c 2
 190 -205 l 2
 194 -206 196 -208 196 -213 c 2
 196 -233 l 1
 194 -235 l 1
 194 -235 126 -233 87 -233 c 0
 51 -233 -17 -238 -17 -238 c 1
 -19 -236 l 1
 -19 -217 l 2
 -19 -211 -14 -210 -9 -209 c 2
 10 -206 l 2
 42 -201 57 -189 63 -161 c 2
 166 298 l 1
 138 275 116 257 94 228 c 1
 76 228 66.9 234.8 63 249 c 1
 91 284 128 314 178 350 c 1
 191 409 l 2
 199 447 199 491 237 491 c 0
 269 491 279 481 279 464 c 0
 279 452 269.6 421.9 266 404 c 1
427 273 m 0
 427 322 417 393 349 393 c 0
 311 393 282 375 257 359 c 1
 191 67 l 1
 212 38 239 25 265 25 c 0
 303 25 342.6 55.2 369.2 96.5 c 0
 407 155.2 427 224.5 427 273 c 0
EndSplineSet
EndChar

StartChar: q
Encoding: 113 113 299
Width: 491
GlyphClass: 2
Flags: MW
AnchorPoint: "below" 169 -110 basechar 0
AnchorPoint: "above" 369.2 645 basechar 0
LayerCount: 2
Fore
SplineSet
405 330 m 0
 405 371 380 403 344 403 c 0
 242 403 165 278 165 158 c 0
 165 102 179.7 32 219 32 c 0
 256 32 344 115 367 180 c 0
 386 236 405 314 405 330 c 0
295 -161 m 2
 361 99 l 1
 358 100 l 1
 296 14 247 -10 198 -10 c 0
 104 -10 81 72 81 147 c 0
 81 319 234 439 340 439 c 0
 381 439 413 418 436 386 c 1
 465 427 l 2
 476.1 442.7 489 446 496 446 c 0
 499 446 507 444 507 436 c 0
 507 431 506.1 425.9 505 421 c 2
 371 -161 l 2
 363.2 -195 388.8 -199.6 404 -202 c 2
 423 -205 l 2
 427 -205.6 429 -208 429 -213 c 2
 429 -233 l 1
 427 -235 l 1
 427 -235 359 -233 320 -233 c 0
 284 -233 215 -238 215 -238 c 1
 213 -236 l 1
 213 -217 l 2
 213 -211 218.1 -209.8 223 -209 c 2
 242 -206 l 2
 274.3 -200.9 288 -188.8 295 -161 c 2
EndSplineSet
EndChar

StartChar: r
Encoding: 114 114 300
Width: 357
GlyphClass: 2
Flags: MW
AnchorPoint: "below" 113 -110 basechar 0
AnchorPoint: "cedilla" 134 7 basechar 0
AnchorPoint: "above" 312.4 646 basechar 0
LayerCount: 2
Fore
SplineSet
221 285 m 1
 225 284 l 1
 269 377 327 439 377 439 c 0
 414 439 429 413 429 392 c 0
 429 365 411 336 384 336 c 0
 370 336 357 349 350 357 c 0
 344 364 339 369 329 369 c 0
 306 369 250 276 202 189 c 1
 172.9 72 l 2
 163 33 162 -10 127 -10 c 0
 98 -10 89.1 0.5 89.1 17.2 c 0
 89.1 33 97 50.5 101.8 72 c 2
 157 321 l 2
 164 349 164 362.9 164 372 c 0
 164 382 158 391 146 392 c 2
 106 395 l 1
 100 404 98.3 415 105 423 c 1
 152 429 193 436 225 436 c 0
 238.2 436 246.5 426.3 246.5 410.9 c 0
 246.5 393.8 238 359 229.3 320.2 c 2
 221 285 l 1
EndSplineSet
EndChar

StartChar: s
Encoding: 115 115 301
Width: 353
GlyphClass: 2
Flags: MW
AnchorPoint: "below" 169 -111 basechar 0
AnchorPoint: "cedilla" 185 -1 basechar 0
AnchorPoint: "ogonek" 276 13 basechar 0
AnchorPoint: "above" 327 645 basechar 0
LayerCount: 2
Fore
SplineSet
174 -10 m 0
 105 -6 59 31 59 68 c 0
 59 79 67 103 96 103 c 0
 126 103 140 73 143 50 c 0
 146 28 160 23 186 23 c 0
 231 23 271 42 271 97 c 0
 271 118 263 151 210 187 c 0
 145 231 123 274 123 314 c 0
 123 375 176 439 263 439 c 0
 325 439 377 395 377 359 c 0
 377 343 369 325 341 325 c 0
 315 325 298 353 295 377 c 0
 292 398 275 406 250 406 c 0
 207 406 187 370 187 335 c 0
 187 310 197 292 227 272 c 0
 319 211 346 165 346 118 c 0
 346 44 287 -10 189 -10 c 0
 184 -10 179 -10 174 -10 c 0
EndSplineSet
EndChar

StartChar: t
Encoding: 116 116 302
Width: 307
GlyphClass: 2
Flags: MW
AnchorPoint: "below" 133 -107 basechar 0
AnchorPoint: "cedilla" 149 -3 basechar 0
AnchorPoint: "ogonek" 211 15 basechar 0
LayerCount: 2
Fore
SplineSet
186 429 m 1
 199 479 l 2
 208.6 516 207 561 243 561 c 0
 275 561 283 551 283 534 c 0
 283 522 274.2 492.7 270 474 c 2
 260 429 l 1
 359 429 l 1
 370 421 361 395 349 390 c 1
 251 390 l 1
 192 127 l 2
 184.4 93.1 181 73 181 64 c 0
 181 52 191 50 194 50 c 0
 210 50 228 60 274 112 c 1
 286 112 293 106 296 93 c 1
 261.5 31 195.5 -10 151 -10 c 0
 120 -10 102 0 102 36 c 0
 102 55 108.7 85.6 116 118 c 2
 177 390 l 1
 107 390 l 2
 104 390 101 390 101 392 c 0
 101 394 104 406 105 409 c 0
 107 417 114 425 133 426 c 2
 186 429 l 1
EndSplineSet
EndChar

StartChar: u
Encoding: 117 117 303
Width: 521
GlyphClass: 2
Flags: MW
AnchorPoint: "below" 226.4 -111 basechar 0
AnchorPoint: "cedilla" 213 0 basechar 0
AnchorPoint: "ogonek" 438.4 7 basechar 0
AnchorPoint: "above" 386.4 646 basechar 0
LayerCount: 2
Fore
SplineSet
506 352 m 2
 450 124 l 2
 444 98 439 76 439 67 c 0
 439 55 442 50 449 50 c 0
 459 50 488 70 514 100 c 1
 528 100 534 92 537 83 c 1
 491 24 446 -10 398 -10 c 0
 368 -10 361 4 361 23 c 0
 361 42 369 83 378 115 c 2
 389 154 l 1
 386 156 l 1
 315 52 265 -10 187 -10 c 0
 152 -10 120 13 120 70 c 0
 120 89 123 111 130 137 c 2
 174 305 l 2
 181 331 187 353 187 362 c 0
 187 374 184 379 177 379 c 0
 167 379 134 359 108 329 c 1
 94 329 88 337 85 346 c 1
 131 405 188 439 236 439 c 0
 266 439 272 425 272 406 c 0
 272 387 259 346 251 314 c 2
 208 151 l 2
 201 124 199 103 199 87 c 0
 199 60 211 50 229 50 c 0
 279 50 328 121 402 247 c 1
 431 357 l 2
 441 395 439 439 477 439 c 0
 509 439 519 429 519 412 c 0
 519 400 509.6 369.9 506 352 c 2
EndSplineSet
EndChar

StartChar: v
Encoding: 118 118 304
Width: 472
GlyphClass: 2
Flags: MW
LayerCount: 2
Fore
SplineSet
304.6 76 m 1
 309 73.5 l 1
 322.9 84.8 359 131.6 371.6 148.5 c 0
 410.2 200.1 447 277.7 447 321.5 c 0
 447 337.9 441.2 358.6 426 381.5 c 0
 422.7 386.4 420.5 395.8 420.5 402 c 0
 420.5 426.3 437.7 439 467 439 c 0
 505.5 439 519.4 420 519.4 391.6 c 0
 519.4 356.4 507.2 319.8 492.3 285 c 0
 464.1 218.9 418.3 158.4 396.5 127.5 c 0
 382.1 107.1 344.1 58.9 313.2 24.5 c 0
 294.3 3.5 280.5 -12 270 -12 c 0
 256.4 -12 245.6 7.9 238 52 c 2
 196 296 l 2
 188.4 340.3 182.5 357 173 357 c 0
 154 357 131 335.7 103 308.7 c 1
 91.8 310.2 84.4 316.5 81.7 326.8 c 1
 116.7 380.1 174.5 439 208 439 c 0
 245 439 257 402 271 309 c 2
 304.6 76 l 1
EndSplineSet
EndChar

StartChar: w
Encoding: 119 119 305
Width: 688
GlyphClass: 2
Flags: MW
AnchorPoint: "below" 355 -110 basechar 0
AnchorPoint: "above" 348 646 basechar 0
AnchorPoint: "right" 722 580 basechar 0
LayerCount: 2
Fore
SplineSet
265 -12 m 0
 256 -12 246.7 1.6 238 52 c 2
 196 296 l 2
 188.4 340.3 182.5 357 173 357 c 0
 154 357 131 335.7 103 308.7 c 1
 91.8 310.2 84.4 316.5 81.7 326.8 c 1
 116.7 380.1 174.5 439 208 439 c 0
 245 439 256.2 401.9 271 309 c 2
 305 96 l 1
 307.5 94.5 l 1
 331 130.5 396.4 249.5 438 346 c 1
 454 354 470.5 357.5 487 358 c 1
 494 340.5 502.7 307.1 511.9 269 c 0
 524.9 214.9 538.3 148.4 546.8 96 c 1
 554.4 94 l 1
 567.5 108.4 583.6 127.6 599.1 148.5 c 0
 637.1 199.9 663 276.5 663 321.5 c 0
 663 337.9 657.2 358.6 642 381.5 c 0
 638.7 386.4 636.5 395.8 636.5 402 c 0
 636.5 426.3 653.7 439 683 439 c 0
 721.5 439 735.4 420 735.4 391.6 c 0
 735.4 356.4 723.2 319.8 708.3 285 c 0
 680.1 218.9 644.8 157.4 623 126.5 c 0
 608.6 106.1 576.9 61.1 548 25 c 0
 528 0 513.5 -12 502 -12 c 0
 493.3 -12 486 -2 479 46.3 c 0
 469.3 113.1 454 194 439.5 258 c 1
 433.5 257 l 1
 398.9 181.9 343.8 85.5 306.6 27 c 0
 290.9 2.3 272.7 -12 265 -12 c 0
EndSplineSet
EndChar

StartChar: x
Encoding: 120 120 306
Width: 475
GlyphClass: 2
Flags: MW
AnchorPoint: "below" 224 -110 basechar 0
AnchorPoint: "cedilla" 84 8 basechar 0
AnchorPoint: "above" 366 646 basechar 0
LayerCount: 2
Fore
SplineSet
215 309 m 2
 208.7 326.5 202 343.3 197.5 351 c 0
 192.5 359.5 182.5 362.5 169.5 362.5 c 0
 149 362.5 116 346.5 104 340.8 c 1
 96 348.5 92.4 360.6 91 371.5 c 1
 126 397.5 199.5 439 223 439 c 0
 248 439 259.4 419.2 276 367 c 2
 304 279 l 1
 354 351 l 2
 403.2 421.8 436 439 486 439 c 0
 509 439 536 424 536 399 c 0
 536 376 518 356 504 356 c 0
 494 356 478.4 360.2 471 366 c 0
 462 373 449 376 441 376 c 0
 434 376 409.7 372.2 394 349 c 2
 318 237 l 1
 372 76 l 2
 380.2 51.7 387 39 396 39 c 0
 407 39 420 47 446 80 c 1
 457 78.2 466.2 70.2 470 61 c 1
 439 9 395 -10 360 -10 c 0
 326 -10 315.7 6 303 46 c 2
 264.5 167.5 l 1
 195 68 l 2
 151.2 5.2 127 -10 93 -10 c 0
 70 -10 35 2 35 28 c 0
 35 50 51 66 73 66 c 0
 83 66 93 64 102 60 c 0
 110 56 121 54 129 54 c 0
 136 54 146.6 57.8 157 73 c 2
 250.5 210.5 l 1
 215 309 l 2
EndSplineSet
EndChar

StartChar: y
Encoding: 121 121 307
Width: 503
GlyphClass: 2
Flags: MW
AnchorPoint: "below" 368 -107 basechar 0
AnchorPoint: "above" 367 644 basechar 0
LayerCount: 2
Fore
SplineSet
352.5 0 m 1
 307 -70 l 2
 242.5 -169.2 163 -234 110 -234 c 0
 93 -234 49 -225 49 -192 c 0
 49 -161 74 -141 95 -141 c 0
 103 -141 123 -149 130 -155 c 0
 136 -160 155 -173 165 -173 c 0
 179 -173 221 -129 262 -62 c 1
 273.9 -36.5 243.5 207.2 213 309 c 0
 207.6 327.1 202 343.3 197.5 351 c 0
 192.5 359.5 182.5 362.5 169.5 362.5 c 0
 149 362.5 116 346.5 104 340.8 c 1
 96 348.5 92.4 360.6 91 371.5 c 1
 126 397.5 199.5 439 223 439 c 0
 248 439 261 418 275 365 c 1
 305 241.4 312 147 318 30.5 c 1
 324.5 27.5 l 1
 350.2 65.1 401.6 148.5 401.6 148.5 c 2
 436.2 202.8 477 277.7 477 321.5 c 0
 477 337.9 471.2 358.6 456 381.5 c 0
 452.7 386.4 450.5 395.8 450.5 402 c 0
 450.5 426.3 467.7 439 497 439 c 0
 535.5 439 549.4 420 549.4 391.6 c 0
 549.4 356.4 537.2 319.8 522.3 285 c 0
 494.1 218.9 372.1 32.4 352.5 0 c 1
EndSplineSet
EndChar

StartChar: z
Encoding: 122 122 308
Width: 436
GlyphClass: 2
Flags: MW
AnchorPoint: "below" 187 -111 basechar 0
AnchorPoint: "cedilla" 208 4 basechar 0
AnchorPoint: "above" 360 646 basechar 0
LayerCount: 2
Fore
SplineSet
438 444 m 1
 467 429 l 1
 457 413 437 392 412 362 c 0
 355.5 292.1 245.7 179.9 175.9 102 c 1
 267.9 102 262.4 67 313 67 c 0
 341 67 370 72 408 133 c 1
 420 133 427.1 129.7 433 123 c 1
 386 15 353 -10 310 -10 c 0
 282 -10 249 0 224 15 c 0
 192 35 165 41 148 41 c 0
 138 41 113 25 91 -12 c 1
 83 -11 76 -9 68 -6 c 1
 62 -5 57 0 54 7 c 1
 58 21 96 68 116 91 c 2
 356.5 355.8 l 1
 346.6 354.4 338.6 354 325 354 c 0
 296 354 258 363 213 363 c 0
 167 363 150 353 129 307 c 1
 118 307 109 308 102 315 c 1
 119 374 164 439 199 439 c 0
 227 439 257 434 305 426 c 1
 352 416 366 412 384 412 c 0
 400 412 415 418 438 444 c 1
EndSplineSet
EndChar

StartChar: braceleft
Encoding: 123 123 309
Width: 273
GlyphClass: 2
Flags: MW
LayerCount: 2
Fore
SplineSet
279 567 m 2
 247 386 l 2
 231 295 208 268 155 247 c 1
 191 230 204 205 204 165 c 0
 204 146 201 123 196 95 c 2
 167 -69 l 2
 164 -89 162 -107 162 -122 c 0
 162 -138 164 -152 167 -162 c 1
 181 -196 199 -200 208 -203 c 1
 206 -217 l 1
 152 -216 114 -204 101 -181 c 0
 93 -167 89 -148 89 -123 c 0
 89 -103 92 -81 96 -54 c 2
 127 121 l 2
 130 138 132 153 132 168 c 0
 132 206 120 234 82 244 c 1
 83 249 l 1
 142 265 162 320 171 370 c 2
 205 559 l 2
 214 613 230 652 253 675 c 0
 276 698 317 710 370 711 c 1
 367 697 l 1
 346 691 327 678 311 656 c 0
 297 638 287 608 279 567 c 2
EndSplineSet
EndChar

StartChar: bar
Encoding: 124 124 310
Width: 205
GlyphClass: 2
Flags: MW
LayerCount: 2
Fore
SplineSet
84 -233 m 1
 40 -233 l 1
 196 652 l 1
 240 652 l 1
 84 -233 l 1
EndSplineSet
EndChar

StartChar: braceright
Encoding: 125 125 311
Width: 273
GlyphClass: 2
Flags: MW
LayerCount: 2
Fore
SplineSet
82 -73 m 2
 113 108 l 2
 129 199 153 227 206 248 c 1
 169 264 157 289 157 329 c 0
 157 349 160 372 165 399 c 2
 193 563 l 2
 197 584 199 602 199 617 c 0
 199 633 197 646 193 656 c 0
 180 690 162 694 152 697 c 1
 155 711 l 1
 208 710 247 698 260 675 c 0
 267 661 271 642 271 617 c 0
 271 597 269 575 264 548 c 2
 233 374 l 2
 230 356 229 340 229 326 c 0
 229 288 241 260 278 250 c 1
 278 245 l 1
 219 229 198 174 189 125 c 2
 156 -65 l 2
 146 -119 130 -158 108 -181 c 1
 84 -204 43 -216 -9 -217 c 1
 -6 -203 l 1
 15 -197 34 -184 50 -162 c 0
 63 -144 74 -114 82 -73 c 2
EndSplineSet
EndChar

StartChar: asciitilde
Encoding: 126 126 312
Width: 449
GlyphClass: 2
Flags: MW
LayerCount: 2
Fore
SplineSet
63 209 m 1
 87 274 153 337 213 337 c 0
 259 337 304 272 349 272 c 0
 377 272 429 289 460 339 c 1
 476 333 l 1
 426 226 359 213 335 213 c 0
 282 213 249 278 197 278 c 0
 162 278 106 250 75 206 c 1
 63 209 l 1
EndSplineSet
EndChar

StartChar: exclamdown
Encoding: 161 161 314
Width: 227
GlyphClass: 2
Flags: MW
LayerCount: 2
Fore
SplineSet
239 394 m 0
 234 364 206 340 177 340 c 0
 151 340 132 359 132 384 c 0
 132 387 132 390 133 394 c 0
 138 423 166 447 195 447 c 0
 222 447 240 428 240 402 c 0
 240 399 240 396 239 394 c 0
75 -231 m 0
 52 -231 30 -214 30 -178 c 0
 30 -171 31 -165 32 -158 c 0
 44 -93 67 -51 92 35 c 0
 124 143 136 203 140 216 c 0
 143 228 148 236 158 236 c 0
 168 236 169 231 169 226 c 0
 169 225 169 225 169 224 c 0
 168 203 157 113 151 35 c 0
 149 8 149 -14 149 -32 c 0
 149 -48 149 -62 149 -77 c 0
 149 -102 148 -125 143 -158 c 1
 133 -212 98 -231 75 -231 c 0
EndSplineSet
EndChar

StartChar: cent
Encoding: 162 162 315
Width: 438
GlyphClass: 2
Flags: MW
LayerCount: 2
Fore
SplineSet
321 584 m 1
 355 584 l 1
 340.5 509.3 l 1
 430 502.8 433 450.5 433 414 c 0
 433 389 408 369 381 369 c 0
 364 369 354 385 354 401 c 0
 354 407 356.4 417.7 359 422 c 0
 362 427 364 435 364 441 c 0
 364 465.8 348.1 474.8 334.3 477.7 c 1
 264.9 120.9 l 1
 310.7 126.3 346.7 156.7 382 196.5 c 1
 391 196.5 401 189.5 404 179.5 c 1
 363.9 123.5 312 78.4 254 65 c 1
 239 -12 l 1
 205 -12 l 1
 219.2 61 l 1
 219 61 l 2
 178.4 61 143.6 80.1 123 109 c 0
 99.5 141.9 93 186.9 93 220 c 0
 93 309.8 126.4 387.3 175.1 439.5 c 0
 211.7 478.8 266.6 503.8 306.4 509 c 1
 321 584 l 1
231.1 122.2 m 1
 300.1 476.6 l 1
 232.2 461.6 175 376.7 175 242 c 0
 175 181.6 185.1 162.2 200 143 c 0
 209.1 131.2 220.1 125.1 231.1 122.2 c 1
EndSplineSet
EndChar

StartChar: sterling
Encoding: 163 163 316
Width: 438
GlyphClass: 2
Flags: MW
LayerCount: 2
Fore
SplineSet
164 85 m 0
 223 85 246 71 265 57 c 0
 279 46 292 38 318 38 c 0
 346 38 393 52 424 85 c 1
 440 72 l 1
 413 23 362 -12 292 -12 c 0
 255 -12 228 4 203 20 c 0
 181 34 160 46 134 46 c 0
 101 46 89 30 87 20 c 0
 82 -6 57 -17 40 -17 c 0
 27 -17 16 -5 19 7 c 0
 23.2 29.1 47.8 47.6 76.3 61.1 c 1
 82.7 65.5 88.4 70.1 96 77 c 0
 151 125 172 202 185 266 c 2
 189.9 292 l 1
 124 292 l 1
 132 332 l 1
 197.5 332 l 1
 199 340 l 2
 215 420 247 472 309 523 c 0
 349 557 395 575 445 575 c 0
 467 575 519 564 512 531 c 1
 508 507 488 493 465 493 c 0
 452 493 444 501 436 511 c 1
 425 522 414 533 393 533 c 0
 349 533 297 470 281 388 c 2
 269.9 332 l 1
 400 332 l 1
 393 292 l 1
 262 292 l 1
 261 287 l 1
 239 170 202 116 160 88 c 0
 158.1 86.7 156.1 85.6 154.2 84.4 c 1
 157.8 84.8 161.2 85 164 85 c 0
EndSplineSet
EndChar

StartChar: currency
Encoding: 164 164 317
Width: 438
GlyphClass: 2
Flags: MW
LayerCount: 2
Fore
SplineSet
240 124 m 0
 200 124 166 136 138 160 c 1
 86 106 l 1
 52 146 l 1
 113 189 l 1
 98 213 90 239 90 268 c 0
 90 277 91 288 93 299 c 0
 101 341 121 378 152 409 c 1
 108 450 l 1
 152 489 l 1
 188 439 l 1
 225 462 263 474 302 474 c 0
 342 474 376 461 404 437 c 1
 460 492 l 1
 492 451 l 1
 429 407 l 1
 443 385 450 360 450 332 c 0
 450 321 449 310 447 299 c 0
 440 259 422 223 392 191 c 1
 436 147 l 1
 393 109 l 1
 356 161 l 1
 319 136 281 124 240 124 c 0
154 300 m 0
 152 290 151 281 151 271 c 0
 151 212 186 166 248 166 c 0
 317 166 374 228 387 299 c 0
 388 308 389 317 389 326 c 0
 389 387 351 432 296 432 c 0
 227 432 167 371 154 300 c 0
EndSplineSet
EndChar

StartChar: yen
Encoding: 165 165 318
Width: 438
GlyphClass: 2
Flags: MW
LayerCount: 2
Fore
SplineSet
437 166 m 1
 429 127 l 1
 285.7 127 l 1
 275 72 l 2
 269 41 282 28 321 28 c 2
 348 28 l 2
 352 28 355 25 354 20 c 2
 351 1 l 1
 348 -1 l 1
 348 -1 262 1 223 1 c 0
 187 1 93 -1 93 -1 c 1
 92 1 l 1
 95 20 l 2
 96 25 100 28 105 28 c 2
 131 28 l 2
 172 28 189 44 194 72 c 2
 204.7 127 l 1
 73 127 l 1
 81 166 l 1
 212.3 166 l 1
 224.6 229 l 1
 93 229 l 1
 101 269 l 1
 226.6 269 l 1
 160 501 l 2
 152 530 143 547 116 547 c 2
 109 547 l 1
 106 548 100 549 101 555 c 2
 104 573 l 1
 106 575 l 1
 117 573 184 572 197 572 c 0
 203 572 269 573 284 575 c 1
 285 573 l 1
 282 556 l 2
 281 552 278 547 273 547 c 2
 260 547 l 2
 242 547 235 542 233 534 c 0
 232 526 235 516 238 503 c 2
 298 290 l 1
 433 503 l 2
 441 517 448 528 449 535 c 0
 451 544 445 548 427 548 c 2
 412 548 l 2
 407 548 406 552 407 555 c 2
 411 573 l 1
 412 575 l 1
 420 574 477 572 490 572 c 0
 499 572 543 573 562 575 c 1
 564 573 l 1
 561 556 l 2
 560 552 559 548 550 548 c 2
 543 548 l 2
 514 548 492 530 474 501 c 2
 325.9 269 l 1
 457 269 l 1
 449 229 l 1
 305.7 229 l 1
 293.4 166 l 1
 437 166 l 1
EndSplineSet
EndChar

StartChar: brokenbar
Encoding: 166 166 319
Width: 205
GlyphClass: 2
Flags: MW
LayerCount: 2
Fore
SplineSet
158 161 m 1
 94 -201 l 1
 45 -201 l 1
 109 161 l 1
 158 161 l 1
249 674 m 1
 185 312 l 1
 136 312 l 1
 200 674 l 1
 249 674 l 1
EndSplineSet
EndChar

StartChar: section
Encoding: 167 167 320
Width: 473
GlyphClass: 2
Flags: MW
LayerCount: 2
Fore
SplineSet
215.6 416 m 1
 195.3 443.7 187.5 470.7 187.5 497.3 c 0
 187.5 581.8 249 658 367 658 c 0
 453.7 658 494.3 608.5 494.3 570.1 c 0
 494.3 549.7 488.2 519 452 519 c 0
 426 519 418 541 417 560 c 0
 415 598 406 627 363 627 c 0
 309 627 262.3 592 262.3 532.6 c 0
 262.3 496.3 283 456 331 427 c 0
 391.3 390.7 474.3 352 474.3 258 c 0
 474.3 217.4 460.7 137.6 363.2 70.8 c 1
 381.4 47 388.5 24 388.5 -1.3 c 0
 388.5 -102.3 306.6 -172 203 -172 c 0
 116.3 -172 81.7 -122.5 81.7 -84.1 c 0
 81.7 -63.7 90.8 -33 127 -33 c 0
 153 -33 158 -55 159 -74 c 0
 161 -112 168 -141 211 -141 c 0
 265.2 -141 313.7 -95.6 313.7 -35.9 c 0
 313.7 0.0999985 293.7 30.2 246 59 c 0
 185.7 95.3 102.7 134 102.7 228 c 0
 102.7 268.1 117.3 348.5 215.6 416 c 1
343.8 92.4 m 1
 379.7 117.7 408.6 147 408.6 202.6 c 0
 408.6 272.8 350.3 308.2 295 345 c 0
 269.7 361.6 249.7 378 234.2 394 c 1
 198.9 367.9 167.4 342.1 167.4 283.4 c 0
 167.4 213.2 225.7 177.8 281 141 c 0
 307.5 123.6 328 107.7 343.8 92.4 c 1
EndSplineSet
EndChar

StartChar: dieresis
Encoding: 168 168 321
Width: 375
GlyphClass: 2
Flags: MW
LayerCount: 2
Fore
SplineSet
209 618 m 0
 231 618 247 602 247 581 c 0
 247 549 217 527 193 527 c 0
 171 527 155 543 155 565 c 0
 155 596 184 618 209 618 c 0
370 619 m 0
 392 619 408 602 408 581 c 0
 408 550 379 528 354 528 c 0
 332 528 316 544 316 565 c 0
 316 597 345 619 370 619 c 0
EndSplineSet
EndChar

StartChar: copyright
Encoding: 169 169 322
Width: 633
GlyphClass: 2
Flags: MW
LayerCount: 2
Fore
SplineSet
437 217 m 1
 417 186 377 153 322 153 c 0
 226 153 168 227 168 307 c 0
 168 380 225 456 319 456 c 0
 389 456 388 442 422 442 c 1
 434 364 l 1
 407 360 l 1
 399 404 393 435 320 435 c 0
 283 435 224 410 224 305 c 0
 224 238 257 180 325 180 c 0
 376 180 405 215 416 231 c 1
 437 217 l 1
EndSplineSet
Refer: 2098 -1 N 1 0 0 1 0 0 2
EndChar

StartChar: ordfeminine
Encoding: 170 170 323
Width: 296
GlyphClass: 2
Flags: MW
LayerCount: 2
Fore
SplineSet
324 633 m 1
 330 632 336 632 343 632 c 0
 351 632 360 632 368 632 c 1
 325 439 l 2
 323 427 319 411 319 405 c 0
 319 398 324 396 326 396 c 0
 332 396 344 406 361 429 c 1
 369 429 372 424 375 419 c 1
 359 384 334 359 296 359 c 0
 275 359 270 375 270 387 c 0
 270 394 272 407 276 421 c 2
 285 447 l 1
 283 448 l 1
 246 393 211 359 178 359 c 0
 126 359 118 407 118 442 c 0
 118 539 209 637 275 637 c 0
 300 637 307 635 324 633 c 1
293 501 m 1
 309 541 315 606 315 606 c 1
 303 613 289 618 276 618 c 0
 219 618 168 518 168 452 c 0
 168 417 174 393 195 393 c 0
 215 393 263 445 293 501 c 1
EndSplineSet
EndChar

StartChar: guillemotleft
Encoding: 171 171 324
Width: 464
GlyphClass: 2
Flags: MW
LayerCount: 2
Fore
SplineSet
173 215 m 1
 206 174 233 126 268 47 c 1
 234 23 l 1
 187 99 158 142 107 191 c 2
 107 191 96 202 90 207 c 1
 93 223 l 1
 101 228 117 239 117 239 c 1
 188 288 237 331 316 407 c 1
 339 383 l 1
 270 304 224 256 173 215 c 1
336 215 m 1
 369 174 396 126 431 47 c 1
 398 23 l 1
 351 99 322 142 271 191 c 2
 271 191 260 202 254 207 c 1
 257 223 l 1
 265 228 281 239 281 239 c 1
 352 288 401 331 480 407 c 1
 502 383 l 1
 433 304 387 256 336 215 c 1
EndSplineSet
EndChar

StartChar: logicalnot
Encoding: 172 172 325
Width: 560
GlyphClass: 2
Flags: MW
LayerCount: 2
Fore
SplineSet
507 133 m 1
 546 357 l 1
 87 357 l 1
 95 401 l 1
 607 401 l 1
 560 133 l 1
 507 133 l 1
EndSplineSet
EndChar

StartChar: uni00AD
Encoding: 173 173 326
Width: 350
GlyphClass: 2
Flags: MW
LayerCount: 2
Fore
SplineSet
316 236 m 2
 89 236 l 2
 82 236 77 242 77 250 c 1
 77 250 78 252 78 253 c 0
 81 269 98 290 109 290 c 2
 338 290 l 2
 346 290 349 285 349 278 c 0
 349 276 349 274 349 272 c 0
 347 261 329 236 316 236 c 2
EndSplineSet
EndChar

StartChar: registered
Encoding: 174 174 327
Width: 633
GlyphClass: 2
Flags: MW
LayerCount: 2
Fore
SplineSet
417 372 m 0
 417 320 360 296 360 296 c 1
 408 214 l 2
 421 192 433 183 448 183 c 1
 448 170 l 1
 438 167 430 166 425 166 c 0
 396 166 375 178 363 204 c 1
 315 283 l 1
 311 286 293 287 288 287 c 1
 288 192 l 2
 288 187 288 184 295 184 c 2
 307 184 l 2
 315 184 318 183 318 178 c 2
 318 167 l 1
 318 167 276 169 262 169 c 2
 207 167 l 1
 207 179 l 2
 207 183 210 184 217 184 c 2
 229 184 l 2
 235 184 237 185 237 192 c 2
 237 415 l 2
 237 421 236 426 233 426 c 2
 217 425 l 1
 210 426 207 428 207 431 c 2
 207 442 l 1
 228 445 249 447 322 447 c 0
 398 447 417 402 417 372 c 0
367 372 m 0
 367 406 350 430 316 430 c 0
 305 430 293 428 288 427 c 1
 288 308 l 1
 319 308 367 310 367 372 c 0
EndSplineSet
Refer: 2098 -1 N 1 0 0 1 0 0 2
EndChar

StartChar: macron
Encoding: 175 175 328
Width: 397
GlyphClass: 2
Flags: MW
LayerCount: 2
Fore
SplineSet
409 529 m 2
 164 529 l 2
 157 529 154 534 154 540 c 0
 154 541 154 542 155 544 c 0
 157 556 170 573 182 573 c 2
 426 573 l 2
 435 573 438 567 438 562 c 2
 438 559 l 1
 436 547 421 529 409 529 c 2
EndSplineSet
EndChar

StartChar: degree
Encoding: 176 176 329
Width: 267
GlyphClass: 2
Flags: MW
LayerCount: 2
Fore
SplineSet
139 593 m 0
 148 648 201 692 256 692 c 0
 305 692 339 657 339 610 c 0
 339 604 339 599 338 593 c 0
 328 538 276 493 221 493 c 0
 171 493 137 528 137 575 c 0
 137 581 138 587 139 593 c 0
305 592 m 0
 305 596 306 601 306 605 c 0
 306 634 290 665 251 665 c 0
 208 665 178 627 172 592 c 0
 171 587 170 583 170 578 c 0
 170 548 189 521 226 521 c 0
 267 521 298 557 305 592 c 0
EndSplineSet
EndChar

StartChar: plusminus
Encoding: 177 177 330
Width: 527
GlyphClass: 2
Flags: MW
LayerCount: 2
Fore
SplineSet
473 67 m 1
 464 18 l 1
 69 18 l 1
 78 67 l 1
 473 67 l 1
349 341 m 1
 521 341 l 1
 513 292 l 1
 340 292 l 1
 310 119 l 1
 260 119 l 1
 291 292 l 1
 117 292 l 1
 126 341 l 1
 299 341 l 1
 330 515 l 1
 379 515 l 1
 349 341 l 1
EndSplineSet
EndChar

StartChar: uni00B2
Encoding: 178 178 331
Width: 307
GlyphClass: 2
Flags: MW
LayerCount: 2
Fore
SplineSet
188 587 m 0
 176 587 165 596 165 607 c 0
 165 608 165 610 166 611 c 0
 171 637 209 688 288 688 c 0
 333 688 381 672 381 623 c 0
 381 617 381 612 379 605 c 0
 371 559 331 526 267 486 c 0
 219 456 190 427 184 396 c 1
 265 396 l 2
 296 396 320 435 335 463 c 1
 358 458 l 1
 344 428 331 393 322 364 c 1
 116 364 l 1
 125 412 177 454 231 491 c 0
 284 527 310 550 320 604 c 0
 321 609 322 614 322 619 c 0
 322 654 295 664 279 664 c 0
 236 664 222 648 220 635 c 0
 218 626 221 619 219 611 c 0
 216 595 197 587 188 587 c 0
EndSplineSet
EndChar

StartChar: uni00B3
Encoding: 179 179 332
Width: 307
GlyphClass: 2
Flags: MW
LayerCount: 2
Fore
SplineSet
310 624 m 0
 310 628 311 631 311 635 c 0
 311 657 294 664 277 664 c 0
 257 664 221 654 215 629 c 0
 212 617 206 600 184 600 c 0
 165 600 164 615 164 618 c 0
 167 635 207 688 294 688 c 0
 341 688 368 670 368 640 c 0
 368 636 368 633 367 629 c 0
 361 600 335 577 303 561 c 1
 332 558 368 537 368 491 c 0
 368 486 367 479 366 473 c 0
 353 404 277 358 198 358 c 0
 162 358 115 373 115 393 c 0
 115 406 134 415 144 415 c 0
 157 415 162 408 167 401 c 0
 173 391 182 383 213 383 c 0
 232 383 292 396 306 465 c 0
 307 471 307 476 307 480 c 0
 307 523 262 529 240 529 c 0
 233 529 227 528 219 527 c 1
 222 551 l 1
 267 557 302 583 310 624 c 0
EndSplineSet
EndChar

StartChar: acute
Encoding: 180 180 333
Width: 341
GlyphClass: 2
Flags: MW
LayerCount: 2
Fore
SplineSet
299 703 m 1
 302 704 309 705 314 705 c 0
 342 705 353 694 359 687 c 0
 361 685 363 683 365 682 c 1
 365 671 l 1
 231 562 l 2
 213 547 206 542 199 542 c 0
 192 542 187 547 187 553 c 0
 187 558 189 567 197 577 c 2
 299 703 l 1
EndSplineSet
EndChar

StartChar: mu
Encoding: 181 181 334
Width: 485
GlyphClass: 2
Flags: MW
LayerCount: 2
Fore
SplineSet
135 357 m 2
 144 395 143 439 181 439 c 0
 213 439 223 429 223 412 c 0
 223 400 214 370 210 352 c 2
 163 147 l 2
 151 95 147.5 40 206 40 c 0
 253 40 308 121 382 247 c 1
 411 357 l 2
 421 395 419 439 457 439 c 0
 489 439 499 429 499 412 c 0
 499 400 489.6 369.9 486 352 c 2
 430 124 l 2
 424 98 419 76 419 67 c 0
 419 55 422 50 429 50 c 0
 439 50 468 70 494 100 c 1
 508 100 514 92 517 83 c 1
 471 24 426 -10 378 -10 c 0
 348 -10 341 4 341 23 c 0
 341 42 349 83 358 115 c 2
 369 154 l 1
 366 156 l 1
 295 52 245 -10 167 -10 c 0
 149 -10 133 0 125 13 c 1
 119 13 112 9 111 4 c 0
 105 -21 104 -46 104 -71 c 0
 104 -92 105 -112 105 -131 c 0
 105 -216.9 69.6 -234 46 -234 c 0
 33 -234 7 -216 7 -183 c 0
 7 -145.7 46.3 -73.9 62 -8 c 0
 69 25 72 76 85 134 c 2
 135 357 l 2
EndSplineSet
EndChar

StartChar: paragraph
Encoding: 182 182 335
Width: 602
GlyphClass: 2
Flags: MW
LayerCount: 2
Fore
SplineSet
370 -207 m 0
 399 -207 406 -187 414 -145 c 2
 538 556 l 2
 540 570 541 581 541 589 c 0
 541 614 531 615 519 616 c 1
 486 616 480 584 475 553 c 2
 352 -143 l 2
 350 -153 349 -164 349 -174 c 0
 349 -192 354 -207 370 -207 c 0
473 -144 m 2
 470 -159 469 -171 469 -179 c 0
 469 -202 479 -205 501 -206 c 1
 531 -206 l 2
 535 -206 536 -209 535 -213 c 2
 531 -234 l 1
 203 -234 l 1
 207 -213 l 2
 208 -208 210 -206 214 -206 c 2
 243 -206 l 1
 276 -205 284 -195 293 -143 c 2
 358 227 l 1
 343 220 311 215 279 215 c 0
 206 215 100 251 100 385 c 0
 100 402 101 420 104 439 c 0
 126 562 211 646 344 646 c 0
 419 646 479 641 506 641 c 0
 541 641 576 644 576 644 c 1
 687 646 l 1
 683 625 l 2
 682 621 680 618 676 618 c 2
 646 618 l 2
 611 618 604 602 596 556 c 2
 473 -144 l 2
EndSplineSet
EndChar

StartChar: periodcentered
Encoding: 183 183 336
Width: 250
GlyphClass: 2
Flags: MW
LayerCount: 2
Fore
SplineSet
178 199 m 0
 150 199 124 225 124 253 c 0
 124 281 150 307 178 307 c 0
 206 307 232 281 232 253 c 0
 232 225 206 199 178 199 c 0
EndSplineSet
EndChar

StartChar: cedilla
Encoding: 184 184 337
Width: 541
GlyphClass: 2
Flags: MW
LayerCount: 2
Fore
SplineSet
275 -80 m 0
 255 -80 246 -82 229 -86 c 1
 224 -80 l 1
 283 7 l 1
 317 7 l 1
 280 -51 l 1
 288 -49 297 -48 306 -48 c 0
 338 -48 365 -63 365 -95 c 0
 365 -146 307 -181 240 -181 c 0
 209 -181 192 -175 169 -164 c 1
 183 -146 l 1
 209 -155 216 -156 239 -156 c 0
 273 -156 310 -138 310 -106 c 0
 310 -90 295 -80 275 -80 c 0
EndSplineSet
EndChar

StartChar: uni00B9
Encoding: 185 185 338
Width: 307
GlyphClass: 2
Flags: MW
LayerCount: 2
Fore
SplineSet
248 621 m 0
 235 621 204 612 188 605 c 1
 184 632 l 1
 234 649 262 661 311 688 c 1
 327 688 l 1
 276 427 l 2
 271 405 280 390 294 390 c 2
 322 390 l 2
 325 390 328 389 327 385 c 2
 323 364 l 1
 323 364 271 365 237 365 c 0
 199 365 139 364 139 364 c 1
 143 385 l 2
 144 387 147 390 151 390 c 2
 187 390 l 2
 203 390 220 405 225 427 c 2
 254 579 l 2
 260 611 260 621 248 621 c 0
EndSplineSet
EndChar

StartChar: ordmasculine
Encoding: 186 186 339
Width: 349
GlyphClass: 2
Flags: MW
LayerCount: 2
Fore
SplineSet
123 484 m 1
 139 569 201 621 287 621 c 0
 385 621 409 557 396 490 c 0
 382 422 325 358 231 358 c 0
 157 358 108 412 123 484 c 1
276 596 m 0
 226 596 192 548 182 494 c 0
 172 445 187 386 247 386 c 0
 275 386 322 402 336 474 c 0
 351 554 326 596 276 596 c 0
EndSplineSet
EndChar

StartChar: guillemotright
Encoding: 187 187 340
Width: 464
GlyphClass: 2
Flags: MW
LayerCount: 2
Fore
SplineSet
390 215 m 1
 357 256 330 304 295 383 c 1
 329 407 l 1
 376 331 405 288 456 239 c 2
 456 239 467 228 473 223 c 1
 470 207 l 1
 462 202 446 191 446 191 c 1
 375 142 326 99 247 23 c 1
 224 47 l 1
 293 126 339 174 390 215 c 1
227 215 m 1
 194 256 167 304 132 383 c 1
 165 407 l 1
 212 331 241 288 292 239 c 2
 292 239 303 228 309 223 c 1
 306 207 l 1
 298 202 282 191 282 191 c 1
 211 142 162 99 83 23 c 1
 61 47 l 1
 130 126 176 174 227 215 c 1
EndSplineSet
EndChar

StartChar: onequarter
Encoding: 188 188 341
Width: 660
GlyphClass: 2
Flags: MW
LayerCount: 2
Fore
SplineSet
627 541 m 1
 668 533 l 1
 140 -42 l 1
 98 -34 l 1
 627 541 l 1
EndSplineSet
Refer: 1074 8308 N 1 0 0 1 267 -446 2
Refer: 338 185 N 1 0 0 1 -3 -49 2
LCarets2: 2 0 0
EndChar

StartChar: onehalf
Encoding: 189 189 342
Width: 660
GlyphClass: 2
Flags: MW
LayerCount: 2
Fore
SplineSet
607 541 m 1
 648 533 l 1
 120 -42 l 1
 78 -34 l 1
 607 541 l 1
EndSplineSet
Refer: 338 185 N 1 0 0 1 -1 -49 2
Refer: 331 178 N 1 0 0 1 278 -443 2
LCarets2: 2 0 0
EndChar

StartChar: threequarters
Encoding: 190 190 343
Width: 660
GlyphClass: 2
Flags: MW
LayerCount: 2
Fore
SplineSet
627 541 m 1
 668 533 l 1
 140 -42 l 1
 98 -34 l 1
 627 541 l 1
EndSplineSet
Refer: 1074 8308 N 1 0 0 1 241 -444 2
Refer: 332 179 N 1 0 0 1 -2 -51 2
LCarets2: 2 0 0
EndChar

StartChar: questiondown
Encoding: 191 191 344
Width: 405
GlyphClass: 2
Flags: MW
LayerCount: 2
Fore
SplineSet
349 397 m 0
 344 368 315 344 286 344 c 0
 260 344 241 363 241 388 c 0
 241 391 242 394 242 397 c 0
 248 426 276 450 305 450 c 0
 331 450 350 431 350 407 c 0
 350 403 349 400 349 397 c 0
285 -136 m 0
 288 -121 286 -115 283 -110 c 0
 280 -104 279 -99 281 -86 c 0
 285 -63 308 -51 327 -51 c 0
 341 -51 361 -57 361 -83 c 0
 361 -86 360 -90 360 -94 c 0
 353 -132 328 -160 294 -184 c 0
 260 -209 216 -223 163 -223 c 0
 73 -223 21 -176 21 -103 c 0
 21 -93 23 -83 24 -72 c 0
 38 7 105 52 158 88 c 0
 184 105 207 121 219 138 c 0
 237 163 247 187 251 211 c 2
 259 255 l 2
 260 262 265 265 273 265 c 0
 280 265 284 262 282 255 c 2
 274 209 l 2
 267 166 256 107 180 48 c 1
 134 11 107 -21 99 -68 c 0
 98 -77 97 -85 97 -94 c 0
 97 -148 128 -193 178 -193 c 0
 235 -193 280 -166 285 -136 c 0
EndSplineSet
EndChar

StartChar: Aring
Encoding: 197 197 350
Width: 667
GlyphClass: 2
Flags: MW
LayerCount: 2
Fore
SplineSet
490.2 773 m 0
 459.2 773 435 747 428.9 717 c 0
 423.2 689 436.5 661 467.5 661 c 0
 498.5 661 523.2 689 528.9 717 c 0
 535.2 748 520.2 773 490.2 773 c 0
391.9 717 m 0
 401.3 763 449.7 800 495.7 800 c 0
 541.7 800 575.5 764 565.9 717 c 0
 558.8 682.2 529.2 651.6 493.9 639.5 c 1
 494.7 636.1 495.3 632.2 496 628 c 2
 588 86 l 2
 594 47 610 32 648 28 c 2
 658 27 l 2
 663 27 666.5 24 666 19 c 2
 664 0 l 1
 662 -2 l 1
 627 -1 588 0 549 0 c 0
 512 0 458 -1 422 -2 c 1
 421 0 l 1
 423 19 l 2
 423.6 24.3 427 27 431 27 c 2
 459 29 l 2
 491.6 31.6 507.9 41.3 507.9 62.7 c 0
 507.9 65.6 507.6 68.7 507 72 c 2
 482 241 l 1
 282 241 l 2
 259 241 252 237 245 224 c 2
 161 79 l 2
 156.2 70.7 153.8 62.7 153.8 55.9 c 0
 153.8 41.1 165.3 31.1 190 29 c 2
 217 27 l 2
 221 27 223.5 24 223 19 c 2
 221 0 l 1
 218 -2 l 1
 183 -1 132 0 93 0 c 0
 56 0 40 -1 4 -2 c 1
 3 0 l 1
 6 19 l 2
 6.8 24.4 10 27 15 27 c 0
 57 30 85 40 122 102 c 2
 437 622 l 2
 440.1 627.2 442.9 631.7 445.5 635.6 c 1
 408.3 643.2 383.7 676.7 391.9 717 c 0
307 283 m 2
 474 283 l 1
 433 550 l 1
 431 550 l 1
 286 296 l 2
 284.5 293.6 283.8 291.6 283.8 289.9 c 0
 283.8 284.7 291.1 283 307 283 c 2
EndSplineSet
Position2: "'cpsp' Versalabstaende 1" dx=2 dy=0 dh=5 dv=0
EndChar

StartChar: AE
Encoding: 198 198 351
Width: 829
GlyphClass: 2
Flags: MW
AnchorPoint: "below" 549 -107 basechar 0
AnchorPoint: "cedilla" 549 4 basechar 0
AnchorPoint: "above" 615 850 basechar 0
LayerCount: 2
Fore
SplineSet
319 305 m 1
 471 305 l 1
 524 575 l 2
 526 587 527 596 523 598 c 1
 319 305 l 1
452 0 m 2
 418 0 328 -2 328 -2 c 1
 326 0 l 1
 330 18 l 2
 331 23 334 27 339 27 c 2
 365 29 l 2
 405 32 421 46 426 74 c 2
 464 266 l 1
 293 266 l 1
 155 68 l 2
 130 32 132 31 166 29 c 2
 193 27 l 2
 197 27 198 23 198 21 c 2
 194 0 l 1
 193 -2 l 1
 193 -2 128 0 90 0 c 0
 57 0 3 -2 3 -2 c 1
 2 0 l 1
 6 19 l 2
 7 24 11 26 17 27 c 2
 39 29 l 2
 76 32 84 40 115 85 c 2
 459 577 l 2
 475 601 458 615 439 616 c 2
 410 618 l 2
 404 618 403 621 404 625 c 2
 408 645 l 1
 410 646 l 1
 578 645 l 1
 652 645 l 1
 865 645 l 1
 860 591 857 532 856 491 c 1
 827 486 l 1
 819 555 813 605 740 605 c 2
 644 605 l 2
 621 605 605 584 601 561 c 2
 562 363 l 1
 660 363 l 2
 694 363 705 379 717 407 c 2
 729 437 l 2
 731 441 734 445 738 445 c 2
 759 445 l 2
 761 445 762 443 762 441 c 0
 754 416 742 379 735 346 c 1
 729 312 726 267 724 250 c 1
 722 247 l 1
 700 247 l 2
 694 247 693 250 693 254 c 2
 694 285 l 1
 693 313 686 329 653 329 c 2
 555 329 l 1
 506 74 l 2
 501 47 513 39 534 39 c 2
 659 39 l 2
 732 39 773 100 806 172 c 1
 834 167 l 1
 813 115 791 56 777 0 c 1
 452 0 l 2
EndSplineSet
Position2: "'cpsp' Versalabstaende 1" dx=2 dy=0 dh=5 dv=0
EndChar

StartChar: Ccedilla
Encoding: 199 199 352
Width: 616
GlyphClass: 2
Flags: MW
LayerCount: 2
Fore
SplineSet
332.5 -96 m 0
 313.5 -96 303.2 -97 286.2 -102 c 1
 281.5 -96 l 1
 334.8 -10 l 1
 162.7 -8.6 88.8 108.4 88.8 241.4 c 0
 88.8 265.6 91.2 290.3 96 315 c 0
 134 512 310 658 469 658 c 0
 587 658 616 616 670 613 c 1
 664 559 662 510 661 458 c 1
 632 454 l 1
 624 540 584 621 451 621 c 0
 375 621 223 537 183 334 c 0
 177.6 305.9 174.8 277.4 174.8 249.7 c 0
 174.8 133.4 224.7 31 345 31 c 0
 434 31 506 62 589 140 c 1
 600 140 605 134 608 125 c 1
 535.5 46.3 452.8 1.2 370.3 -8.2 c 1
 336.4 -67 l 1
 344.8 -65 354 -64 363 -64 c 0
 398.3 -64 422.7 -82.6 422.7 -113.1 c 0
 422.7 -167.1 359.6 -200 299.3 -200 c 0
 267.3 -200 251.6 -194 228.8 -183 c 1
 231.2 -171 235.7 -164 244.1 -157 c 1
 269.1 -167 279.2 -171 299.2 -171 c 0
 335.4 -171 359.5 -150.7 359.5 -120.3 c 0
 359.5 -105.4 351.3 -96 332.5 -96 c 0
EndSplineSet
Position2: "'cpsp' Versalabstaende 1" dx=2 dy=0 dh=5 dv=0
EndChar

StartChar: Eth
Encoding: 208 208 361
Width: 667
GlyphClass: 2
Flags: MW
LayerCount: 2
Fore
SplineSet
19 18 m 2
 20 23 24 27 28 27 c 2
 57 29 l 2
 91 31 110 42 116 74 c 2
 157.5 287 l 1
 67 287 l 1
 75 326 l 1
 165.1 326 l 1
 213 572 l 2
 214.3 578.9 215.1 584.8 215.1 589.6 c 0
 215.1 609.9 202.5 613.6 171 616 c 2
 145 618 l 2
 140 618 137 621 138 626 c 2
 141 645 l 1
 144 647 l 1
 189 646 228 645 265 645 c 0
 304 645 361 647 422 647 c 0
 583.2 647 693.7 529.5 693.7 375.3 c 0
 693.7 353.5 691.6 331 687 308 c 0
 640 62 449 -2 313 -2 c 0
 214 -2 177 0 140 0 c 0
 101 0 63 -1 18 -2 c 1
 16 0 l 1
 19 18 l 2
193 73 m 2
 192.1 68.2 191.5 64 191.5 60.2 c 0
 191.5 38.5 210 32 290 32 c 0
 425 32 555 82 594 284 c 0
 599.8 313.7 603 344.2 603 374.1 c 0
 603 499 546.1 613 379 613 c 0
 332 613 298 609 291 574 c 2
 242.5 326 l 1
 346 326 l 1
 338 287 l 1
 234.9 287 l 1
 193 73 l 2
EndSplineSet
Position2: "'cpsp' Versalabstaende 1" dx=2 dy=0 dh=5 dv=0
EndChar

StartChar: multiply
Encoding: 215 215 368
Width: 527
GlyphClass: 2
Flags: MW
LayerCount: 2
Fore
SplineSet
339 230 m 1
 439 108 l 1
 398 73 l 1
 298 195 l 1
 154 73 l 1
 125 108 l 1
 269 230 l 1
 168 353 l 1
 209 388 l 1
 310 265 l 1
 455 388 l 1
 483 353 l 1
 339 230 l 1
EndSplineSet
EndChar

StartChar: Oslash
Encoding: 216 216 369
Width: 668
GlyphClass: 2
Flags: MW
AnchorPoint: "cedilla" 350 0 basechar 0
AnchorPoint: "below" 310 -113 basechar 0
LayerCount: 2
Fore
SplineSet
727 670 m 1
 752 645 l 1
 664.6 553.3 l 1
 691.3 512.9 706.3 461.9 706.3 402.9 c 0
 706.3 379.5 704 354.8 699 329 c 0
 660 129 515 -10 331 -10 c 0
 269.3 -10 215.5 7.2 174.2 39 c 1
 96 -43 l 1
 70 -18 l 1
 147.7 63.3 l 1
 109.5 104.9 87.4 163.1 87.4 234.4 c 0
 87.4 258.2 89.9 283.4 95 310 c 0
 133 506 284 658 455 658 c 0
 532 658 597.7 630.5 642.6 581.6 c 1
 727 670 l 1
436 624 m 0
 349 624 227 537 187 327 c 0
 181.1 297.2 178.3 269.5 178.3 243.7 c 0
 178.3 196 187.7 155.3 204 122.4 c 1
 593.5 530.2 l 1
 563.6 592.5 507.4 624 436 624 c 0
607.2 493.2 m 1
 223.5 90.7 l 1
 256.5 47.2 304.4 24 357 24 c 0
 467 24 572 131 607 310 c 0
 614 346.5 617.3 379.9 617.3 410.1 c 0
 617.3 441.1 613.8 468.9 607.2 493.2 c 1
EndSplineSet
Position2: "'cpsp' Versalabstaende 1" dx=2 dy=0 dh=5 dv=0
EndChar

StartChar: Udieresis.alt
Encoding: 1114114 -1 373
Width: 634
GlyphClass: 2
Flags: MW
LayerCount: 2
Fore
SplineSet
305 -10 m 0
 220 -10 91 32 131 236 c 2
 195 563 l 2
 202 602 170 615 138 618 c 0
 133 618 130 622 131 627 c 2
 135 645 l 1
 137 647 l 1
 172 646 212 645 249 645 c 0
 288 645 305 646 329 647 c 0
 337 647 338 638 337 632 c 0
 335 622 330 620 322 618 c 0
 286 609 275 583 270 555 c 2
 214 269 l 2
 202 204 189 134 230 81 c 0
 252 52 288 31 334 31 c 0
 495 31 537 165 559 277 c 2
 610 540 l 2
 616 571 617 611 585 618 c 0
 575 620 571 624 573 631 c 0
 574 638 579 647 591 647 c 0
 615 646 630 645 652 645 c 0
 674 645 713 646 749 647 c 1
 750 645 l 1
 747 627 l 2
 745 620 737 619 721 618 c 0
 680 615 662 581 656 553 c 2
 606 295 l 2
 572 117 503 -10 305 -10 c 0
346 707 m 0
 346 733 367 754 393 754 c 0
 419 754 440 733 440 707 c 0
 440 681 419 660 393 660 c 0
 367 660 346 681 346 707 c 0
490 707 m 0
 490 733 511 754 537 754 c 0
 563 754 584 733 584 707 c 0
 584 681 563 660 537 660 c 0
 511 660 490 681 490 707 c 0
EndSplineSet
Position2: "'cpsp' Versalabstaende 1" dx=2 dy=0 dh=5 dv=0
EndChar

StartChar: Thorn
Encoding: 222 222 375
Width: 501
GlyphClass: 2
Flags: MW
LayerCount: 2
Fore
SplineSet
265 479 m 1
 208 188 l 1
 216 185 239 183 275 183 c 0
 345 183 426 214 451 343 c 0
 475 463 409 490 352 490 c 0
 334 490 286 485 265 479 c 1
206 575 m 2
 212 605 198 613 161 616 c 2
 136 618 l 2
 132 618 129 621 130 626 c 2
 134 645 l 1
 136 646 l 1
 136 646 219 645 257 645 c 0
 290 645 381 646 381 646 c 1
 382 645 l 1
 379 626 l 2
 378 621 374 618 370 618 c 2
 343 616 l 2
 304 613 289 603 283 575 c 2
 273 519 l 1
 307 521 341 521 359 521 c 0
 537 521 550 414 536 343 c 0
 521 268 445 152 274 152 c 0
 241 152 216 154 203 159 c 1
 186 72 l 2
 180 41 193 32 229 29 c 2
 255 27 l 2
 258 27 262 24 261 19 c 2
 257 0 l 1
 255 -2 l 1
 255 -2 172 0 134 0 c 0
 100 0 10 -2 10 -2 c 1
 8 0 l 1
 12 19 l 2
 13 24 17 27 21 27 c 2
 47 29 l 2
 87 32 102 44 108 72 c 2
 206 575 l 2
EndSplineSet
Position2: "'cpsp' Versalabstaende 1" dx=2 dy=0 dh=5 dv=0
EndChar

StartChar: germandbls
Encoding: 223 223 376
Width: 543
GlyphClass: 2
Flags: MW
LayerCount: 2
Fore
SplineSet
257 374 m 2
 204.8 137.4 176 -79 104 -182 c 0
 75 -222 40 -238 2 -238 c 0
 -67 -238 -82.2 -209 -82.2 -189.9 c 0
 -82.2 -175.1 -71.6 -158.1 -47.2 -158.1 c 0
 -27.1 -158.1 -12.9 -169.5 -4.8 -182.5 c 0
 3.1 -195.2 9 -205 22 -205 c 0
 40.1 -205 60.4 -186.3 72.2 -161 c 0
 100.5 -100.7 124.7 55.7 140 141 c 0
 152 208 165.2 287 184 379 c 1
 184 390 182 390 172 390 c 2
 131 390 l 2
 126 390 123 391.9 123 397 c 0
 123 405 129 429 153 429 c 0
 184 429 198 450 206 477 c 0
 250 639 341 698 446 698 c 0
 537 698 571 650 571 606 c 0
 571 524 489 459 415 411 c 1
 415 409 l 1
 472 364 543 307 543 216 c 0
 543 121 461 -10 340 -10 c 0
 274 -10 256 21 256 56 c 0
 256 110 278 122 297 122 c 0
 313 122 325 114 325 102 c 0
 325 67 303 62 303 45 c 0
 303 23 328 23 348 23 c 0
 396 23 451 121 451 202 c 0
 451 276 409 343 351 396 c 1
 354 409 l 1
 380 426 491 506 491 606 c 0
 491 643 472 666 430 666 c 0
 326 666 296 550 272 442 c 2
 257 374 l 2
EndSplineSet
EndChar

StartChar: ae
Encoding: 230 230 383
Width: 687
GlyphClass: 2
Flags: MW
AnchorPoint: "below" 327 -109 basechar 0
AnchorPoint: "ogonek" 604 30 basechar 0
AnchorPoint: "above" 480 645 basechar 0
LayerCount: 2
Fore
SplineSet
431 253 m 1
 541.3 259.3 651 269.4 651 347 c 0
 651 376 626 405 583 405 c 0
 515 405 458 338 431 253 c 1
348 215 m 1
 293.2 210.7 134 191.4 134 89 c 0
 134 56 155 32 208 32 c 0
 245 32 284 51 312 101 c 0
 322 119 336 165 348 215 c 1
368 334 m 0
 368 398.5 321.6 409 302 409 c 0
 268.8 409 205.4 397.1 205.4 349.3 c 0
 205.4 343.1 206.8 340.2 206.8 335.5 c 0
 206.8 311 184.4 292 158 292 c 0
 134 292 126 307 126 322 c 0
 126 385.7 221.9 439 312 439 c 0
 336 439 412 436 434 369 c 1
 477 414 535 439 592 439 c 0
 695 439 729 386 729 350 c 0
 729 244.4 568.6 225.9 421 218 c 1
 417 199 415 180 415 163 c 0
 415 87 455 39 517 39 c 0
 571 39 607 59 646 94 c 1
 660 84 l 1
 619 30 557 -10 491 -10 c 0
 400 -10 368 34 353 59 c 1
 314 18 252 -10 197 -10 c 0
 105 -10 60 26 60 81 c 0
 60 216.2 238.8 241.9 356 250 c 1
 364 288 368 312 368 334 c 0
EndSplineSet
EndChar

StartChar: ccedilla
Encoding: 231 231 384
Width: 389
GlyphClass: 2
Flags: MW
LayerCount: 2
Fore
SplineSet
211.5 -92 m 0
 192.5 -92 182.2 -93 165.2 -98 c 1
 160.5 -92 l 1
 211.3 -10 l 2
 210.5 -10 209.8 -10 209 -10 c 0
 168.4 -10 133.6 9.1 113 38 c 0
 89.5 70.9 83 115.9 83 149 c 0
 83 238.8 116.4 316.3 165.1 368.5 c 0
 206.5 412.9 271 439 311 439 c 0
 419.5 439 423 382 423 343 c 0
 423 318 398 298 371 298 c 0
 354 298 344 314 344 330 c 0
 344 336 346.4 346.7 349 351 c 0
 352 356 354 364 354 370 c 0
 354 403 326 408 312 408 c 0
 235 408 165 320 165 171 c 0
 165 110.6 175.1 91.2 190 72 c 0
 204.4 53.4 223.3 49 240 49 c 0
 293 49 333 81.5 372 125.5 c 1
 381 125.5 391 118.5 394 108.5 c 1
 355.1 54.1 305 10 249 -4.7 c 1
 215.4 -63 l 1
 223.8 -61 233 -60 242 -60 c 0
 277.3 -60 301.7 -78.6 301.7 -109.1 c 0
 301.7 -163.1 238.6 -196 178.3 -196 c 0
 146.3 -196 130.6 -190 107.8 -179 c 1
 110.2 -167 114.7 -160 123.1 -153 c 1
 148.1 -163 158.2 -167 178.2 -167 c 0
 214.4 -167 238.5 -146.7 238.5 -116.3 c 0
 238.5 -101.4 230.3 -92 211.5 -92 c 0
EndSplineSet
EndChar

StartChar: eth
Encoding: 240 240 393
Width: 478
GlyphClass: 2
Flags: MW
LayerCount: 2
Fore
SplineSet
82 208 m 0
 122 381 260 442 342 442 c 0
 368 442 394 438 416 428 c 1
 406 481 387 532 360 578 c 1
 234 505 l 1
 220 537 l 1
 341 607 l 1
 329 624 l 1
 312 646 294 665 275 682 c 1
 295 703 l 1
 326 684 357 661 385 633 c 1
 508 704 l 1
 522 672 l 1
 410 606 l 1
 424 589 l 1
 473 524 507 442 507 343 c 0
 507 310 503 274 494 237 c 0
 455 68 333 -12 220 -12 c 0
 119 -12 75 64 75 149 c 0
 75 168 78 188 82 208 c 0
246 27 m 0
 293 27 373 61 410 223 c 0
 419 263 424 304 424 343 c 0
 424 349 423 354 423 359 c 1
 407 388 375 407 333 407 c 0
 231 407 181 301 164 225 c 0
 158 201 155 178 155 157 c 0
 155 79 191 27 246 27 c 0
EndSplineSet
EndChar

StartChar: oslash
Encoding: 248 248 395
Width: 447
GlyphClass: 2
Flags: MW
AnchorPoint: "ogonek" 371 44 basechar 0
AnchorPoint: "cedilla" 230.4 -3 basechar 0
AnchorPoint: "below" 186.2 -107 basechar 0
LayerCount: 2
Fore
SplineSet
470 477 m 1
 503 453 l 1
 443.6 379.9 l 1
 460.9 349.2 465 311.1 465 277 c 0
 465 158.8 397.1 52.9 310 9 c 0
 280.6 -5.8 250.3 -10 218 -10 c 0
 186.3 -10 161.7 -2.6 142.6 9.4 c 1
 96 -48 l 1
 63 -21 l 1
 111.5 38.3 l 1
 82.4 77.4 78 131 78 162 c 0
 78 282 157 439 324 439 c 0
 366 439 395.7 428.5 416.7 411.8 c 1
 470 477 l 1
380.8 302.5 m 1
 184.8 61.3 l 1
 199.4 37.1 218 27 233 27 c 0
 270.5 27 311 45 339 88 c 0
 375.5 144 382 230.4 382 270 c 0
 382 280.4 381.7 291.4 380.8 302.5 c 1
369.9 354.5 m 1
 368.9 357.1 367.7 359.6 366.5 362 c 0
 352.3 390.1 336 406 306 406 c 0
 200 406 161 260 161 170 c 0
 161 145.3 163.4 124.3 167.4 106.7 c 1
 369.9 354.5 l 1
EndSplineSet
EndChar

StartChar: thorn
Encoding: 254 254 398
Width: 500
GlyphClass: 2
Flags: MW
AnchorPoint: "above" 278 646 basechar 0
LayerCount: 2
Fore
SplineSet
53 -161 m 2
 162 312 l 1
 131 287 105 261 85 233 c 1
 66 246 l 1
 89 285 130 323 172 356 c 1
 221 563 l 2
 226.1 584.8 228 602 228 613 c 0
 228 635 220 641 207 641 c 2
 176 643 l 2
 172 643 171 645 171 648 c 2
 174 672 l 1
 215 675 287 688 314 698 c 1
 323 698 326 695 326 688 c 1
 326 688 315.5 647.9 301 583 c 2
 261 404 l 1
 303 428 343 439 390 439 c 0
 471 439 524 378 524 289 c 0
 524 177 417 -10 256 -10 c 0
 206 -10 177 18 172 23 c 1
 128 -161 l 2
 119.9 -194.9 145.8 -199.6 161 -202 c 2
 180 -205 l 2
 183.9 -205.6 186 -208 186 -213 c 2
 186 -233 l 1
 184 -235 l 1
 184 -235 116 -233 77 -233 c 0
 41 -233 -27 -239 -27 -239 c 1
 -29 -237 l 1
 -29 -218 l 2
 -29 -212 -23.9 -210.8 -19 -210 c 2
 0 -207 l 2
 32.3 -201.9 46.6 -188.9 53 -161 c 2
442 273 m 0
 442 322 425 392 357 392 c 0
 315 392 274 377 251 365 c 1
 182 67 l 1
 199 39 225 25 258 25 c 0
 395 25 442 195 442 273 c 0
EndSplineSet
EndChar

StartChar: Aogonek
Encoding: 260 260 404
Width: 695
GlyphClass: 2
Flags: MW
LayerCount: 2
Fore
SplineSet
309 283 m 2
 487 283 l 1
 436 550 l 1
 288 301 l 2
 286 297 285 295 285 292 c 0
 285 287 292 283 309 283 c 2
686 -1 m 2
 602 -1 535 -76 535 -129 c 0
 535 -156 552 -176 584 -176 c 0
 614 -176 637 -161 660 -141 c 1
 673 -148 l 1
 642 -195 587 -215 552 -215 c 0
 504 -215 472 -191 472 -147 c 0
 472 -93 523 -32 593 1 c 1
 585 1 578 1 572 1 c 0
 536 1 438 -1 438 -1 c 1
 437 1 l 1
 440 20 l 2
 441 25 444 28 449 28 c 2
 477 28 l 2
 507 28 529 38 529 61 c 0
 529 65 529 68 528 72 c 2
 495 244 l 1
 285 244 l 2
 260 244 252 238 245 227 c 2
 153 72 l 2
 149 65 145 56 145 49 c 0
 145 35 160 28 187 28 c 2
 216 28 l 2
 220 28 223 25 223 20 c 1
 219 1 l 1
 217 -1 l 1
 217 -1 119 1 94 1 c 0
 69 1 4 -1 4 -1 c 1
 2 1 l 1
 6 20 l 2
 7 25 10 28 15 28 c 2
 27 28 l 2
 68 28 89 47 109 81 c 2
 439 628 l 2
 454 653 464 662 473 662 c 0
 489 662 496 654 501 628 c 2
 610 86 l 2
 618 47 634 28 674 28 c 2
 685 28 l 2
 689 28 693 24 693 20 c 2
 690 1 l 1
 687 -1 l 1
 686 -1 l 2
EndSplineSet
Position2: "'cpsp' Versalabstaende 1" dx=2 dy=0 dh=5 dv=0
EndChar

StartChar: aogonek
Encoding: 261 261 405
Width: 486
GlyphClass: 2
Flags: MW
LayerCount: 2
Fore
SplineSet
333 88 m 2
 349 142 l 1
 347 144 l 1
 287 55 228 -12 175 -12 c 0
 91 -12 78 69 78 125 c 0
 78 282 223 442 330 442 c 0
 370 442 386 439 413 436 c 1
 433 431 458 431 483 431 c 1
 415 118 l 2
 410 99 403 66 403 57 c 0
 403 45 414 43 416 43 c 0
 418 43 421 44 423 45 c 2
 431 50 l 2
 443 58 458 75 477 98 c 1
 496 87 l 1
 472 55 458 37 435 17 c 0
 418 2 330 -73 330 -123 c 0
 330 -145 349 -167 382 -167 c 0
 412 -167 430 -153 456 -131 c 1
 470 -138 l 1
 433 -183 393 -206 352 -206 c 0
 304 -206 269 -182 269 -138 c 0
 269 -91 308 -45 349 -9 c 1
 330 -2 325 18 325 33 c 0
 325 52 327 68 333 88 c 2
360 219 m 1
 385 283 398 392 398 392 c 1
 379 404 354 411 333 411 c 0
 241 411 158 247 158 141 c 0
 158 85 168 43 202 43 c 0
 234 43 311 129 360 219 c 1
EndSplineSet
EndChar

StartChar: Dcroat
Encoding: 272 272 416
Width: 667
GlyphClass: 2
Flags: MW
LayerCount: 2
Fore
SplineSet
19 18 m 2
 20 23 24 27 28 27 c 2
 57 29 l 2
 91 31 110 42 116 74 c 2
 157.5 287 l 1
 78 287 l 1
 86 327 l 1
 165.3 327 l 1
 213 572 l 2
 214.3 578.9 215.1 584.8 215.1 589.6 c 0
 215.1 609.9 202.5 613.6 171 616 c 2
 145 618 l 2
 140 618 137 621 138 626 c 2
 141 645 l 1
 144 647 l 1
 189 646 228 645 265 645 c 0
 304 645 361 647 422 647 c 0
 583.2 647 693.7 529.5 693.7 375.3 c 0
 693.7 353.5 691.6 331 687 308 c 0
 640 62 449 -2 313 -2 c 0
 214 -2 177 0 140 0 c 0
 101 0 63 -1 18 -2 c 1
 16 0 l 1
 19 18 l 2
193 73 m 2
 192.1 68.2 191.5 64 191.5 60.2 c 0
 191.5 38.5 210 32 290 32 c 0
 425 32 555 82 594 284 c 0
 599.8 313.7 603 344.2 603 374.1 c 0
 603 499 546.1 613 379 613 c 0
 332 613 298 609 291 574 c 2
 242.7 327 l 1
 400 327 l 1
 392 287 l 1
 234.9 287 l 1
 193 73 l 2
EndSplineSet
Position2: "'cpsp' Versalabstaende 1" dx=2 dy=0 dh=5 dv=0
EndChar

StartChar: dcroat
Encoding: 273 273 417
Width: 489
GlyphClass: 2
Flags: MW
LayerCount: 2
Fore
SplineSet
585 572 m 1
 576 533 l 1
 510.6 533 l 1
 416 120 l 2
 412 101 406 73 406 64 c 0
 406 52 415 50 418 50 c 0
 428 50 447 66 474 103 c 1
 487 103 491.8 95.5 497 87 c 1
 471 30 431 -10 369 -10 c 0
 335 -10 328 16 328 35 c 0
 328 47 332 66 338 90 c 2
 345 116 l 1
 342 118 l 1
 282 30 235 -10 183 -10 c 0
 95 -10 81 79 81 134 c 0
 81 291 218 439 325 439 c 0
 363 439 392 414 404 384 c 1
 405 384 l 1
 435.8 533 l 1
 302 533 l 1
 311 572 l 1
 443.8 572 l 1
 447.2 589.6 449 603.6 449 613 c 0
 449 635 441 641 428 641 c 2
 397 643 l 2
 393 643 392 645 392 648 c 2
 395 672 l 1
 436 675 508 688 535 698 c 1
 544 698 547 695 547 688 c 1
 547 688 537 648 522 583 c 2
 519.5 572 l 1
 585 572 l 1
345 194 m 0
 374 247 391 293 391 316 c 0
 391 351 366 403 328 403 c 0
 236 403 161 256 161 150 c 0
 161 94 168 36 200 36 c 0
 239 36 296 104 345 194 c 0
EndSplineSet
EndChar

StartChar: dotlessi
Encoding: 305 305 421
Width: 276
GlyphClass: 2
Flags: MW
AnchorPoint: "below" 139 -108 basechar 0
AnchorPoint: "above" 267 645 basechar 0
LayerCount: 2
Fore
SplineSet
245.3 320.2 m 2
 200 124 l 2
 194.1 98.4 189 76 189 67 c 0
 189 55 191.9 50 199 50 c 0
 209 50 238 70 264 100 c 1
 278 100 284 92 287 83 c 1
 241 24 196 -10 148 -10 c 0
 118 -10 107 4 107 23 c 0
 107 42 117 83 124 115 c 2
 171 321 l 2
 177.7 349 180 362.9 180 372 c 0
 180 382 174 391 162 392 c 2
 122 395 l 1
 116 404 114.3 415 121 423 c 1
 168 429 213 436 245 436 c 0
 258.2 436 265.5 428.6 265.5 414.9 c 0
 265.5 397.8 254.3 359.3 245.3 320.2 c 2
EndSplineSet
EndChar

StartChar: ij
Encoding: 307 307 423
Width: 504
GlyphClass: 2
Flags: MW
LayerCount: 2
Fore
SplineSet
123 115 m 2
 170 321 l 2
 176 349 179 362.9 179 372 c 0
 179 382 173 391 161 392 c 2
 121 395 l 1
 115 404 113.3 415 120 423 c 1
 167 429 212 436 244 436 c 0
 257.2 436 264.5 428.6 264.5 414.9 c 0
 264.5 397.8 253 359 244.3 320.2 c 2
 199.3 124 l 2
 184.6 59.9 202 42 233 42 c 0
 282.8 42 345.6 145.3 413.3 258.8 c 1
 427 321 l 2
 433 349 435 362.9 435 372 c 0
 435 382 429 391 417 392 c 2
 377 395 l 1
 371 404 369.3 415 376 423 c 1
 423 430 468 436 500 436 c 0
 513.2 436 520.5 428.6 520.5 414.9 c 0
 520.5 402 510 360 501.3 320.2 c 2
 483 234 l 2
 431.5 -9.10001 379 -196 254 -196 c 0
 210 -196 172 -180 172 -148 c 0
 172 -126.9 187.8 -117 201 -117 c 0
 250.3 -117 244.8 -160 272 -160 c 0
 290 -160 324 -142 346 -56 c 0
 363.5 12.3 372.7 72.9 392.3 163.4 c 1
 322.2 60.8 270.3 -10 191 -10 c 0
 139.4 -10 102 23 123 115 c 2
EndSplineSet
Refer: 675 775 N 1 0 0 1 559 -34 2
Refer: 675 775 N 1 0 0 1 308 -34 2
LCarets2: 1 255
EndChar

StartChar: Jcircumflex
Encoding: 308 308 424
Width: 367
GlyphClass: 2
Flags: MW
LayerCount: 2
Fore
SplineSet
337 805 m 1
 358 769 386 738 416 711 c 1
 396 690 l 1
 360 708 331 727 303 752 c 1
 261 725 224 707 182 690 c 1
 173 711 l 1
 216 739 256 771 294 805 c 1
 337 805 l 1
388 580 m 1
 381 539 360 386 360 360 c 0
 360 338 373 336 406 333 c 1
 403 308 l 1
 350 303 l 1
 321 128 l 2
 280 -120 141 -166 85 -166 c 0
 39 -166 -4 -141 -4 -108 c 0
 -4 -94 7 -79 23 -79 c 0
 45 -79 61 -91 70 -109 c 0
 76 -121 87 -130 99 -130 c 0
 157 -130 206 -76 237 106 c 2
 270 302 l 1
 147 311 l 1
 147 331 l 1
 276 338 l 1
 278 350 l 2
 295 451 307 495 340 567 c 1
 339 571 l 1
 335 569 330 568 323 568 c 0
 306 568 284 574 270 580 c 0
 225 598 193 622 150 622 c 0
 128 622 113 607 113 594 c 0
 113 584 146 570 146 545 c 0
 146 524 133 514 112 514 c 0
 87 514 75 532 75 558 c 0
 75 598 111 663 208 663 c 0
 252 663 313 633 356 613 c 1
 360 638 379 677 413 677 c 0
 434 677 449 670 449 649 c 0
 449 625 416 598 388 580 c 1
EndSplineSet
Position2: "'cpsp' Versalabstaende 1" dx=2 dy=0 dh=5 dv=0
EndChar

StartChar: kgreenlandic
Encoding: 312 312 428
Width: 506
GlyphClass: 2
Flags: MW
AnchorPoint: "below" 226 -108 basechar 0
AnchorPoint: "cedilla" 134 9 basechar 0
AnchorPoint: "above" 373 644 basechar 0
LayerCount: 2
Fore
SplineSet
158.9 322 m 2
 165 350 168 362.9 168 372 c 0
 168 382 162 391 150 392 c 2
 110 395 l 1
 104 404 102.3 415 109 423 c 1
 156 429 203 436 235 436 c 0
 248.2 436 255.5 428.6 255.5 414.9 c 0
 255.5 397.8 242 359 233.3 320.2 c 2
 215 241 l 1
 236 241 250 256 264 271.7 c 1
 330 337 l 2
 395 401 453 439 485 439 c 0
 512 439 534 432 534 404 c 0
 534 373 502 354 488 354 c 0
 454 354 458 368 432 368 c 0
 412 368 393 356 346 306 c 2
 295 252 l 1
 394 80 l 2
 413 47 411 36 425 36 c 0
 436 36 460 51 476 76 c 1
 487 76 494 70 501 62 c 1
 478 18 442 -10 395 -10 c 0
 363 -10 354 8 320 65 c 2
 244 193 l 2
 242 198.1 233.3 205.3 224.4 205.3 c 0
 210.5 205.3 210 197 203 187 c 1
 176.9 72 l 2
 168 35 169 -10 131 -10 c 0
 99.2 -10 90.1 0.5 90.1 17.2 c 0
 90.1 27 98 52 102.8 72 c 2
 158.9 322 l 2
EndSplineSet
EndChar

StartChar: ldot
Encoding: 320 320 436
Width: 319
GlyphClass: 2
Flags: MW
LayerCount: 2
Fore
SplineSet
271 360 m 0
 271 385 293 409 319 409 c 0
 343 409 367 387 367 360 c 0
 367 335 346 313 319 313 c 0
 290 313 271 336 271 360 c 0
EndSplineSet
Refer: 294 108 N 1 0 0 1 0 0 2
EndChar

StartChar: Lslash
Encoding: 321 321 437
Width: 519
GlyphClass: 2
Flags: MW
LayerCount: 2
Fore
SplineSet
393 449 m 1
 404 419 l 1
 244 334.2 l 1
 196 89 l 2
 195.1 84.2 194.6 79.8 194.6 75.6 c 0
 194.6 52.6 208.3 39 232 39 c 2
 342 39 l 2
 415 39 461 108.7 489 170 c 1
 498.7 172.3 511 168.7 517 163 c 1
 496 111 474 54 459 -2 c 1
 459 -2 371 0 345 0 c 2
 142 0 l 2
 103 0 67 -1 22 -2 c 1
 18 7 20 23 24 27 c 1
 55 30 l 2
 95.7 33.9 111.6 48 117 76 c 2
 158.4 288.8 l 1
 74 244 l 1
 63 275 l 1
 166.4 329.5 l 1
 213 569 l 2
 218.8 598.8 207.9 611.6 169 615 c 2
 135 618 l 1
 132 623 135 643 138 647 c 1
 182 646 227 645 265 645 c 0
 304 645 340 646 385 647 c 1
 389 638 387 622 383 618 c 1
 352 615 l 2
 311 611 295.5 597.1 290 569 c 2
 251.9 374.6 l 1
 393 449 l 1
EndSplineSet
Position2: "'cpsp' Versalabstaende 1" dx=2 dy=0 dh=5 dv=0
EndChar

StartChar: lslash
Encoding: 322 322 438
Width: 266
GlyphClass: 2
Flags: MW
LayerCount: 2
Fore
SplineSet
321 438 m 1
 330 408 l 1
 235.2 356.1 l 1
 184 127 l 2
 175 87 172 72 172 64 c 0
 172 56 176 50 184 50 c 0
 196 50 228 72 258 108 c 1
 271 108 276 101 280 91 c 1
 234.5 15.5 180.2 -10 135 -10 c 0
 97.5 -10 93 15 93 34 c 0
 93 53 99.9 87 107 119 c 2
 149.4 309.1 l 1
 78 270 l 1
 69 299 l 1
 158.1 348.1 l 1
 206 563 l 2
 210.9 584.8 213 602 213 613 c 0
 213 635 205 641 192 641 c 2
 161 643 l 2
 157 643 156 645 156 648 c 2
 159 672 l 1
 200 675 272 688 299 698 c 1
 308 698 311 695 311 688 c 1
 311 688 300.5 647.9 286 583 c 2
 244.1 395.6 l 1
 321 438 l 1
EndSplineSet
EndChar

StartChar: Eng
Encoding: 330 330 446
Width: 628
GlyphClass: 2
UnlinkRmOvrlpSave: 1
Flags: MW
AnchorPoint: "below" 364 -109 basechar 0
AnchorPoint: "cedilla" 124 -3 basechar 0
AnchorPoint: "above" 346 804 basechar 0
LayerCount: 2
Fore
SplineSet
608 128 m 2
 563 -110 477 -200 367 -200 c 3
 321 -200 271 -177 271 -141 c 3
 271 -126 282 -101 309 -101 c 3
 331 -101 344 -107 356 -124 c 0
 369 -143 365 -165 381 -165 c 3
 446 -165 490 -67 524 106 c 2
 577 376 l 2
 584 411 589 449 589 484 c 3
 589 560 554 584 498 584 c 3
 410 584 353 525 218 328 c 1
 186 350 l 1
 328 579 430 655 536 655 c 3
 609 655 668 637 668 499 c 3
 668 472 667 442 661 409 c 2
 608 128 l 2
213 569 m 2
 214 574 214 578 214 582 c 3
 214 602 201 612 169 615 c 2
 135 618 l 1
 134 619 134 622 134 625 c 3
 134 633 136 644 138 647 c 1
 182 646 227 645 265 645 c 3
 278 645 291 646 306 647 c 1
 193 76 l 2
 192 71 191 66 191 62 c 3
 191 42 205 33 237 30 c 2
 271 27 l 1
 272 26 272 23 272 20 c 3
 272 12 270 1 268 -2 c 1
 224 -1 179 0 141 0 c 3
 102 0 66 -1 21 -2 c 1
 19 1 19 6 19 10 c 3
 19 17 21 25 23 27 c 1
 54 30 l 2
 95 34 110 48 116 76 c 2
 213 569 l 2
EndSplineSet
Position2: "'cpsp' Versalabstaende 1" dx=2 dy=0 dh=5 dv=0
EndChar

StartChar: eng
Encoding: 331 331 447
Width: 489
GlyphClass: 2
Flags: MW
AnchorPoint: "below" 265 -111 basechar 0
AnchorPoint: "cedilla" 128 9 basechar 0
AnchorPoint: "above" 264 646 basechar 0
LayerCount: 2
Fore
SplineSet
305 -170 m 0
 323 -142 354 -62 376 26 c 0
 399 117 415 220 415 287 c 3
 415 357 394 380 370 380 c 3
 334 380 279 320 216 238 c 1
 178 72 l 2
 169 34 170 -10 132 -10 c 3
 100 -10 89 0 89 17 c 3
 89 27 97 52 102 72 c 2
 158 321 l 2
 164 349 167 363 167 372 c 3
 167 382 161 391 149 392 c 2
 109 395 l 1
 106 400 104 406 104 411 c 3
 104 415 105 419 108 423 c 1
 155 429 202 436 234 436 c 3
 247 436 254 429 254 415 c 3
 254 398 242 359 232 320 c 2
 230 311 l 1
 231 310 l 1
 323 418 366 439 418 439 c 3
 462 439 494 398 494 304 c 3
 494 249 480 134 448 28 c 0
 422 -57 389 -125 356 -170 c 0
 332 -204 281 -233 240 -233 c 3
 172 -233 148 -209 148 -187 c 3
 148 -170 157 -151 185 -151 c 3
 204 -151 223 -166 231 -178 c 0
 238 -190 243 -200 259 -200 c 3
 274 -200 294 -187 305 -170 c 0
EndSplineSet
EndChar

StartChar: OE
Encoding: 338 338 454
Width: 813
GlyphClass: 2
Flags: MW
AnchorPoint: "above" 575 850 basechar 0
LayerCount: 2
Fore
SplineSet
328 32 m 2
 340 32 l 2
 379 32 392 44 397 72 c 2
 495 574 l 2
 501 605 489 611 453 611 c 2
 419 611 l 2
 326 611 232 541 190 327 c 0
 150 120 229 32 328 32 c 2
323 -2 m 1
 143 -1 66 138 101 318 c 0
 136 498 260 646 439 646 c 1
 439 646 505 645 548 645 c 2
 623 645 l 1
 869 645 l 1
 856 506 l 1
 829 503 l 1
 831 546 810 605 760 605 c 2
 613 605 l 2
 590 605 577 597 572 573 c 2
 532 366 l 1
 633 366 l 2
 667 366 678 382 690 410 c 2
 703 440 l 2
 704 444 707 448 711 448 c 2
 732 448 l 2
 734 448 735 446 734 444 c 0
 726 412 715 382 708 349 c 0
 701 314 701 285 697 253 c 1
 695 250 l 1
 673 250 l 2
 668 250 666 253 666 257 c 2
 667 288 l 1
 666 316 659 332 626 332 c 2
 525 332 l 1
 475 72 l 2
 470 45 482 39 503 39 c 2
 654 39 l 2
 716 39 754 92 783 165 c 1
 808 160 l 1
 752 0 l 1
 422 0 l 2
 384 0 323 -2 323 -2 c 1
EndSplineSet
Position2: "'cpsp' Versalabstaende 1" dx=2 dy=0 dh=5 dv=0
EndChar

StartChar: oe
Encoding: 339 339 455
Width: 705
GlyphClass: 2
Flags: MW
AnchorPoint: "above" 480 645 basechar 0
AnchorPoint: "ogonek" 361 41 basechar 0
LayerCount: 2
Fore
SplineSet
162 171 m 0
 162 43 209 25 239 25 c 0
 352 25 377 206 377 271 c 0
 377 332 374 404 303 404 c 0
 188 404 162 261 162 171 c 0
78 163 m 0
 78 283 154 439 321 439 c 0
 400.8 439 434.8 401 448.8 354.5 c 1
 488.5 404.3 546.3 439 625 439 c 0
 697 439 720 390 720 365 c 0
 720 327 724 250 463 199 c 1
 462 191 462 170 462 165 c 0
 462 74 493 50 538 50 c 0
 586 50 609 59 666 117 c 1
 678 117 684 112 689 101 c 1
 630 25 569 -10 502 -10 c 0
 442.7 -10 405.4 24.1 388.9 74.6 c 1
 346.4 22.4 287.9 -10 224 -10 c 0
 111 -10 78 110 78 163 c 0
651 370 m 0
 651 399 638 408 602 408 c 0
 560.1 408 505.1 378.5 469.8 237.4 c 1
 545.8 247.2 651 280.3 651 370 c 0
EndSplineSet
EndChar

StartChar: Scedilla
Encoding: 350 350 466
Width: 454
GlyphClass: 2
Flags: MW
LayerCount: 2
Fore
SplineSet
493 626 m 1
 490 572 485 545 485 497 c 1
 454 499 l 1
 448 565 435 624 343 624 c 0
 280 624 228 583 216 522 c 0
 214.6 514.8 214 508 214 501.5 c 0
 214 432.6 286.9 391.3 320 376 c 0
 387 345 455.8 300.5 455.8 211.6 c 0
 455.8 200 454.5 187.4 452 174 c 0
 434.5 84.6 350.9 10.5 255.8 -6.4 c 1
 219 -64 l 1
 227 -62 236 -61 245 -61 c 0
 277 -61 304 -76 304 -108 c 0
 304 -159 246 -194 179 -194 c 0
 148 -194 131 -188 108 -177 c 1
 122 -159 l 1
 148 -168 155 -169 178 -169 c 0
 212 -169 249 -151 249 -119 c 0
 249 -103 234 -93 214 -93 c 0
 194 -93 185 -95 168 -99 c 1
 163 -93 l 1
 219.3 -10 l 1
 217.9 -10 216.4 -10 215 -10 c 0
 134 -10 109 5 51 5 c 1
 59 56 61 89 64 165 c 1
 94 168 l 1
 95 68 145 26 230 26 c 0
 303 26 352 58 368 139 c 0
 370.6 152.7 371.9 165 371.9 176.1 c 0
 371.9 236.2 335 268 289 291 c 0
 219.1 326 141.8 373.3 141.8 461.9 c 0
 141.8 472.3 142.8 483.3 145 495 c 0
 166 601 275 658 359 658 c 0
 448 658 442 634 493 626 c 1
EndSplineSet
Position2: "'cpsp' Versalabstaende 1" dx=2 dy=0 dh=5 dv=0
EndChar

StartChar: scedilla
Encoding: 351 351 467
Width: 353
GlyphClass: 2
Flags: MW
LayerCount: 2
Fore
SplineSet
167 -90 m 0
 147 -90 138 -92 121 -96 c 1
 116 -90 l 1
 170.4 -9.8 l 1
 103.4 -4.7 59 31.6 59 68 c 0
 59 79 67 103 96 103 c 0
 126 103 140 73 143 50 c 0
 146 28 160 23 186 23 c 0
 231 23 271 42 271 97 c 0
 271 118 263 151 210 187 c 0
 145 231 123 274 123 314 c 0
 123 375 176 439 263 439 c 0
 325 439 377 395 377 359 c 0
 377 343 369 325 341 325 c 0
 315 325 298 353 295 377 c 0
 292 398 275 406 250 406 c 0
 207 406 187 370 187 335 c 0
 187 310 197 292 227 272 c 0
 319 211 346 165 346 118 c 0
 346 48.1 293.3 -4 204.8 -9.5 c 1
 172 -61 l 1
 180 -59 189 -58 198 -58 c 0
 230 -58 257 -73 257 -105 c 0
 257 -156 199 -191 132 -191 c 0
 101 -191 84 -185 61 -174 c 1
 75 -156 l 1
 101 -165 108 -166 131 -166 c 0
 165 -166 202 -148 202 -116 c 0
 202 -100 187 -90 167 -90 c 0
EndSplineSet
EndChar

StartChar: uni0162
Encoding: 354 354 470
Width: 544
GlyphClass: 2
Flags: MW
LayerCount: 2
Fore
SplineSet
229 645 m 2
 563 645 l 2
 598.8 645 612 652.5 645 658 c 1
 642.5 618 645 575 656 518 c 1
 644.3 513.3 636 513 626 513 c 1
 609 580 594 606 542 606 c 2
 488 606 l 2
 454 606 441 598 434 564 c 2
 339 76 l 2
 333.1 45.6 344.1 33.4 383 30 c 2
 417 27 l 1
 420 22 417 2 414 -2 c 1
 383.2 -1.3 351.8 -0.6 322.8 -0.2 c 1
 293 -47 l 1
 301 -45 310 -44 319 -44 c 0
 351 -44 378 -59 378 -91 c 0
 378 -142 320 -177 253 -177 c 0
 222 -177 205 -171 182 -160 c 1
 196 -142 l 1
 222 -151 229 -152 252 -152 c 0
 286 -152 323 -134 323 -102 c 0
 323 -86 308 -76 288 -76 c 0
 268 -76 259 -78 242 -82 c 1
 237 -76 l 1
 288.5 -0 l 2
 288 0 287.5 0 287 0 c 0
 248 0 212 -1 167 -2 c 1
 163 7 165 23 169 27 c 1
 200 30 l 2
 241 34 256 48 262 76 c 2
 357 567 l 2
 361.8 595.9 356.4 606 317 606 c 2
 248 606 l 2
 195 606 170 586 141 520.5 c 1
 132 520.5 118.6 522.7 111 527.5 c 1
 133 580.5 145 609 158 658 c 1
 181.5 654 202.9 645 229 645 c 2
EndSplineSet
Position2: "'cpsp' Versalabstaende 1" dx=2 dy=0 dh=5 dv=0
EndChar

StartChar: uni0163
Encoding: 355 355 471
Width: 307
GlyphClass: 2
Flags: MW
LayerCount: 2
Fore
SplineSet
186 429 m 1
 199 479 l 2
 208.6 516 207 561 243 561 c 0
 275 561 283 551 283 534 c 0
 283 522 274.2 492.7 270 474 c 2
 260 429 l 1
 359 429 l 1
 370 421 361 395 349 390 c 1
 251 390 l 1
 192 127 l 2
 184.4 93.1 181 73 181 64 c 0
 181 52 191 50 194 50 c 0
 210 50 228 60 274 112 c 1
 286 112 293 106 296 93 c 1
 268.9 44.3 222.3 8.5 182 -4.6 c 1
 146 -61 l 1
 154 -59 163 -58 172 -58 c 0
 204 -58 231 -73 231 -105 c 0
 231 -156 173 -191 106 -191 c 0
 75 -191 58 -185 35 -174 c 1
 49 -156 l 1
 75 -165 82 -166 105 -166 c 0
 139 -166 176 -148 176 -116 c 0
 176 -100 161 -90 141 -90 c 0
 121 -90 112 -92 95 -96 c 1
 90 -90 l 1
 144.4 -9.8 l 1
 117.5 -8.4 102 2.7 102 36 c 0
 102 55 108.7 85.6 116 118 c 2
 177 390 l 1
 107 390 l 2
 104 390 101 390 101 392 c 0
 101 394 104 406 105 409 c 0
 107 417 114 425 133 426 c 2
 186 429 l 1
EndSplineSet
EndChar

StartChar: Tbar
Encoding: 358 358 474
Width: 544
GlyphClass: 2
Flags: MW
LayerCount: 2
Fore
SplineSet
229 645 m 2
 563 645 l 2
 598.8 645 612 652.5 645 658 c 1
 642.5 618 645 575 656 518 c 1
 644.3 513.3 636 513 626 513 c 1
 609 580 594 606 542 606 c 2
 488 606 l 2
 454 606 441 598 434 564 c 2
 395.8 368 l 1
 533 368 l 2
 542 368 543 360 542 355 c 0
 540 344 528 329 516 329 c 2
 388.3 329 l 1
 339 76 l 2
 333.1 45.6 344.1 33.4 383 30 c 2
 417 27 l 1
 420 22 417 2 414 -2 c 1
 370 -1 325 0 287 0 c 0
 248 0 212 -1 167 -2 c 1
 163 7 165 23 169 27 c 1
 200 30 l 2
 241 34 256 48 262 76 c 2
 311 329 l 1
 180 329 l 2
 172 329 171 337 172 343 c 0
 174 353 187 368 196 368 c 2
 318.5 368 l 1
 357 567 l 2
 361.8 595.9 356.4 606 317 606 c 2
 248 606 l 2
 195 606 170 586 141 520.5 c 1
 132 520.5 118.6 522.7 111 527.5 c 1
 133 580.5 145 609 158 658 c 1
 181.5 654 202.9 645 229 645 c 2
EndSplineSet
Position2: "'cpsp' Versalabstaende 1" dx=2 dy=0 dh=5 dv=0
EndChar

StartChar: tbar
Encoding: 359 359 475
Width: 307
GlyphClass: 2
Flags: MW
LayerCount: 2
Fore
SplineSet
186 429 m 1
 199 479 l 2
 208.6 516 207 561 243 561 c 0
 275 561 283 551 283 534 c 0
 283 522 274.2 492.7 270 474 c 2
 260 429 l 1
 359 429 l 1
 370 421 361 395 349 390 c 1
 251 390 l 1
 227.2 284 l 1
 328 284 l 2
 337 284 339 276 338 271 c 0
 336 260 323 245 311 245 c 2
 218.5 245 l 1
 192 127 l 2
 184.4 93.1 181 73 181 64 c 0
 181 52 191 50 194 50 c 0
 210 50 228 60 274 112 c 1
 286 112 293 106 296 93 c 1
 261.5 31 195.5 -10 151 -10 c 0
 120 -10 102 0 102 36 c 0
 102 55 108.7 85.6 116 118 c 2
 144.5 245 l 1
 82 245 l 2
 74 245 73 253 74 259 c 0
 76 269 89 284 98 284 c 2
 153.2 284 l 1
 177 390 l 1
 107 390 l 2
 104 390 101 390 101 392 c 0
 101 394 104 406 105 409 c 0
 107 417 114 425 133 426 c 2
 186 429 l 1
EndSplineSet
EndChar

StartChar: Uogonek
Encoding: 370 370 486
Width: 634
GlyphClass: 2
Flags: MW
LayerCount: 2
Fore
SplineSet
306 -10 m 0
 230.9 -10 123.8 22.1 123.8 166 c 0
 123.8 186.9 126.1 210.1 131 236 c 2
 197 572 l 2
 197.9 576.8 198.4 581.1 198.4 584.9 c 0
 198.4 605.9 184.3 613.5 153 616 c 2
 128 618 l 2
 124 618 121 621 122 626 c 2
 125 645 l 1
 128 647 l 1
 173 646 211 645 249 645 c 0
 287 645 327 646 372 647 c 1
 374 645 l 1
 370 626 l 2
 369 621 366 618 361 618 c 2
 336 616 l 2
 296 613 280 600 274 572 c 2
 215 269 l 2
 209.1 236.8 202.6 203.4 202.6 171.4 c 0
 202.6 138.8 209.3 107.8 230 81 c 0
 253 52 288 31 334 31 c 0
 497 31 537 165 559 277 c 2
 616 570 l 2
 617 575.2 617.5 579.9 617.5 584.1 c 0
 617.5 604.8 604.6 613.5 573 616 c 2
 547 618 l 2
 544 618 540 621 541 626 c 2
 545 645 l 1
 547 647 l 1
 592 646 630 645 652 645 c 0
 674 645 713 646 758 647 c 1
 760 645 l 1
 756 626 l 2
 755 621 752 618 747 618 c 2
 722 616 l 2
 681 613 665 598 660 570 c 2
 606 295 l 2
 584.9 184.3 550.2 93.4 479.6 40.4 c 1
 484.8 32 l 1
 412.4 -19 372 -51 362.6 -97 c 0
 357.3 -123 366 -144 403 -144 c 0
 432 -144 451.3 -128 477.8 -106 c 1
 486.8 -106 492 -110 494.6 -117 c 1
 456.4 -162 412.3 -182 371.3 -182 c 0
 321.3 -182 287.4 -162 298.4 -108 c 0
 306.1 -70.4 342.2 -34.5 392.4 -0.2 c 1
 366.7 -6.6 338.1 -10 306 -10 c 0
EndSplineSet
Position2: "'cpsp' Versalabstaende 1" dx=2 dy=0 dh=5 dv=0
EndChar

StartChar: uogonek
Encoding: 371 371 487
Width: 521
GlyphClass: 2
Flags: MW
LayerCount: 2
Fore
SplineSet
506 352 m 2
 450 124 l 2
 444 98 439 76 439 67 c 0
 439 55 442 50 449 50 c 0
 459 50 488 70 514 100 c 1
 528 100 534 92 537 83 c 1
 512 50.9 487.3 26.3 462.2 10.4 c 1
 434.7 -13.5 365 -78.2 365 -123 c 0
 365 -145 384 -167 417 -167 c 0
 446 -167 465 -153 491 -131 c 1
 504 -138 l 1
 468 -183 427 -206 386 -206 c 0
 338 -206 304 -182 304 -138 c 0
 304 -91 342 -51 384 -9 c 0
 384.1 -8.9 384.1 -8.9 384.2 -8.8 c 1
 365.7 -5 361 7.3 361 23 c 0
 361 42 369 83 378 115 c 2
 389 154 l 1
 386 156 l 1
 315 52 265 -10 187 -10 c 0
 152 -10 120 13 120 70 c 0
 120 89 123 111 130 137 c 2
 174 305 l 2
 181 331 187 353 187 362 c 0
 187 374 184 379 177 379 c 0
 167 379 134 359 108 329 c 1
 94 329 88 337 85 346 c 1
 131 405 188 439 236 439 c 0
 266 439 272 425 272 406 c 0
 272 387 259 346 251 314 c 2
 208 151 l 2
 201 124 199 103 199 87 c 0
 199 60 211 50 229 50 c 0
 279 50 328 121 402 247 c 1
 431 357 l 2
 441 395 439 439 477 439 c 0
 509 439 519 429 519 412 c 0
 519 400 509.6 369.9 506 352 c 2
EndSplineSet
EndChar

StartChar: longs
Encoding: 383 383 499
Width: 299
GlyphClass: 2
Flags: MW
LayerCount: 2
Fore
SplineSet
-33 -150 m 0
 -15 -150 1.1 -161.9 12 -182 c 0
 18 -193 22 -197 38 -197 c 0
 57.9 -197 70.8 -190.4 84.5 -160 c 0
 120.2 -80.7 114 -15 168.6 276 c 2
 186.5 372 l 2
 189.4 387.3 184 391.4 166 392.6 c 2
 130 395 l 1
 124 410 123 417 134 425 c 1
 171 429 201 430 209 461 c 0
 228 543 247 585 265 615 c 0
 297 669 345 698 403 698 c 0
 458 698 501 663 501 628 c 0
 501 602 488 583 460 583 c 0
 401 583 453.3 664 394 664 c 0
 349 664 312 598 289 484 c 2
 231 195 l 2
 197.2 26.8 168 -121 121 -184.2 c 0
 97.5 -215.8 59.2 -233 7 -233 c 0
 -27 -233 -66 -212 -66 -187 c 0
 -66 -165 -48 -150 -33 -150 c 0
EndSplineSet
EndChar

StartChar: uni0186
Encoding: 390 390 500
Width: 645
GlyphClass: 2
Flags: MW
LayerCount: 2
Fore
SplineSet
442 659 m 0
 620 659 695 545 695 415 c 0
 695 388 692 359 686 332 c 0
 640 135 453 -11 287 -11 c 0
 165 -11 138 33 78 34 c 1
 94 199 l 1
 125 202 l 1
 127 104 161 25 307 25 c 0
 386 25 547 109 594 312 c 0
 602 344 605 376 605 408 c 0
 605 520 555 617 434 617 c 0
 341 617 266 584 177 507 c 1
 157 521 l 1
 246 610 346 659 442 659 c 0
EndSplineSet
EndChar

StartChar: uni0189
Encoding: 393 393 501
Width: 707
GlyphClass: 2
Flags: MW
LayerCount: 2
Fore
SplineSet
203 72 m 2
 202 66 201 62 201 58 c 0
 201 38 221 33 304 33 c 0
 444 33 581 82 628 284 c 0
 636 317 640 351 640 384 c 0
 640 505 582 613 413 613 c 0
 363 613 327 609 319 574 c 2
 262 326 l 1
 363 326 l 1
 354 287 l 1
 253 287 l 1
 203 72 l 2
21 19 m 2
 22 24 26 28 31 28 c 2
 61 28 l 2
 98 28 116 42 123 74 c 2
 172 287 l 1
 83 287 l 1
 92 326 l 1
 181 326 l 1
 238 572 l 2
 240 580 241 587 241 593 c 0
 241 612 229 618 197 618 c 2
 168 618 l 2
 163 618 161 621 162 626 c 2
 167 646 l 1
 293 645 l 1
 361 646 424 646 458 646 c 0
 624 646 734 533 734 383 c 0
 734 359 731 333 726 308 c 0
 669 63 468 -1 327 -1 c 0
 224 -1 181 1 145 1 c 2
 17 -1 l 1
 21 19 l 2
EndSplineSet
EndChar

StartChar: uni018E
Encoding: 398 398 502
Width: 569
GlyphClass: 2
Flags: MW
LayerCount: 2
Fore
SplineSet
238 646 m 1
 494 646 l 1
 572 645 l 1
 702 646 l 1
 697 625 l 2
 696 622 694 618 688 618 c 2
 658 618 l 2
 620 618 603 604 596 573 c 2
 480 72 l 2
 479 66 478 61 478 57 c 0
 478 38 489 28 521 28 c 2
 551 28 l 2
 558 28 559 24 558 21 c 2
 553 -1 l 1
 423 1 l 1
 346 0 l 1
 52 0 l 1
 64 160 l 1
 91 165 l 1
 91 163 91 161 91 158 c 0
 91 89 108 39 171 39 c 2
 355 39 l 2
 377 39 393 45 399 72 c 2
 458 327 l 1
 321 327 l 2
 288 327 273 312 261 283 c 2
 248 252 l 2
 247 249 244 245 238 245 c 2
 215 245 l 1
 213 248 l 1
 220 265 235 310 244 344 c 1
 251 377 255 414 258 439 c 0
 258 441 260 443 262 443 c 2
 284 443 l 2
 288 443 290 439 290 435 c 2
 290 405 l 2
 290 404 290 403 290 402 c 0
 290 376 296 361 330 361 c 2
 466 361 l 1
 515 574 l 2
 516 578 517 582 517 585 c 0
 517 601 506 606 487 606 c 2
 334 606 l 2
 283 606 235 546 218 503 c 1
 191 506 l 1
 238 646 l 1
EndSplineSet
EndChar

StartChar: uni018F
Encoding: 399 399 503
Width: 668
GlyphClass: 2
Flags: MW
LayerCount: 2
Fore
SplineSet
176 216 m 1
 178 86 245 22 342 22 c 0
 448 22 544 116 585 216 c 1
 176 216 l 1
222 523 m 1
 205 547 l 1
 301 621 366 658 476 658 c 0
 651 658 721 543 721 415 c 0
 721 386 717 355 710 326 c 0
 665 131 521 -12 328 -12 c 0
 162 -12 102 84 102 202 c 0
 102 221 104 240 106 260 c 1
 604 260 l 1
 608 271 611 283 614 297 c 0
 623 334 627 369 627 402 c 0
 627 534 561 624 453 624 c 0
 359 624 288 575 222 523 c 1
EndSplineSet
EndChar

StartChar: florin
Encoding: 402 402 504
Width: 450
GlyphClass: 2
Flags: MW
LayerCount: 2
Fore
SplineSet
487 698 m 0
 557 698 579 668 579 641 c 0
 579 637 579 633 578 630 c 0
 573 610 557 593 537 593 c 0
 517 593 507 602 503 618 c 0
 499 633 503 669 480 669 c 0
 462 669 429 647 389 541 c 1
 349 430 l 1
 455 430 l 1
 440 391 l 1
 334 391 l 1
 329 374 l 1
 191 -25 139 -172 20 -172 c 0
 -29 -172 -43 -143 -43 -124 c 0
 -43 -121 -42 -119 -42 -116 c 0
 -38 -101 -22 -83 -3 -83 c 0
 14 -83 22 -91 25 -104 c 0
 26 -105 26 -107 26 -109 c 0
 26 -114 25 -119 25 -123 c 0
 25 -129 27 -135 39 -135 c 0
 123 -135 164 96 226 278 c 1
 263 391 l 1
 181 391 l 1
 195 430 l 1
 231 430 l 2
 267 430 287 454 298 483 c 0
 352 631 429 698 487 698 c 0
EndSplineSet
EndChar

StartChar: uni019E
Encoding: 414 414 505
Width: 509
GlyphClass: 2
Flags: MW
AnchorPoint: "below" 265 -111 basechar 0
AnchorPoint: "cedilla" 128 10 basechar 0
AnchorPoint: "above" 264 646 basechar 0
LayerCount: 2
Fore
SplineSet
305 -151 m 2
 392 275 l 2
 399 309 405 329 405 343 c 0
 405 374 391 379 370 379 c 0
 334 379 279 320 216 238 c 1
 177.9 72 l 2
 169 34 170 -10 132 -10 c 0
 100.2 -10 89.1 0.5 89.1 17.2 c 0
 89.1 27 97 52 101.8 72 c 2
 158 321 l 2
 164 349 167 362.9 167 372 c 0
 167 382 161 391 149 392 c 2
 109 395 l 1
 103 404 101.3 415 108 423 c 1
 155 429 202 436 234 436 c 0
 247.2 436 254.5 428.6 254.5 414.9 c 0
 254.5 397.8 242 359 232.3 320.2 c 2
 230 311 l 1
 231 310 l 1
 323 418 366 439 418 439 c 0
 457 439 484 419 484 359 c 0
 484 341 478 318 471 283 c 2
 381 -151 l 2
 372.9 -190 373.1 -233 335.1 -233 c 0
 303.3 -233 292.3 -222.5 292.3 -205.8 c 0
 292.3 -196 300.7 -171.9 305 -151 c 2
EndSplineSet
EndChar

StartChar: uni019F
Encoding: 415 415 506
Width: 668
GlyphClass: 2
Flags: MW
LayerCount: 2
Fore
SplineSet
625 309 m 1
 183 309 l 1
 180 288 179 267 179 249 c 0
 179 104 259 22 372 22 c 0
 486 22 593 130 625 309 c 1
631 353 m 1
 632 368 633 383 633 397 c 0
 633 547 552 624 444 624 c 0
 352 624 233 544 191 353 c 1
 631 353 l 1
720 329 m 0
 685 129 537 -12 346 -12 c 0
 194 -12 85 85 85 243 c 0
 85 264 87 287 91 310 c 0
 126 506 284 658 463 658 c 0
 611 658 726 555 726 394 c 0
 726 373 724 352 720 329 c 0
EndSplineSet
EndChar

StartChar: Ohorn
Encoding: 416 416 507
Width: 698
GlyphClass: 2
Flags: MW
AnchorPoint: "cedilla" 350 0 basechar 0
AnchorPoint: "below" 310 -113 basechar 0
LayerCount: 2
Fore
SplineSet
720 329 m 0
 685 129 537 -12 346 -12 c 0
 194 -12 85 85 85 243 c 0
 85 264 87 287 91 310 c 0
 126 506 284 658 463 658 c 0
 513 658 560 646 599 624 c 1
 616 618 628 616 645 616 c 0
 656 616 701 625 707 659 c 0
 707 660 707 661 707 662 c 0
 707 674 694 683 681 684 c 0
 652 687 641 705 641 723 c 0
 641 726 641 728 642 731 c 0
 646 755 665 770 694 770 c 0
 727 770 749 738 749 698 c 0
 749 692 749 686 748 679 c 0
 738 626 707 590 648 588 c 1
 696 543 726 476 726 394 c 0
 726 373 724 352 720 329 c 0
444 624 m 0
 348 624 223 537 186 327 c 0
 181 299 179 273 179 248 c 0
 179 104 259 22 372 22 c 0
 486 22 593 131 625 310 c 0
 630 341 633 371 633 398 c 0
 633 547 552 624 444 624 c 0
EndSplineSet
EndChar

StartChar: ohorn
Encoding: 417 417 508
Width: 492
GlyphClass: 2
Flags: MW
AnchorPoint: "ogonek" 371 44 basechar 0
AnchorPoint: "cedilla" 230.4 -3 basechar 0
AnchorPoint: "below" 186.2 -107 basechar 0
LayerCount: 2
Fore
SplineSet
162 171 m 0
 162 43 227 23 257 23 c 0
 379 23 413 206 413 271 c 0
 413 335 398 409 321 409 c 0
 207 409 162 261 162 171 c 0
78 163 m 0
 78 283 172 442 339 442 c 0
 368 442 393 437 413 427 c 1
 436 419 449 417 468 417 c 0
 479 417 521 420 529 454 c 0
 530 455 530 457 530 458 c 0
 530 469 519 475 507 477 c 0
 479 480 469 495 469 512 c 0
 469 515 469 519 470 522 c 0
 476 546 496 561 525 561 c 0
 555 561 572 535 572 500 c 0
 572 492 571 482 568 473 c 0
 556 419 516 387 462 387 c 1
 486 355 494 314 494 278 c 0
 494 120 360 -12 232 -12 c 0
 105 -12 78 110 78 163 c 0
EndSplineSet
EndChar

StartChar: uni01A7
Encoding: 423 423 509
Width: 479
GlyphClass: 2
Flags: MW
LayerCount: 2
Fore
SplineSet
208 631 m 1
 265 639 266 658 359 658 c 0
 438 658 519 603 519 513 c 0
 519 503 518 495 517 485 c 0
 496 368 364 318 288 291 c 0
 222 267 168 240 152 149 c 0
 150 140 149 131 149 123 c 0
 149 59 196 24 264 24 c 0
 341 24 423 102 446 178 c 1
 450 187 l 1
 478 184 l 1
 464 133 451 101 443 68 c 0
 440 54 434 31 429 0 c 1
 398 1 l 1
 399 17 396 23 384 23 c 0
 360 23 338 -12 240 -12 c 0
 138 -12 74 63 74 152 c 0
 74 162 75 173 77 184 c 0
 98 305 198 346 287 376 c 0
 332 391 438 429 452 512 c 0
 454 519 454 526 454 533 c 0
 454 584 420 624 362 624 c 0
 263 624 226 563 194 483 c 1
 164 488 l 1
 208 631 l 1
EndSplineSet
EndChar

StartChar: uni01A8
Encoding: 424 424 510
Width: 371
GlyphClass: 2
Flags: MW
LayerCount: 2
Fore
SplineSet
360 140 m 1
 321 -2 l 1
 312 0 303 1 298 1 c 0
 291 1 286 0 278 -1 c 1
 251 -8 221 -12 186 -12 c 0
 144 -12 60 11 60 87 c 0
 60 96 61 105 63 116 c 0
 82 196 156 232 244 262 c 0
 303 282 327 302 336 342 c 0
 338 350 338 357 338 363 c 0
 338 401 308 412 275 412 c 0
 254 412 189 396 149 314 c 1
 125 315 l 1
 135 351 146 385 160 417 c 1
 195 433 232 442 282 442 c 0
 351 442 396 405 396 351 c 0
 396 343 395 335 394 327 c 0
 376 252 333 231 253 199 c 0
 166 165 135 136 125 93 c 1
 125 88 124 83 124 79 c 0
 124 39 164 16 195 16 c 0
 232 16 266 34 279 45 c 0
 310 71 331 119 337 141 c 1
 360 140 l 1
EndSplineSet
EndChar

StartChar: uni01A9
Encoding: 425 425 511
Width: 592
GlyphClass: 2
Flags: MW
LayerCount: 2
Fore
SplineSet
629 646 m 1
 619 506 l 1
 593 503 l 1
 584 559 574 603 518 603 c 2
 253 603 l 1
 393 331 l 1
 391 330 l 1
 109 43 l 1
 426 43 l 2
 495 43 517 87 548 162 c 1
 574 160 l 1
 530 0 l 1
 11 -1 l 1
 9 1 l 1
 13 25 l 1
 16 28 l 1
 29 28 41 29 52 41 c 2
 317 310 l 1
 180 576 l 1
 159 612 135 618 121 618 c 1
 119 620 l 1
 124 645 l 1
 125 646 l 1
 237 646 l 1
 629 646 l 1
EndSplineSet
EndChar

StartChar: Uhorn
Encoding: 431 431 512
Width: 699
GlyphClass: 2
Flags: MW
AnchorPoint: "cedilla" 328 4 basechar 0
LayerCount: 2
Fore
SplineSet
319 -12 m 0
 240 -12 125 21 125 171 c 0
 125 190 126 211 130 234 c 2
 190 574 l 2
 191 579 191 583 191 586 c 0
 191 608 177 618 144 618 c 2
 117 618 l 2
 113 618 109 621 110 626 c 2
 114 645 l 1
 116 646 l 1
 116 646 203 645 242 645 c 0
 277 645 371 646 371 646 c 1
 373 645 l 1
 369 626 l 2
 368 621 365 618 360 618 c 2
 333 618 l 2
 292 618 276 602 271 574 c 2
 217 267 l 2
 212 237 207 207 207 177 c 0
 207 142 214 108 237 79 c 1
 262 50 300 29 347 29 c 0
 516 29 555 163 575 275 c 2
 627 574 l 2
 628 579 628 583 628 586 c 0
 628 608 614 618 581 618 c 2
 554 618 l 2
 550 618 546 621 547 626 c 2
 551 645 l 1
 553 646 l 1
 553 646 624 645 663 645 c 0
 699 645 773 646 773 646 c 1
 774 646 l 1
 791 648 815 657 819 682 c 0
 821 691 821 706 817 710 c 1
 811 707 805 705 795 705 c 0
 767 705 758 721 758 738 c 0
 758 741 758 744 759 748 c 0
 763 771 787 789 816 789 c 0
 847 789 860 763 860 729 c 0
 860 720 859 710 857 701 c 0
 849 653 815 622 765 618 c 0
 764 618 763 618 762 618 c 2
 755 618 l 1
 736 618 l 2
 695 618 678 602 673 574 c 2
 624 293 l 2
 592 115 524 -12 319 -12 c 0
EndSplineSet
EndChar

StartChar: uhorn
Encoding: 432 432 513
Width: 549
GlyphClass: 2
Flags: MW
LayerCount: 2
Fore
SplineSet
516 512 m 0
 516 532 530 561 572 561 c 0
 602 561 618 536 618 501 c 0
 618 451 593 415 534 410 c 1
 467 125 l 2
 460 93 456 67 456 57 c 0
 456 46 466 43 469 43 c 0
 483 43 499 65 526 104 c 1
 545 88 l 1
 509 25 470 -12 423 -12 c 0
 389 -12 381 14 381 33 c 0
 381 52 388 97 403 154 c 1
 324 31 257 -12 197 -12 c 0
 143 -12 126 9 126 58 c 0
 126 78 132 119 136 135 c 2
 181 311 l 2
 189 344 192 361 192 371 c 0
 192 382 182 385 180 385 c 0
 166 385 149 366 119 330 c 1
 98 345 l 1
 132 393 194 442 232 442 c 0
 267 442 273 429 273 405 c 0
 273 386 266 353 258 319 c 2
 214 149 l 2
 208 126 205 98 205 83 c 0
 205 54 213 40 246 40 c 0
 282 40 407 180 420 234 c 2
 466 430 l 1
 477 430 520 435 541 438 c 0
 563 441 577 448 577 462 c 0
 577 489 516 466 516 512 c 0
EndSplineSet
EndChar

StartChar: uni01B5
Encoding: 437 437 514
Width: 578
GlyphClass: 2
Flags: MW
LayerCount: 2
Fore
SplineSet
528 -2 m 1
 528 -2 432 0 407 0 c 2
 57 0 l 2
 44.6 0 40.8 3.9 40.8 11.8 c 0
 40.8 19.7 46.8 30.8 54 38 c 2
 286.4 301 l 1
 187.9 301 l 2
 179.9 301 177.5 309 178.9 316 c 0
 181.3 328 194.8 345 206.8 345 c 2
 325.2 345 l 1
 532 579 l 2
 538 586 542 592 543 597 c 0
 545 603 542 605 535 605 c 2
 314 605 l 2
 242 605 215 555 181 486 c 1
 153 491 l 1
 169 532 192 604 207 658 c 1
 242 655 237 645 282 645 c 2
 590 645 l 1
 620 648 641 655 653 655 c 0
 669 655 673.2 652.6 673.2 647.1 c 0
 673.2 638.3 665.4 620.6 639 591 c 2
 420.5 345 l 1
 551.8 345 l 2
 560.8 345 563.4 338 562 331 c 0
 559.6 319 545.9 301 532.9 301 c 2
 381.4 301 l 1
 178 72 l 1
 172 63 168 57 167 52 c 0
 165 43 172 39 188 39 c 2
 412 39 l 2
 485 39 524 98 557 170 c 1
 586 165 l 1
 565 113 543 54 528 -2 c 1
EndSplineSet
EndChar

StartChar: uni01B6
Encoding: 438 438 515
Width: 411
GlyphClass: 2
Flags: MW
LayerCount: 2
Fore
SplineSet
438 444 m 1
 467 429 l 1
 457 413 437 392 412 362 c 0
 385.8 329.5 348 288 308.2 245 c 1
 365.8 245 l 2
 374.8 245 377.4 238 376 231 c 0
 373.6 219 359.9 201 346.9 201 c 2
 267.3 201 l 1
 234.5 165.9 202.3 131.5 175.9 102 c 1
 267.9 102 262.4 67 313 67 c 0
 341 67 370 72 408 133 c 1
 420 133 427.1 129.7 433 123 c 1
 386 15 353 -10 310 -10 c 0
 282 -10 249 0 224 15 c 0
 192 35 165 41 148 41 c 0
 138 41 113 25 91 -12 c 1
 83 -11 76 -9 68 -6 c 1
 62 -5 57 0 54 7 c 1
 58 21 96 68 116 91 c 2
 215.9 201 l 1
 141.9 201 l 2
 133.9 201 131.5 209 132.9 216 c 0
 135.3 228 148.8 245 160.8 245 c 2
 255.9 245 l 1
 356.5 355.8 l 1
 346.6 354.4 338.6 354 325 354 c 0
 296 354 258 363 213 363 c 0
 167 363 150 353 129 307 c 1
 118 307 109 308 102 315 c 1
 119 374 164 439 199 439 c 0
 227 439 257 434 305 426 c 1
 352 416 366 412 384 412 c 0
 400 412 415 418 438 444 c 1
EndSplineSet
EndChar

StartChar: uni01B7
Encoding: 439 439 516
Width: 608
GlyphClass: 2
Flags: MW
LayerCount: 2
Fore
SplineSet
281 646 m 2
 636 646 l 2
 655 646 662 641 662 634 c 0
 662 625 652 610 638 591 c 2
 418 288 l 1
 528 265 578 190 578 100 c 0
 578 83 576 67 573 51 c 0
 549 -88 395 -211 235 -211 c 0
 158 -211 21 -178 21 -118 c 0
 21 -115 21 -113 22 -110 c 0
 26 -87 42 -60 76 -60 c 0
 102 -60 128 -74 138 -95 c 0
 161 -143 205 -174 260 -174 c 0
 348 -174 466 -53 482 42 c 0
 486 60 487 77 487 93 c 0
 487 213 398 255 337 255 c 0
 321 255 310 255 295 252 c 1
 553 606 l 1
 304 606 l 1
 230 605 185 516 173 471 c 1
 147 473 l 1
 203 667 l 1
 225 663 257 646 281 646 c 2
EndSplineSet
EndChar

StartChar: uni01B8
Encoding: 440 440 517
Width: 608
GlyphClass: 2
Flags: MW
LayerCount: 2
Fore
SplineSet
557 646 m 2
 582 646 619 663 644 667 c 1
 630 473 l 1
 604 471 l 1
 604 475 604 480 604 485 c 0
 604 533 587 605 521 606 c 1
 271 606 l 1
 405 252 l 1
 391 255 379 255 364 255 c 0
 294 255 171 201 143 42 c 0
 142 33 141 24 141 15 c 0
 141 -75 210 -174 289 -174 c 0
 344 -174 399 -144 440 -95 c 0
 457 -74 487 -60 514 -60 c 0
 542 -60 551 -78 551 -98 c 0
 551 -102 551 -106 550 -110 c 0
 539 -176 382 -211 302 -211 c 0
 157 -211 52 -110 52 13 c 0
 52 25 53 38 55 51 c 0
 75 162 155 261 294 288 c 1
 181 591 l 2
 177 604 171 618 171 627 c 0
 171 629 171 630 172 632 c 0
 173 640 182 646 202 646 c 2
 557 646 l 2
EndSplineSet
EndChar

StartChar: uni01B9
Encoding: 441 441 518
Width: 448
GlyphClass: 2
Flags: MW
LayerCount: 2
Fore
SplineSet
417 430 m 2
 428 430 438 431 441 447 c 1
 464 451 l 1
 460 299 l 1
 433 294 l 1
 433 299 l 2
 433 378 407 391 377 391 c 2
 235 391 l 1
 326 106 l 1
 306 111 287 113 270 113 c 0
 191 113 110 50 90 -35 c 0
 86 -52 84 -67 84 -82 c 0
 84 -166 146 -200 189 -200 c 0
 229 -200 263 -177 281 -154 c 0
 298 -133 315 -126 338 -126 c 0
 355 -126 362 -136 362 -148 c 0
 362 -151 361 -154 361 -157 c 0
 353 -189 282 -229 191 -229 c 0
 68 -229 11 -157 11 -76 c 0
 11 -62 12 -48 16 -34 c 0
 40 72 119 142 239 152 c 1
 163 388 l 1
 160 401 158 411 160 417 c 0
 162 426 168 430 187 430 c 2
 417 430 l 2
EndSplineSet
EndChar

StartChar: uni01C0
Encoding: 448 448 519
Width: 205
GlyphClass: 2
Flags: MW
LayerCount: 2
Fore
SplineSet
121 1 m 1
 82 1 l 1
 231 652 l 1
 271 652 l 1
 121 1 l 1
EndSplineSet
EndChar

StartChar: uni01C2
Encoding: 450 450 521
Width: 332
GlyphClass: 2
Flags: MW
LayerCount: 2
Fore
SplineSet
185 1 m 1
 145 1 l 1
 204 256 l 1
 102 256 l 1
 111 295 l 1
 213 295 l 1
 227 358 l 1
 125 358 l 1
 134 397 l 1
 236 397 l 1
 295 652 l 1
 334 652 l 1
 276 397 l 1
 382 397 l 1
 373 358 l 1
 267 358 l 1
 252 295 l 1
 358 295 l 1
 349 256 l 1
 243 256 l 1
 185 1 l 1
EndSplineSet
EndChar

StartChar: uni01C3
Encoding: 451 451 522
Width: 175
GlyphClass: 2
Flags: MW
LayerCount: 2
Fore
SplineSet
72 73 m 1
 84 84 97 89 110 89 c 0
 124 89 133 83 141 74 c 1
 146 66 149 59 149 51 c 0
 149 47 148 43 147 40 c 0
 144 26 137 15 125 5 c 0
 113 -4 101 -9 88 -9 c 0
 73 -9 63 -4 56 5 c 0
 51 12 48 20 48 27 c 0
 48 31 49 35 50 40 c 0
 53 53 60 64 72 73 c 1
131 197 m 0
 124 197 121 201 121 207 c 2
 121 210 l 1
 122 211 127 246 142 332 c 0
 144 344 147 373 152 418 c 0
 155 443 157 463 157 479 c 0
 158 496 158 511 159 524 c 0
 160 538 162 552 164 566 c 0
 166 582 169 598 173 615 c 0
 179 638 188 655 202 668 c 0
 216 681 230 688 246 688 c 0
 262 688 273 680 281 668 c 0
 286 660 289 649 289 638 c 0
 289 631 288 623 286 615 c 0
 281 596 277 580 272 566 c 0
 267 550 262 536 257 524 c 0
 251 508 245 494 238 479 c 0
 231 462 224 442 216 418 c 0
 201 376 191 349 187 332 c 1
 185 328 153 222 149 210 c 0
 146 201 141 197 133 197 c 2
 132 197 l 1
 132 197 132 197 131 197 c 0
EndSplineSet
EndChar

StartChar: uni01CF
Encoding: 463 463 534
Width: 293
GlyphClass: 2
Flags: MW
LayerCount: 2
Fore
SplineSet
243 698 m 1
 221 734 194 765 164 792 c 1
 184 812 l 1
 219 795 249 776 276 751 c 1
 319 778 355 796 397 812 c 1
 407 792 l 1
 363 764 324 731 286 698 c 1
 243 698 l 1
288 574 m 2
 200 71 l 2
 194 41 207 28 247 28 c 2
 273 28 l 2
 277 28 281 25 280 20 c 2
 276 1 l 1
 274 -1 l 1
 274 -1 188 1 148 1 c 0
 113 1 20 -1 20 -1 c 1
 18 1 l 1
 21 20 l 2
 22 25 25 28 30 28 c 2
 57 28 l 2
 98 28 114 43 119 71 c 2
 208 574 l 2
 213 604 200 618 161 618 c 2
 134 618 l 2
 130 618 126 621 127 626 c 2
 131 645 l 1
 133 646 l 1
 133 646 220 645 259 645 c 0
 294 645 388 646 388 646 c 1
 390 645 l 1
 386 626 l 2
 385 621 382 618 377 618 c 2
 351 618 l 2
 310 618 293 602 288 574 c 2
EndSplineSet
EndChar

StartChar: uni01D7
Encoding: 471 471 542
Width: 634
GlyphClass: 2
Flags: MW
LayerCount: 2
Fore
SplineSet
456.5 744.5 m 0
 450.3 744.5 447.3 747.2 447.3 754.2 c 0
 447.3 762.1 452.6 768.3 463.4 776.2 c 2
 572 850.1 l 1
 622.1 810.5 l 1
 491.9 755 l 2
 475.7 748.8 463.4 744.5 456.5 744.5 c 0
EndSplineSet
Refer: 373 -1 N 1 0 0 1 0 0 2
EndChar

StartChar: uni01D8
Encoding: 472 472 543
Width: 521
GlyphClass: 2
Flags: MW
LayerCount: 2
Fore
SplineSet
458.6 747.2 m 1
 461.2 748.1 466.2 749 470.2 749 c 0
 475.3 749 495.6 748.1 510.4 728.3 c 1
 511 718.4 l 1
 401.3 620.3 l 2
 386.9 606.8 379.8 603.2 374.2 603.2 c 0
 368.6 603.2 364 608.6 365.1 614.9 c 0
 366.9 625 370.2 628.6 378.8 640.1 c 2
 458.6 747.2 l 1
EndSplineSet
Refer: 396 252 N 1 0 0 1 0 0 2
EndChar

StartChar: uni01D9
Encoding: 473 473 544
Width: 634
GlyphClass: 2
Flags: MW
LayerCount: 2
Fore
SplineSet
447.3 748.1 m 1
 431.1 780.7 409.6 807.1 386.5 831.7 c 1
 401.9 849.3 l 1
 429.6 834.3 451.9 817.6 473.5 795.6 c 1
 505.8 818.5 534.4 835.2 566.7 849.3 c 1
 574.4 831.7 l 1
 540.5 806.2 509.7 778 480.4 748.1 c 1
 447.3 748.1 l 1
EndSplineSet
Refer: 373 -1 N 1 0 0 1 0 0 2
EndChar

StartChar: uni01DA
Encoding: 474 474 545
Width: 521
GlyphClass: 2
Flags: MW
LayerCount: 2
Fore
SplineSet
355.5 644.2 m 1
 339.9 686.5 317.7 727 295.9 761.2 c 1
 314 772.9 l 1
 340.5 746.8 362.8 724.3 384.1 691.9 c 1
 419.9 726.1 451.2 748.6 485.2 772.9 c 1
 498.3 761.2 l 1
 464 726.1 426.2 685.6 395.5 644.2 c 1
 355.5 644.2 l 1
EndSplineSet
Refer: 396 252 N 1 0 0 1 0 0 2
EndChar

StartChar: uni01DB
Encoding: 475 475 546
Width: 634
GlyphClass: 2
Flags: MW
LayerCount: 2
Fore
SplineSet
487.4 761.2 m 0
 487.4 755.9 484.2 744.5 472.7 744.5 c 0
 465 744.5 454.2 748.8 441.9 755 c 2
 333.3 810.5 l 1
 400.3 850.1 l 1
 478.9 776.2 l 2
 484.3 770.9 487.4 765.6 487.4 761.2 c 0
EndSplineSet
Refer: 373 -1 N 1 0 0 1 0 0 2
EndChar

StartChar: uni01DC
Encoding: 476 476 547
Width: 521
GlyphClass: 2
Flags: MW
LayerCount: 2
Fore
SplineSet
342.4 760.2 m 1
 377.9 646.8 l 2
 380.3 637.8 379.9 631.5 378.8 625.2 c 0
 378 620.7 371.4 615.3 365 615.3 c 0
 360.2 615.3 355.5 619.8 345.1 633.3 c 2
 271.6 731.4 l 1
 275 741.3 l 1
 282.4 746.7 303.6 762 330.8 762 c 0
 334.8 762 339.4 761.1 342.4 760.2 c 1
EndSplineSet
Refer: 396 252 N 1 0 0 1 0 0 2
EndChar

StartChar: uni01DD
Encoding: 477 477 548
Width: 401
GlyphClass: 2
Flags: MW
AnchorPoint: "above" 214 645 basechar 0
LayerCount: 2
Fore
SplineSet
73 59 m 0
 73 30 86 21 122 21 c 0
 163.9 21 218.9 50.5 254.2 191.6 c 1
 178.2 181.8 73 148.7 73 59 c 0
261 230 m 1
 262 238 262 259 262 264 c 0
 262 355 231 379 186 379 c 0
 138 379 115 370 58 312 c 1
 46 312 40 317 35 328 c 1
 94 404 155 439 222 439 c 0
 305 439 345 372 345 287 c 0
 345 160 273 -10 99 -10 c 0
 27 -10 4 39 4 64 c 0
 4 102 0 179 261 230 c 1
EndSplineSet
EndChar

StartChar: uni01E0
Encoding: 480 480 551
Width: 695
GlyphClass: 2
Flags: MW
LayerCount: 2
Fore
SplineSet
153 72 m 2
 148 65 144 56 144 49 c 0
 144 35 160 28 187 28 c 2
 216 28 l 2
 220 28 223 25 223 20 c 1
 219 1 l 1
 217 -1 l 1
 217 -1 119 1 94 1 c 0
 69 1 4 -1 4 -1 c 1
 2 1 l 1
 6 20 l 2
 7 25 10 28 15 28 c 2
 27 28 l 2
 68 28 89 47 109 81 c 2
 439 628 l 2
 454 653 464 662 473 662 c 0
 489 662 495 654 501 628 c 2
 610 86 l 2
 618 47 634 28 674 28 c 2
 685 28 l 2
 689 28 693 24 693 20 c 2
 690 1 l 1
 686 -1 l 1
 686 -1 611 1 572 1 c 0
 536 1 438 -1 438 -1 c 1
 436 1 l 1
 440 20 l 2
 441 25 444 28 449 28 c 2
 477 28 l 2
 507 28 529 38 529 61 c 0
 529 65 529 68 528 72 c 2
 495 244 l 1
 285 244 l 2
 260 244 251 238 245 227 c 2
 153 72 l 2
309 283 m 2
 487 283 l 1
 436 550 l 1
 288 301 l 2
 286 297 285 295 285 292 c 0
 285 287 291 283 309 283 c 2
494 793 m 0
 516 793 535 777 535 752 c 0
 535 722 509 697 480 697 c 0
 455 697 438 715 438 738 c 0
 438 766 462 793 494 793 c 0
411 728 m 1
 325 728 l 2
 318 728 315 731 315 737 c 0
 315 738 315 739 316 740 c 0
 319 752 332 768 344 768 c 2
 428 768 l 1
 411 728 l 1
567 767 m 1
 652 767 l 2
 659 767 662 763 662 758 c 0
 662 757 662 756 662 754 c 0
 660 743 645 728 633 728 c 2
 550 728 l 1
 567 767 l 1
EndSplineSet
EndChar

StartChar: uni01E2
Encoding: 482 482 553
Width: 873
GlyphClass: 2
Flags: MW
LayerCount: 2
Fore
SplineSet
796 723 m 2
 551 723 l 2
 544 723 542 728 542 733 c 0
 542 735 542 736 542 738 c 0
 545 750 559 767 571 767 c 2
 816 767 l 2
 823 767 826 762 826 756 c 0
 826 755 826 754 826 752 c 0
 823 741 808 723 796 723 c 2
471 1 m 2
 435 1 341 -2 341 -2 c 1
 340 0 l 1
 343 19 l 2
 344 24 348 28 353 28 c 2
 379 28 l 2
 420 28 436 44 441 72 c 2
 476 266 l 1
 297 266 l 1
 157 68 l 2
 144 51 139 43 139 37 c 0
 139 30 147 28 169 28 c 2
 198 28 l 2
 202 28 203 25 203 22 c 2
 199 -1 l 1
 199 -1 133 1 94 1 c 0
 59 1 2 -1 2 -1 c 1
 6 20 l 2
 7 25 11 28 17 28 c 2
 40 28 l 2
 68 28 82 35 107 70 c 2
 463 577 l 2
 467 583 469 587 470 591 c 0
 470 592 470 594 470 595 c 0
 470 609 456 617 442 617 c 2
 411 617 l 2
 404 617 403 622 404 624 c 2
 408 646 l 1
 583 645 l 1
 661 646 l 1
 906 646 l 1
 896 506 l 1
 869 503 l 1
 869 546 846 606 794 606 c 2
 652 606 l 2
 628 606 615 598 610 574 c 2
 574 366 l 1
 675 366 l 2
 710 366 722 382 733 410 c 2
 745 440 l 2
 746 444 750 448 754 448 c 2
 776 448 l 2
 778 448 779 446 778 444 c 0
 770 412 760 382 754 349 c 0
 748 314 747 285 745 253 c 1
 742 250 l 1
 719 250 l 2
 713 250 712 253 712 257 c 2
 711 288 l 2
 711 316 703 332 669 332 c 2
 568 332 l 1
 522 72 l 2
 521 68 521 65 521 62 c 0
 521 44 533 39 552 39 c 2
 705 39 l 2
 770 39 808 92 836 165 c 1
 862 160 l 1
 808 0 l 1
 546 0 l 1
 471 1 l 2
324 305 m 1
 482 305 l 1
 530 575 l 2
 533 593 532 593 533 598 c 1
 324 305 l 1
EndSplineSet
EndChar

StartChar: uni01E3
Encoding: 483 483 554
Width: 687
GlyphClass: 2
Flags: MW
LayerCount: 2
Fore
SplineSet
582.4 526 m 2
 338.4 526 l 2
 329.4 526 327.1 534 328.5 541 c 0
 330.9 553 345.4 570 356.4 570 c 2
 601.4 570 l 2
 611.4 570 613.7 562 612.5 556 c 0
 610.1 544 595.4 526 582.4 526 c 2
EndSplineSet
Refer: 383 230 N 1 0 0 1 0 0 2
EndChar

StartChar: uni01E4
Encoding: 484 484 555
Width: 687
GlyphClass: 2
Flags: MW
LayerCount: 2
Fore
SplineSet
491 658 m 0
 613 658 640 613 699 613 c 1
 692 448 l 1
 661 444 l 1
 654 543 616 621 470 621 c 0
 335 621 207 502 176 327 c 0
 173 310 172 292 172 274 c 0
 172 154 242 24 397 24 c 0
 452 24 513 42 553 74 c 1
 569 164 l 1
 455 164 l 1
 462 205 l 1
 576 205 l 1
 580 227 l 2
 581 231 581 235 581 239 c 0
 581 261 567 271 533 271 c 2
 507 271 l 2
 502 271 499 274 500 279 c 2
 504 305 l 1
 507 307 l 1
 507 307 593 305 632 305 c 0
 668 305 726 307 726 307 c 1
 728 305 l 1
 723 279 l 2
 722 274 719 271 714 271 c 2
 713 271 l 2
 678 271 666 255 661 227 c 2
 657 205 l 1
 722 205 l 1
 715 164 l 1
 649 164 l 1
 640 111 l 2
 640 109 640 108 640 106 c 0
 640 97 644 90 651 83 c 1
 573 25 486 -12 368 -12 c 0
 189 -12 81 104 81 251 c 0
 81 269 83 288 86 307 c 0
 125 527 319 658 491 658 c 0
EndSplineSet
EndChar

